<?xml version="1.0" encoding="utf-8"?>
<!-- Generator: Adobe Illustrator 23.1.1, SVG Export Plug-In . SVG Version: 6.00 Build 0)  -->
<svg version="1.1" id="レイヤー_1" xmlns="http://www.w3.org/2000/svg" xmlns:xlink="http://www.w3.org/1999/xlink" x="0px"
	 y="0px" viewBox="0 0 323.76 164.22" style="enable-background:new 0 0 323.76 164.22;" xml:space="preserve">
<style type="text/css">
	.st0{fill:#3E4866;}
	.st1{fill:#231815;}
</style>
<g>
	<path class="st0" d="M76.71,61.19c9.45-1.12,22.04-5.63,22.04-17.1c0-13.95-15.75-18.22-30.59-18.22c-18.67,0-39.82,9-39.82,30.59
		c0,19.8,21.15,34.19,42.97,34.19c1.35,0,2.92,0,4.27-0.23v24.52c-9.22,0-30.82,0.45-30.82,14.17c0,9,15.75,10.8,22.27,10.8
		c12.37,0,22.27-2.48,31.94-10.35v27c-12.15,6.75-22.95,7.65-36.44,7.65c-21.37,0-45.89-8.55-45.89-33.74
		c0-11.7,8.55-26.32,21.15-27.9C16.42,98.53,0,78.28,0,56.46C0,17.55,34.19,0,69.06,0c30.37,0,56.46,16.2,56.46,44.09
		c0,23.85-17.1,39.59-40.27,42.29L76.71,61.19z"/>
</g>
<g>
	<path class="st1" d="M144.81,97.14c2.05,1.16,3.71,2.76,4.99,4.81V81.2h11.53v58.74h-11.05v-6.03c-1.62,2.58-3.47,4.46-5.55,5.63
		c-2.08,1.17-4.66,1.76-7.74,1.76c-5.08,0-9.36-2.06-12.83-6.17c-3.47-4.11-5.21-9.38-5.21-15.82c0-7.42,1.71-13.26,5.13-17.52
		c3.42-4.26,7.99-6.38,13.71-6.38C140.42,95.41,142.76,95.99,144.81,97.14z M147.61,128.13c1.68-2.39,2.51-5.49,2.51-9.3
		c0-5.32-1.34-9.12-4.03-11.41c-1.65-1.38-3.57-2.08-5.75-2.08c-3.33,0-5.77,1.26-7.32,3.77c-1.56,2.51-2.33,5.63-2.33,9.36
		c0,4.02,0.79,7.23,2.37,9.64c1.58,2.41,3.98,3.61,7.2,3.61C143.48,131.72,145.93,130.52,147.61,128.13z"/>
	<path class="st1" d="M181.73,91.26h-11.53v-10.5h11.53V91.26z M170.19,96.44h11.53v43.5h-11.53V96.44z"/>
	<path class="st1" d="M186.64,104.94v-8.1h6.07V84.71h11.25v12.13h7.06v8.1h-7.06v22.99c0,1.78,0.23,2.89,0.68,3.33
		c0.45,0.44,1.84,0.66,4.15,0.66c0.35,0,0.71-0.01,1.1-0.02c0.38-0.01,0.76-0.03,1.14-0.06v8.5l-5.39,0.2
		c-5.37,0.19-9.05-0.74-11.01-2.79c-1.28-1.3-1.92-3.31-1.92-6.03v-26.78H186.64z"/>
	<path class="st1" d="M228.38,91.26h-11.53v-10.5h11.53V91.26z M216.85,96.44h11.53v43.5h-11.53V96.44z"/>
	<path class="st1" d="M274.03,134.62c-3.67,4.53-9.25,6.8-16.72,6.8c-7.48,0-13.05-2.27-16.72-6.8c-3.67-4.53-5.51-9.99-5.51-16.37
		c0-6.27,1.84-11.71,5.51-16.31c3.67-4.6,9.24-6.9,16.72-6.9c7.48,0,13.05,2.3,16.72,6.9s5.51,10.04,5.51,16.31
		C279.54,124.63,277.7,130.09,274.03,134.62z M264.93,128.33c1.78-2.36,2.67-5.73,2.67-10.08c0-4.36-0.89-7.71-2.67-10.06
		c-1.78-2.35-4.34-3.53-7.66-3.53c-3.33,0-5.89,1.18-7.68,3.53c-1.8,2.35-2.69,5.7-2.69,10.06c0,4.36,0.9,7.72,2.69,10.08
		c1.8,2.36,4.36,3.55,7.68,3.55C260.6,131.88,263.15,130.7,264.93,128.33z"/>
	<path class="st1" d="M319.49,98.94c2.85,2.35,4.27,6.26,4.27,11.71v29.29h-11.65v-26.46c0-2.29-0.3-4.04-0.91-5.27
		c-1.11-2.23-3.22-3.35-6.34-3.35c-3.83,0-6.46,1.64-7.88,4.91c-0.74,1.73-1.11,3.94-1.11,6.62v23.54h-11.37V96.52h11.01v6.34
		c1.46-2.23,2.83-3.84,4.13-4.83c2.33-1.76,5.29-2.63,8.86-2.63C312.98,95.41,316.64,96.58,319.49,98.94z"/>
</g>
</svg>
