<?xml version="1.0" encoding="utf-8"?>
<!-- Generator: Adobe Illustrator 23.1.1, SVG Export Plug-In . SVG Version: 6.00 Build 0)  -->
<svg version="1.1" id="レイヤー_1" xmlns="http://www.w3.org/2000/svg" xmlns:xlink="http://www.w3.org/1999/xlink" x="0px"
	 y="0px" viewBox="0 0 342.59 125.52" style="enable-background:new 0 0 342.59 125.52;" xml:space="preserve">
<g>
	<g>
		<path d="M21.6,3.21c0,0.09-0.07,0.13-0.22,0.13c-0.15,0-0.22-0.04-0.22-0.13c-0.1-0.73-0.32-1.26-0.68-1.59
			c-0.36-0.33-0.89-0.49-1.59-0.49l-1.17,0c-0.63,0-1.02,0.32-1.16,0.96l-0.87,3.64l1.77,0c0.54,0,0.93-0.11,1.17-0.34
			c0.24-0.22,0.47-0.63,0.69-1.21c0.03-0.09,0.1-0.13,0.22-0.13c0.15,0,0.23,0.04,0.22,0.1c0,0.04-0.09,0.38-0.26,1.04
			c-0.18,0.68-0.33,1.32-0.45,1.92C19,7.36,18.96,7.55,18.93,7.68c-0.03,0.13-0.05,0.26-0.08,0.38c-0.03,0.12-0.11,0.18-0.24,0.18
			c-0.15,0-0.23-0.04-0.22-0.13c0.03-0.29,0.05-0.54,0.05-0.75c0-0.41-0.07-0.7-0.22-0.87c-0.15-0.17-0.44-0.25-0.87-0.25l-1.78,0
			L14.69,9.9c-0.05,0.23-0.08,0.41-0.08,0.55c0,0.24,0.11,0.42,0.32,0.54c0.21,0.12,0.58,0.21,1.11,0.28
			c0.05,0.01,0.08,0.06,0.08,0.14c0,0.08-0.02,0.15-0.06,0.21c-0.04,0.06-0.08,0.09-0.13,0.09c-0.38,0-0.83-0.02-1.38-0.05
			c-0.46-0.03-0.82-0.05-1.09-0.05c-0.27,0-0.64,0.02-1.1,0.05c-0.52,0.03-0.95,0.05-1.28,0.05c-0.05,0-0.08-0.05-0.08-0.14
			c0-0.07,0.02-0.14,0.06-0.2c0.04-0.06,0.08-0.1,0.13-0.1c0.42-0.05,0.75-0.11,0.99-0.19c0.24-0.08,0.42-0.19,0.54-0.33
			c0.12-0.14,0.23-0.42,0.34-0.84l1.82-7.57c0.05-0.24,0.08-0.42,0.08-0.55c0-0.24-0.11-0.42-0.32-0.54
			c-0.21-0.12-0.58-0.21-1.11-0.28c-0.05,0-0.08-0.04-0.08-0.13c0-0.08,0.02-0.15,0.06-0.22c0.04-0.07,0.08-0.1,0.14-0.1
			c1.11,0.07,2.44,0.1,3.99,0.1c1.51,0,2.82-0.03,3.93-0.09c-0.02,0.39-0.03,0.72-0.03,1C21.52,2,21.55,2.57,21.6,3.21z"/>
		<path d="M28.3,5.03l-1.69,4.93c-0.14,0.42-0.21,0.68-0.21,0.79c0,0.13,0.05,0.19,0.16,0.19c0.17,0,0.48-0.28,0.92-0.85
			c0.21-0.28,0.34-0.42,0.39-0.42c0.07,0,0.13,0.03,0.19,0.09c0.06,0.06,0.08,0.12,0.08,0.19c0,0.08-0.18,0.32-0.53,0.73
			c-0.35,0.4-0.7,0.72-1.03,0.95c-0.33,0.23-0.62,0.35-0.86,0.34c-0.26,0-0.47-0.06-0.62-0.19c-0.15-0.13-0.22-0.3-0.22-0.52
			c0-0.27,0.09-0.66,0.26-1.16l0.52-1.56c-0.64,1.09-1.27,1.93-1.88,2.53c-0.61,0.6-1.15,0.9-1.64,0.89c-0.29,0-0.53-0.1-0.72-0.29
			s-0.29-0.45-0.29-0.77c0-0.34,0.11-0.79,0.32-1.33l1.29-3.02c0.18-0.43,0.27-0.7,0.27-0.79c0-0.13-0.05-0.19-0.14-0.19
			c-0.2,0-0.54,0.3-1.03,0.89c-0.22,0.26-0.35,0.39-0.39,0.39c-0.06,0-0.12-0.03-0.17-0.09c-0.05-0.06-0.07-0.12-0.07-0.19
			c0-0.1,0.19-0.34,0.56-0.74c0.37-0.4,0.74-0.71,1.1-0.95c0.36-0.24,0.67-0.35,0.92-0.35c0.24,0,0.42,0.06,0.56,0.17
			c0.14,0.11,0.21,0.26,0.21,0.45c0,0.3-0.12,0.72-0.36,1.27l-1.31,3.1c-0.15,0.35-0.23,0.64-0.23,0.88c0,0.3,0.12,0.45,0.37,0.45
			c0.3,0,0.74-0.37,1.31-1.11C24.94,9,25.58,8,26.29,6.73l0.59-1.7c0.03-0.08,0.13-0.15,0.29-0.2c0.17-0.06,0.34-0.08,0.52-0.08
			c0.15,0,0.29,0.02,0.42,0.07S28.3,4.93,28.3,5.03z"/>
		<path d="M33.27,5.34c0,0.26-0.09,0.62-0.26,1.08l-1.87,4.87c-0.58,1.52-1.23,2.7-1.97,3.56c-0.74,0.85-1.45,1.28-2.12,1.28
			c-0.39,0-0.73-0.09-1.02-0.27c-0.29-0.18-0.43-0.4-0.43-0.64c0-0.23,0.06-0.41,0.19-0.54c0.12-0.13,0.29-0.2,0.51-0.2
			c0.19,0,0.44,0.12,0.75,0.37c0.31,0.25,0.55,0.37,0.75,0.37c0.19,0,0.33-0.05,0.41-0.14c0.09-0.1,0.22-0.37,0.41-0.82l2.94-7.68
			c0.12-0.33,0.18-0.6,0.18-0.82c0-0.11-0.05-0.16-0.14-0.16c-0.22,0-0.73,0.45-1.52,1.35c-0.29,0.32-0.45,0.48-0.48,0.48
			c-0.07,0-0.13-0.03-0.19-0.09c-0.06-0.06-0.08-0.12-0.08-0.18c0-0.08,0.24-0.38,0.72-0.9C30.5,5.71,30.95,5.3,31.36,5
			c0.41-0.3,0.75-0.45,1.02-0.45C32.97,4.55,33.27,4.81,33.27,5.34z M34.19,1.54c0,0.25-0.09,0.46-0.27,0.63
			c-0.18,0.18-0.4,0.26-0.64,0.26c-0.25,0-0.47-0.09-0.64-0.27c-0.17-0.18-0.26-0.39-0.26-0.64c0-0.26,0.09-0.47,0.26-0.65
			c0.17-0.18,0.39-0.27,0.64-0.26c0.25,0,0.47,0.09,0.65,0.27C34.1,1.06,34.19,1.28,34.19,1.54z"/>
		<path d="M37.95,5.23c0,0.33-0.11,0.73-0.34,1.19l-1.76,3.55c-0.18,0.36-0.27,0.63-0.27,0.79c0,0.13,0.04,0.19,0.13,0.19
			c0.18,0,0.54-0.32,1.09-0.96c0.26-0.3,0.41-0.46,0.45-0.46c0.07,0,0.13,0.03,0.18,0.09c0.05,0.06,0.08,0.12,0.08,0.18
			c0,0.08-0.21,0.33-0.62,0.77c-0.42,0.44-0.81,0.78-1.18,1.03c-0.37,0.25-0.67,0.37-0.92,0.37c-0.52,0-0.77-0.24-0.77-0.71
			c0-0.27,0.12-0.66,0.36-1.17l1.76-3.54c0.18-0.36,0.27-0.64,0.27-0.82c0-0.11-0.05-0.16-0.14-0.16c-0.18,0-0.56,0.33-1.14,1
			C34.88,6.86,34.75,7,34.72,7c-0.07,0-0.13-0.03-0.17-0.08c-0.05-0.06-0.07-0.12-0.07-0.19c0-0.08,0.21-0.34,0.62-0.77
			c0.41-0.43,0.8-0.77,1.17-1.02c0.37-0.25,0.68-0.37,0.93-0.37C37.7,4.56,37.95,4.78,37.95,5.23z M38.91,1.54
			c0,0.25-0.09,0.46-0.27,0.63c-0.18,0.18-0.39,0.26-0.64,0.26c-0.26,0-0.47-0.09-0.65-0.27C37.18,2,37.09,1.79,37.09,1.54
			c0-0.25,0.09-0.47,0.27-0.65c0.18-0.18,0.39-0.27,0.65-0.27c0.25,0,0.46,0.09,0.63,0.27C38.82,1.08,38.91,1.29,38.91,1.54z"/>
		<path d="M44.58,7.04c0,0.77-0.2,1.54-0.61,2.31c-0.4,0.78-0.92,1.41-1.56,1.9c-0.64,0.49-1.27,0.73-1.89,0.73
			c-0.53,0-0.98-0.24-1.35-0.71c-0.37-0.47-0.56-1.06-0.56-1.76c0-0.77,0.2-1.54,0.6-2.31s0.92-1.41,1.55-1.91
			c0.64-0.49,1.27-0.74,1.89-0.74c0.53,0,0.98,0.24,1.36,0.71C44.39,5.75,44.58,6.34,44.58,7.04z M43.26,6
			c0-0.35-0.04-0.59-0.13-0.71c-0.09-0.13-0.25-0.19-0.48-0.19c-0.36,0-0.76,0.29-1.21,0.88c-0.45,0.59-0.82,1.31-1.1,2.15
			c-0.29,0.84-0.43,1.65-0.43,2.43c0,0.35,0.04,0.6,0.14,0.72c0.09,0.13,0.25,0.19,0.49,0.19c0.35,0,0.75-0.29,1.2-0.88
			c0.45-0.59,0.81-1.3,1.1-2.15S43.26,6.79,43.26,6z"/>
		<path d="M52.23,6.15c0,0.41-0.18,0.83-0.54,1.24c-0.36,0.41-0.82,0.74-1.4,0.97c-0.57,0.23-1.21,0.34-1.9,0.34
			c0.27,0.57,0.65,1.14,1.14,1.71s0.87,0.86,1.14,0.86c0.26,0,0.39-0.13,0.39-0.39c0-0.13-0.07-0.26-0.22-0.39l-0.08-0.1
			c0-0.07,0.03-0.14,0.08-0.19c0.05-0.05,0.11-0.08,0.18-0.08c0.13,0,0.27,0.1,0.41,0.29c0.14,0.19,0.22,0.37,0.22,0.55
			c0,0.7-0.46,1.04-1.37,1.04c-0.56,0-1.14-0.29-1.73-0.88c-0.59-0.58-1.07-1.32-1.43-2.2l-0.91,2.6c-0.02,0.08-0.11,0.14-0.26,0.19
			c-0.15,0.05-0.3,0.08-0.45,0.08c-0.14,0-0.27-0.02-0.39-0.07c-0.12-0.05-0.18-0.11-0.17-0.21l2.99-9.06
			c0.1-0.29,0.15-0.53,0.15-0.72c0-0.21-0.24-0.34-0.71-0.4c-0.1-0.01-0.14-0.08-0.14-0.2c0-0.13,0.04-0.19,0.11-0.19
			c0.34-0.06,0.75-0.18,1.22-0.36c0.47-0.18,0.83-0.34,1.08-0.5c0.11-0.07,0.2-0.1,0.27-0.1c0.11,0,0.16,0.06,0.16,0.18
			c0,0.13-0.03,0.27-0.08,0.42l-1.97,5.71c0.55-0.65,1.03-1.11,1.45-1.36c0.42-0.25,0.86-0.38,1.34-0.38c0.43,0,0.77,0.15,1.04,0.44
			C52.1,5.32,52.23,5.69,52.23,6.15z M50.83,6.36c0-0.52-0.23-0.77-0.69-0.77c-0.29,0-0.64,0.13-1.02,0.39
			c-0.39,0.26-0.74,0.59-1.06,0.98c-0.32,0.39-0.48,0.69-0.48,0.9c0,0.24,0.18,0.35,0.53,0.35C49.91,8.21,50.82,7.59,50.83,6.36z"/>
		<path d="M60.09,4.73l-2.29,5.27c-0.16,0.36-0.24,0.63-0.24,0.79c0,0.13,0.05,0.19,0.16,0.19c0.16,0,0.5-0.32,1.05-0.97
			c0.25-0.29,0.39-0.44,0.42-0.44c0.06,0,0.12,0.03,0.18,0.09c0.05,0.06,0.08,0.12,0.08,0.18c0,0.08-0.2,0.33-0.59,0.77
			c-0.39,0.44-0.76,0.78-1.12,1.03c-0.35,0.25-0.65,0.37-0.89,0.37c-0.54,0-0.8-0.25-0.8-0.76c0-0.47,0.23-1.13,0.68-1.96
			c-0.39,0.73-0.91,1.36-1.57,1.9c-0.65,0.54-1.22,0.81-1.7,0.81c-0.27,0-0.49-0.11-0.65-0.31c-0.16-0.21-0.24-0.5-0.24-0.86
			c0-0.7,0.3-1.51,0.89-2.42c0.59-0.91,1.32-1.7,2.18-2.38c0.86-0.68,1.58-1.02,2.16-1.02c0.28,0,0.51,0.06,0.69,0.18l0.19-0.47
			c0.08-0.18,0.36-0.27,0.84-0.27c0.39,0,0.59,0.08,0.59,0.23L60.09,4.73z M58.09,6c0-0.32-0.12-0.48-0.35-0.48
			c-0.46,0-0.98,0.25-1.57,0.76c-0.59,0.51-1.11,1.13-1.55,1.87c-0.44,0.74-0.67,1.35-0.67,1.84c0,0.29,0.05,0.5,0.14,0.62
			c0.09,0.12,0.24,0.19,0.46,0.19c0.27,0,0.7-0.31,1.27-0.94c0.57-0.62,1.09-1.33,1.57-2.12C57.86,6.94,58.09,6.36,58.09,6z"/>
		<path d="M73.37,3.59c0,0.9-0.42,1.69-1.27,2.36c-0.85,0.67-1.78,1.01-2.81,1c-0.69,0-1.3-0.05-1.84-0.16l-0.76,3.18
			c-0.06,0.21-0.1,0.39-0.1,0.55c0,0.24,0.1,0.42,0.32,0.54c0.21,0.12,0.58,0.21,1.11,0.28c0.05,0.01,0.08,0.05,0.08,0.14
			c0,0.08-0.02,0.15-0.06,0.21c-0.04,0.06-0.08,0.09-0.13,0.09c-0.38,0-0.83-0.02-1.36-0.05c-0.46-0.03-0.83-0.05-1.1-0.05
			c-0.27,0-0.63,0.02-1.1,0.05c-0.52,0.03-0.95,0.05-1.28,0.05c-0.05,0-0.08-0.05-0.08-0.14c0-0.07,0.02-0.14,0.06-0.2
			c0.04-0.06,0.08-0.1,0.13-0.1c0.43-0.05,0.76-0.11,1-0.19c0.24-0.08,0.42-0.19,0.53-0.33c0.12-0.14,0.23-0.42,0.33-0.84l1.82-7.57
			c0.05-0.24,0.08-0.42,0.08-0.55c0-0.24-0.1-0.42-0.32-0.54c-0.21-0.12-0.58-0.21-1.11-0.28c-0.05,0-0.08-0.04-0.08-0.13
			c0-0.08,0.02-0.15,0.06-0.22c0.04-0.07,0.08-0.1,0.14-0.1c0.37,0,0.78,0.02,1.21,0.05c0.36,0.03,0.67,0.05,0.92,0.05
			c0.27,0,0.59-0.02,0.96-0.05c0.44-0.03,0.85-0.05,1.22-0.05c1.11,0,1.96,0.26,2.54,0.76C73.08,1.86,73.37,2.61,73.37,3.59z
			 M71.68,3.39c0-0.71-0.15-1.27-0.46-1.66c-0.31-0.39-0.74-0.59-1.29-0.59c-0.46,0-0.78,0.07-0.96,0.22
			c-0.18,0.15-0.34,0.5-0.47,1.04l-0.81,3.38c-0.03,0.09-0.04,0.16-0.04,0.22c0,0.16,0.07,0.26,0.21,0.32
			c0.14,0.06,0.41,0.09,0.82,0.09c0.82,0,1.52-0.3,2.12-0.9C71.38,4.92,71.68,4.21,71.68,3.39z"/>
		<path d="M78.34,0.22c0,0.1-0.03,0.24-0.1,0.42l-3.52,9.06c-0.2,0.54-0.31,0.85-0.31,0.93c0,0.16,0.06,0.24,0.18,0.24
			c0.23,0,0.59-0.32,1.08-0.95c0.21-0.27,0.33-0.4,0.38-0.4c0.07,0,0.13,0.03,0.18,0.1c0.05,0.07,0.08,0.13,0.08,0.18
			c0,0.09-0.19,0.35-0.57,0.8c-0.38,0.45-0.74,0.8-1.1,1.06c-0.35,0.26-0.65,0.39-0.9,0.38c-0.57,0-0.85-0.29-0.85-0.85
			c0-0.27,0.08-0.61,0.23-1.03l2.94-7.64c0.12-0.31,0.18-0.55,0.18-0.72c0-0.21-0.22-0.34-0.67-0.4c-0.09-0.01-0.13-0.08-0.13-0.2
			c0-0.13,0.04-0.19,0.13-0.19c0.34-0.06,0.76-0.18,1.24-0.36c0.48-0.18,0.85-0.34,1.1-0.49c0.12-0.07,0.22-0.11,0.27-0.11
			C78.28,0.04,78.34,0.1,78.34,0.22z"/>
		<path d="M84.57,4.77l-2.29,5.27c-0.16,0.36-0.24,0.63-0.24,0.79c0,0.13,0.05,0.19,0.16,0.19c0.16,0,0.5-0.32,1.05-0.97
			c0.25-0.29,0.39-0.44,0.42-0.44c0.06,0,0.12,0.03,0.18,0.09c0.05,0.06,0.08,0.12,0.08,0.18c0,0.08-0.2,0.33-0.59,0.77
			c-0.39,0.44-0.76,0.78-1.12,1.03c-0.35,0.25-0.65,0.37-0.89,0.37c-0.54,0-0.8-0.25-0.8-0.76c0-0.47,0.23-1.13,0.68-1.96
			c-0.39,0.73-0.91,1.36-1.57,1.9c-0.65,0.54-1.22,0.81-1.7,0.81c-0.27,0-0.49-0.11-0.65-0.31c-0.16-0.21-0.24-0.5-0.24-0.86
			c0-0.7,0.3-1.51,0.89-2.42c0.59-0.91,1.32-1.7,2.18-2.38c0.86-0.68,1.58-1.02,2.16-1.02c0.28,0,0.51,0.06,0.69,0.18l0.19-0.47
			c0.08-0.18,0.36-0.27,0.84-0.27c0.39,0,0.59,0.08,0.59,0.23L84.57,4.77z M82.57,6.04c0-0.32-0.12-0.48-0.35-0.48
			c-0.46,0-0.98,0.25-1.57,0.76c-0.59,0.51-1.11,1.13-1.55,1.87c-0.44,0.74-0.66,1.35-0.67,1.84c0,0.29,0.04,0.5,0.14,0.62
			c0.09,0.12,0.24,0.19,0.46,0.19c0.27,0,0.7-0.31,1.27-0.94c0.57-0.62,1.09-1.33,1.57-2.12C82.33,6.97,82.57,6.4,82.57,6.04z"/>
		<path d="M91.83,5.7c0,0.36-0.11,0.8-0.34,1.33l-1.27,3.02c-0.18,0.44-0.27,0.7-0.27,0.79c0,0.13,0.05,0.19,0.14,0.19
			c0.19,0,0.53-0.29,1.02-0.88c0.22-0.26,0.35-0.39,0.39-0.39c0.06,0,0.12,0.03,0.17,0.09c0.05,0.06,0.07,0.12,0.07,0.19
			c0,0.09-0.19,0.34-0.56,0.73c-0.38,0.4-0.74,0.71-1.1,0.94s-0.67,0.35-0.93,0.34c-0.23,0-0.41-0.05-0.55-0.16
			c-0.14-0.11-0.2-0.25-0.2-0.44c0-0.31,0.12-0.73,0.36-1.29l1.31-3.1c0.15-0.35,0.23-0.64,0.23-0.87c0-0.3-0.12-0.45-0.37-0.45
			c-0.3,0-0.74,0.39-1.33,1.16c-0.59,0.78-1.24,1.82-1.97,3.14l-0.53,1.53c-0.03,0.08-0.13,0.14-0.3,0.19
			c-0.17,0.05-0.34,0.08-0.51,0.08c-0.16,0-0.3-0.02-0.43-0.07c-0.13-0.05-0.19-0.1-0.19-0.17l0.01-0.04l1.68-4.95
			c0.14-0.37,0.21-0.63,0.21-0.79c0-0.13-0.05-0.19-0.14-0.19c-0.17,0-0.47,0.28-0.91,0.84c-0.23,0.29-0.36,0.44-0.41,0.44
			c-0.07,0-0.13-0.03-0.18-0.09c-0.05-0.06-0.08-0.12-0.08-0.18c0-0.07,0.18-0.32,0.53-0.73c0.35-0.41,0.7-0.73,1.03-0.96
			c0.33-0.23,0.62-0.35,0.86-0.35c0.55,0,0.82,0.24,0.82,0.72c0,0.3-0.08,0.68-0.24,1.14l-0.48,1.37c0.62-1.02,1.22-1.82,1.82-2.38
			c0.6-0.56,1.14-0.85,1.63-0.85c0.29,0,0.53,0.1,0.73,0.3C91.73,5.13,91.83,5.38,91.83,5.7z"/>
		<path d="M99.55,5.71c0,0.36-0.11,0.8-0.34,1.33l-1.27,3.02c-0.18,0.44-0.27,0.7-0.27,0.79c0,0.13,0.05,0.19,0.14,0.19
			c0.19,0,0.53-0.29,1.02-0.88c0.22-0.26,0.35-0.39,0.39-0.39c0.06,0,0.12,0.03,0.17,0.09c0.05,0.06,0.07,0.12,0.07,0.19
			c0,0.09-0.19,0.34-0.56,0.73c-0.38,0.4-0.74,0.71-1.1,0.94c-0.36,0.23-0.67,0.35-0.93,0.34c-0.23,0-0.41-0.05-0.55-0.16
			c-0.14-0.11-0.2-0.25-0.2-0.44c0-0.31,0.12-0.73,0.36-1.29l1.31-3.1C97.92,6.74,98,6.45,98,6.22c0-0.3-0.12-0.45-0.37-0.45
			c-0.3,0-0.74,0.39-1.33,1.16c-0.59,0.78-1.24,1.82-1.97,3.14L93.8,11.6c-0.03,0.08-0.13,0.14-0.3,0.19
			c-0.17,0.05-0.34,0.08-0.51,0.08c-0.16,0-0.3-0.02-0.43-0.07c-0.13-0.05-0.19-0.1-0.19-0.17l0.01-0.04l1.68-4.95
			c0.14-0.37,0.21-0.63,0.21-0.79c0-0.13-0.05-0.19-0.14-0.19c-0.17,0-0.47,0.28-0.91,0.84c-0.23,0.29-0.36,0.44-0.41,0.44
			c-0.07,0-0.13-0.03-0.18-0.09c-0.05-0.06-0.08-0.12-0.08-0.18c0-0.07,0.18-0.32,0.53-0.73c0.35-0.41,0.7-0.73,1.03-0.96
			c0.33-0.23,0.62-0.35,0.86-0.35c0.55,0,0.82,0.24,0.82,0.72c0,0.3-0.08,0.68-0.24,1.14l-0.48,1.37c0.62-1.02,1.22-1.82,1.82-2.38
			s1.14-0.85,1.63-0.85c0.29,0,0.53,0.1,0.73,0.3C99.45,5.14,99.55,5.4,99.55,5.71z"/>
		<path d="M104.19,5.33c0,0.33-0.11,0.73-0.34,1.19l-1.76,3.55c-0.18,0.36-0.27,0.63-0.27,0.79c0,0.13,0.04,0.19,0.13,0.19
			c0.18,0,0.54-0.32,1.1-0.96c0.26-0.3,0.41-0.46,0.45-0.46c0.07,0,0.13,0.03,0.18,0.09c0.05,0.06,0.08,0.12,0.08,0.18
			c0,0.08-0.21,0.33-0.62,0.77c-0.42,0.44-0.81,0.78-1.18,1.03c-0.37,0.25-0.67,0.37-0.92,0.37c-0.51,0-0.77-0.24-0.77-0.71
			c0-0.27,0.12-0.66,0.36-1.17l1.76-3.54c0.18-0.36,0.27-0.64,0.27-0.82c0-0.11-0.05-0.16-0.14-0.16c-0.18,0-0.56,0.33-1.14,1
			c-0.24,0.27-0.37,0.41-0.4,0.41c-0.07,0-0.13-0.03-0.17-0.08c-0.05-0.06-0.07-0.12-0.07-0.19c0-0.08,0.21-0.34,0.62-0.77
			c0.41-0.43,0.8-0.77,1.17-1.02c0.37-0.25,0.68-0.37,0.93-0.37C103.94,4.65,104.19,4.88,104.19,5.33z M105.15,1.64
			c0,0.25-0.09,0.46-0.27,0.63c-0.18,0.18-0.39,0.26-0.64,0.26c-0.26,0-0.47-0.09-0.65-0.27s-0.26-0.39-0.26-0.64
			c0-0.25,0.09-0.47,0.27-0.65c0.18-0.18,0.39-0.27,0.65-0.27c0.25,0,0.46,0.09,0.63,0.27C105.06,1.17,105.15,1.39,105.15,1.64z"/>
		<path d="M111.86,5.72c0,0.36-0.11,0.8-0.34,1.33l-1.27,3.02c-0.18,0.44-0.27,0.7-0.27,0.79c0,0.13,0.05,0.19,0.14,0.19
			c0.19,0,0.53-0.29,1.02-0.88c0.22-0.26,0.35-0.39,0.39-0.39c0.06,0,0.12,0.03,0.17,0.09c0.05,0.06,0.07,0.12,0.07,0.19
			c0,0.09-0.19,0.34-0.56,0.73c-0.38,0.4-0.74,0.71-1.1,0.94c-0.36,0.23-0.67,0.35-0.93,0.34c-0.23,0-0.41-0.05-0.55-0.16
			c-0.14-0.11-0.2-0.25-0.2-0.44c0-0.31,0.12-0.73,0.36-1.29l1.31-3.1c0.15-0.35,0.23-0.64,0.23-0.87c0-0.3-0.12-0.45-0.37-0.45
			c-0.3,0-0.74,0.39-1.33,1.16c-0.59,0.78-1.24,1.82-1.97,3.14l-0.53,1.53c-0.03,0.08-0.13,0.14-0.3,0.19
			c-0.17,0.05-0.34,0.08-0.51,0.08c-0.16,0-0.3-0.02-0.43-0.07c-0.13-0.05-0.19-0.1-0.19-0.17l0.01-0.04l1.68-4.95
			c0.14-0.37,0.21-0.63,0.21-0.79c0-0.13-0.05-0.19-0.14-0.19c-0.17,0-0.47,0.28-0.91,0.84c-0.23,0.29-0.36,0.44-0.41,0.44
			c-0.07,0-0.13-0.03-0.18-0.09c-0.05-0.06-0.08-0.12-0.08-0.18c0-0.07,0.18-0.32,0.53-0.73c0.35-0.41,0.7-0.73,1.03-0.96
			c0.33-0.23,0.62-0.35,0.86-0.35c0.55,0,0.82,0.24,0.82,0.72c0,0.3-0.08,0.68-0.24,1.14l-0.48,1.37c0.62-1.02,1.22-1.82,1.82-2.38
			s1.14-0.85,1.63-0.85c0.29,0,0.53,0.1,0.73,0.3C111.77,5.16,111.86,5.41,111.86,5.72z"/>
		<path d="M119.33,6.31l-1.04-0.03c0.02,0.19,0.03,0.34,0.03,0.45c0,0.88-0.36,1.69-1.06,2.43c-0.71,0.74-1.51,1.12-2.41,1.11
			c-0.18,0-0.33,0.03-0.43,0.09c-0.11,0.06-0.16,0.14-0.16,0.23c0,0.09,0.08,0.18,0.23,0.27c0.16,0.09,0.51,0.23,1.06,0.42
			c1.09,0.37,1.82,0.71,2.2,1.03c0.38,0.31,0.57,0.67,0.57,1.07c0,0.47-0.18,0.93-0.53,1.38c-0.35,0.45-0.82,0.81-1.4,1.08
			c-0.58,0.26-1.2,0.4-1.85,0.4c-1.01,0-1.83-0.19-2.46-0.55c-0.63-0.37-0.94-0.84-0.94-1.41c0-0.38,0.23-0.78,0.7-1.19
			c0.47-0.41,1.07-0.77,1.79-1.07c-0.59-0.31-0.88-0.59-0.88-0.84c0-0.17,0.09-0.33,0.26-0.49c0.17-0.16,0.5-0.37,1-0.61
			c-0.62-0.36-0.93-0.97-0.93-1.82c0-0.9,0.35-1.72,1.04-2.47c0.69-0.74,1.48-1.12,2.38-1.11c0.69,0,1.19,0.28,1.53,0.82l1.58-0.05
			c0.07,0,0.1,0.07,0.1,0.2c0,0.16-0.04,0.31-0.12,0.45C119.49,6.24,119.41,6.31,119.33,6.31z M117.07,14.17
			c0-0.36-0.21-0.68-0.62-0.97c-0.42-0.29-1.17-0.59-2.27-0.92c-0.47,0.14-0.91,0.4-1.32,0.79c-0.42,0.39-0.62,0.77-0.63,1.14
			c0,1.01,0.77,1.51,2.31,1.51c0.68,0,1.26-0.15,1.77-0.44C116.82,14.99,117.07,14.62,117.07,14.17z M116.94,6.09
			c0-0.59-0.21-0.88-0.64-0.89c-0.28,0-0.58,0.18-0.89,0.54c-0.31,0.36-0.55,0.81-0.73,1.37c-0.18,0.55-0.27,1.15-0.27,1.77
			c0,0.26,0.06,0.48,0.17,0.64c0.11,0.16,0.27,0.25,0.47,0.25c0.5,0,0.94-0.36,1.32-1.09C116.75,7.95,116.94,7.09,116.94,6.09z"/>
		<path d="M129.76,4.83l-2.29,5.27c-0.16,0.36-0.24,0.63-0.24,0.79c0,0.13,0.05,0.19,0.16,0.19c0.16,0,0.5-0.32,1.05-0.97
			c0.25-0.29,0.39-0.44,0.42-0.44c0.06,0,0.12,0.03,0.18,0.09c0.05,0.06,0.08,0.12,0.08,0.18c0,0.08-0.2,0.33-0.59,0.77
			c-0.39,0.44-0.76,0.78-1.12,1.03c-0.35,0.25-0.65,0.37-0.89,0.37c-0.54,0-0.8-0.25-0.8-0.76c0-0.47,0.23-1.13,0.68-1.96
			c-0.39,0.73-0.91,1.36-1.57,1.9c-0.65,0.54-1.22,0.81-1.7,0.81c-0.27,0-0.49-0.11-0.65-0.31c-0.16-0.21-0.24-0.5-0.24-0.86
			c0-0.7,0.3-1.51,0.89-2.42c0.59-0.91,1.32-1.7,2.18-2.38c0.86-0.68,1.58-1.02,2.16-1.02c0.28,0,0.51,0.06,0.69,0.18l0.19-0.47
			c0.08-0.18,0.36-0.27,0.84-0.27c0.39,0,0.59,0.08,0.59,0.23L129.76,4.83z M127.76,6.1c0-0.32-0.12-0.48-0.35-0.48
			c-0.46,0-0.98,0.25-1.57,0.76c-0.59,0.51-1.11,1.13-1.55,1.87c-0.44,0.74-0.66,1.35-0.67,1.84c0,0.29,0.04,0.5,0.14,0.62
			c0.09,0.12,0.24,0.19,0.46,0.19c0.27,0,0.7-0.31,1.27-0.94c0.57-0.62,1.09-1.33,1.57-2.12C127.52,7.04,127.76,6.46,127.76,6.1z"/>
		<path d="M137.02,5.76c0,0.36-0.11,0.8-0.34,1.33l-1.27,3.02c-0.18,0.44-0.27,0.7-0.27,0.79c0,0.13,0.05,0.19,0.14,0.19
			c0.19,0,0.53-0.29,1.02-0.88c0.22-0.26,0.35-0.39,0.39-0.39c0.06,0,0.12,0.03,0.17,0.09c0.05,0.06,0.07,0.12,0.07,0.19
			c0,0.09-0.19,0.34-0.56,0.73c-0.38,0.4-0.74,0.71-1.1,0.94c-0.36,0.23-0.67,0.35-0.93,0.34c-0.23,0-0.41-0.05-0.55-0.16
			c-0.14-0.11-0.2-0.25-0.2-0.44c0-0.31,0.12-0.73,0.36-1.29l1.31-3.1c0.15-0.35,0.23-0.64,0.23-0.87c0-0.3-0.12-0.45-0.37-0.45
			c-0.3,0-0.74,0.39-1.33,1.16c-0.59,0.78-1.24,1.82-1.97,3.14l-0.53,1.53c-0.03,0.08-0.13,0.14-0.3,0.19
			c-0.17,0.05-0.34,0.08-0.51,0.08c-0.16,0-0.3-0.02-0.43-0.07c-0.13-0.05-0.19-0.1-0.19-0.17l0.01-0.04l1.68-4.95
			c0.14-0.37,0.21-0.63,0.21-0.79c0-0.13-0.05-0.19-0.14-0.19c-0.17,0-0.47,0.28-0.91,0.84C130.46,6.86,130.32,7,130.28,7
			c-0.07,0-0.13-0.03-0.18-0.09c-0.05-0.06-0.08-0.12-0.08-0.18c0-0.07,0.18-0.32,0.53-0.73c0.35-0.41,0.7-0.73,1.03-0.96
			c0.33-0.23,0.62-0.35,0.86-0.35c0.55,0,0.82,0.24,0.82,0.72c0,0.3-0.08,0.68-0.24,1.14l-0.48,1.37c0.62-1.02,1.22-1.82,1.82-2.38
			c0.6-0.56,1.14-0.85,1.63-0.85c0.29,0,0.53,0.1,0.73,0.3C136.92,5.19,137.02,5.45,137.02,5.76z"/>
		<path d="M146.61,0.31c0,0.08-0.03,0.22-0.08,0.42l-3.3,9.06c-0.19,0.51-0.29,0.85-0.29,1c0,0.17,0.05,0.26,0.16,0.26
			c0.18,0,0.52-0.33,1.01-0.98c0.19-0.25,0.3-0.37,0.32-0.37c0.07,0,0.13,0.03,0.2,0.09c0.06,0.06,0.09,0.12,0.09,0.18
			c0,0.09-0.18,0.35-0.53,0.79c-0.35,0.43-0.69,0.77-1.03,1.02s-0.63,0.37-0.89,0.36c-0.58,0-0.87-0.3-0.87-0.9
			c0-0.39,0.15-0.92,0.45-1.61c-0.42,0.72-0.92,1.31-1.49,1.79c-0.58,0.48-1.09,0.71-1.55,0.71c-0.37,0-0.67-0.15-0.9-0.44
			c-0.23-0.29-0.35-0.68-0.35-1.17c0-0.76,0.27-1.59,0.8-2.5c0.53-0.91,1.19-1.68,1.99-2.34c0.8-0.65,1.49-0.98,2.08-0.98
			c0.19,0,0.39,0.04,0.6,0.13c0.21,0.09,0.37,0.19,0.46,0.32l0.9-2.55c0.12-0.31,0.18-0.55,0.18-0.72c0-0.21-0.23-0.34-0.69-0.4
			c-0.1-0.01-0.14-0.08-0.14-0.2c0-0.13,0.04-0.19,0.13-0.19c0.34-0.06,0.75-0.18,1.22-0.36c0.48-0.17,0.84-0.34,1.09-0.49
			c0.12-0.07,0.21-0.11,0.27-0.11C146.55,0.14,146.61,0.2,146.61,0.31z M143.2,6.01c0-0.53-0.26-0.79-0.77-0.79
			c-0.45,0-0.95,0.27-1.49,0.83c-0.54,0.55-1,1.23-1.37,2.03c-0.37,0.8-0.55,1.54-0.55,2.22c0,0.5,0.17,0.76,0.51,0.76
			c0.36,0,0.81-0.3,1.35-0.89s1.06-1.35,1.56-2.27C142.94,6.97,143.2,6.34,143.2,6.01z"/>
		<path d="M160.91,5.15c0,1.13-0.34,2.22-1.01,3.28c-0.67,1.06-1.57,1.89-2.69,2.51c-1.12,0.62-2.31,0.92-3.57,0.92
			c-0.24,0-0.68-0.01-1.33-0.03c-0.68-0.02-1.15-0.03-1.41-0.03c-0.4,0-1.32,0.03-2.77,0.09c-0.05,0-0.08-0.05-0.08-0.14
			c0-0.07,0.02-0.14,0.06-0.2c0.04-0.06,0.08-0.1,0.13-0.1c0.42-0.05,0.75-0.11,0.99-0.19c0.24-0.08,0.42-0.19,0.54-0.33
			c0.12-0.14,0.24-0.42,0.34-0.84l1.8-7.57c0.06-0.21,0.1-0.39,0.1-0.55c0-0.24-0.1-0.42-0.32-0.54c-0.21-0.12-0.58-0.21-1.11-0.28
			c-0.05,0-0.08-0.04-0.08-0.13c0-0.21,0.06-0.32,0.19-0.32c0.31,0.02,1.13,0.03,2.48,0.04c0.25,0,0.69-0.01,1.33-0.02
			c0.63-0.02,1.07-0.02,1.31-0.02c1.54,0,2.77,0.4,3.7,1.2C160.45,2.69,160.92,3.78,160.91,5.15z M159.18,4.95
			c0-1.26-0.28-2.2-0.84-2.81c-0.56-0.61-1.42-0.92-2.59-0.92l-0.1,0l-0.85,0.03c-0.64,0.02-1.03,0.33-1.16,0.93l-1.95,8.18
			c-0.03,0.12-0.05,0.23-0.05,0.33c0,0.39,0.26,0.59,0.77,0.59l1.24,0.05c1,0,1.92-0.29,2.74-0.87c0.82-0.58,1.49-1.4,2.01-2.45
			C158.92,6.95,159.18,5.94,159.18,4.95z"/>
		<path d="M166.54,5.95c0,0.73-0.37,1.39-1.1,1.98s-1.58,0.88-2.54,0.88c-0.03,0.32-0.05,0.61-0.05,0.87c0,0.47,0.06,0.81,0.2,1.01
			c0.13,0.2,0.35,0.31,0.65,0.31c0.69,0,1.3-0.39,1.83-1.18l0.05-0.02c0.04,0,0.09,0.03,0.14,0.08c0.05,0.06,0.07,0.11,0.07,0.16
			c0,0.11-0.16,0.38-0.49,0.8c-0.33,0.42-0.67,0.75-1.04,0.98s-0.71,0.35-1.06,0.35c-0.53,0-0.96-0.2-1.29-0.61
			c-0.34-0.41-0.51-0.88-0.5-1.44c0-0.77,0.2-1.58,0.61-2.42c0.41-0.84,0.92-1.55,1.55-2.11c0.63-0.57,1.21-0.85,1.75-0.85
			c0.39,0,0.69,0.11,0.9,0.33C166.44,5.28,166.54,5.58,166.54,5.95z M165.4,6.22c0-0.45-0.2-0.68-0.59-0.68
			c-0.39,0-0.75,0.26-1.09,0.79c-0.34,0.53-0.58,1.18-0.72,1.96c0.45,0,0.85-0.09,1.2-0.28c0.35-0.19,0.64-0.46,0.86-0.82
			C165.29,6.83,165.4,6.51,165.4,6.22z"/>
		<path d="M171.71,5.63c0,0.47-0.18,0.71-0.55,0.71c-0.16,0-0.41-0.15-0.74-0.43c-0.32-0.28-0.55-0.42-0.69-0.42
			c-0.13,0-0.24,0.05-0.32,0.14c-0.08,0.09-0.12,0.21-0.12,0.35c0,0.3,0.19,0.86,0.56,1.7c0.41,0.91,0.61,1.54,0.61,1.89
			c0,0.69-0.24,1.3-0.71,1.83s-1.08,0.79-1.81,0.79c-0.37,0-0.72-0.1-1.03-0.3c-0.31-0.2-0.47-0.41-0.47-0.63
			c0-0.21,0.06-0.37,0.18-0.49c0.12-0.12,0.29-0.18,0.49-0.18c0.17,0,0.36,0.14,0.57,0.41c0.18,0.23,0.33,0.37,0.46,0.45
			c0.13,0.07,0.28,0.11,0.45,0.11c0.21,0,0.38-0.09,0.51-0.28c0.12-0.19,0.19-0.45,0.19-0.79c0-0.24-0.15-0.67-0.45-1.29
			c-0.44-0.9-0.66-1.6-0.66-2.12c0-0.56,0.22-1.08,0.67-1.57c0.45-0.49,0.96-0.73,1.55-0.73c0.39,0,0.71,0.08,0.94,0.25
			C171.59,5.16,171.71,5.37,171.71,5.63z"/>
		<path d="M175.81,5.43c0,0.33-0.11,0.73-0.34,1.19l-1.76,3.55c-0.18,0.36-0.27,0.63-0.27,0.79c0,0.13,0.04,0.19,0.13,0.19
			c0.18,0,0.54-0.32,1.1-0.96c0.26-0.3,0.41-0.46,0.45-0.46c0.07,0,0.13,0.03,0.18,0.09c0.05,0.06,0.08,0.12,0.08,0.18
			c0,0.08-0.21,0.33-0.62,0.77c-0.42,0.44-0.81,0.78-1.18,1.03c-0.37,0.25-0.67,0.37-0.92,0.37c-0.51,0-0.77-0.24-0.77-0.71
			c0-0.27,0.12-0.66,0.36-1.17l1.76-3.54c0.18-0.36,0.27-0.64,0.27-0.82c0-0.11-0.05-0.16-0.14-0.16c-0.18,0-0.56,0.33-1.14,1
			c-0.24,0.27-0.37,0.41-0.4,0.41c-0.07,0-0.13-0.03-0.17-0.08c-0.05-0.06-0.07-0.12-0.07-0.19c0-0.08,0.21-0.34,0.62-0.77
			c0.41-0.43,0.8-0.77,1.17-1.02c0.37-0.25,0.68-0.37,0.93-0.37C175.55,4.75,175.81,4.98,175.81,5.43z M176.76,1.74
			c0,0.25-0.09,0.46-0.27,0.63c-0.18,0.18-0.39,0.26-0.64,0.26c-0.26,0-0.47-0.09-0.65-0.27c-0.18-0.18-0.26-0.39-0.26-0.64
			c0-0.25,0.09-0.47,0.27-0.65c0.18-0.18,0.39-0.27,0.65-0.27c0.25,0,0.46,0.09,0.63,0.27C176.67,1.27,176.76,1.49,176.76,1.74z"/>
		<path d="M183.23,6.4l-1.04-0.03c0.02,0.19,0.03,0.34,0.03,0.45c0,0.88-0.36,1.69-1.06,2.43c-0.71,0.74-1.51,1.12-2.41,1.11
			c-0.18,0-0.33,0.03-0.43,0.09c-0.11,0.06-0.16,0.14-0.16,0.23c0,0.09,0.08,0.18,0.23,0.27c0.16,0.09,0.51,0.23,1.06,0.42
			c1.09,0.37,1.82,0.71,2.2,1.03c0.38,0.31,0.57,0.67,0.57,1.07c0,0.47-0.18,0.93-0.53,1.38c-0.35,0.45-0.82,0.81-1.4,1.08
			c-0.58,0.26-1.2,0.4-1.85,0.4c-1.01,0-1.83-0.19-2.46-0.55c-0.63-0.37-0.94-0.84-0.94-1.41c0-0.38,0.23-0.78,0.7-1.19
			c0.47-0.41,1.07-0.77,1.79-1.07c-0.59-0.31-0.88-0.59-0.88-0.84c0-0.17,0.09-0.33,0.26-0.49c0.17-0.16,0.5-0.37,1-0.61
			c-0.62-0.36-0.93-0.97-0.93-1.82c0-0.9,0.35-1.72,1.04-2.47c0.69-0.74,1.48-1.12,2.38-1.11c0.69,0,1.19,0.28,1.53,0.82l1.58-0.05
			c0.07,0,0.1,0.07,0.1,0.2c0,0.16-0.04,0.31-0.12,0.45C183.39,6.33,183.31,6.4,183.23,6.4z M180.96,14.26
			c0-0.36-0.21-0.68-0.62-0.97c-0.42-0.29-1.17-0.59-2.27-0.92c-0.47,0.14-0.91,0.4-1.32,0.79c-0.42,0.39-0.62,0.77-0.63,1.14
			c0,1.01,0.77,1.51,2.31,1.51c0.68,0,1.26-0.15,1.77-0.44C180.71,15.08,180.96,14.71,180.96,14.26z M180.83,6.17
			c0-0.59-0.21-0.88-0.64-0.89c-0.28,0-0.58,0.18-0.89,0.54c-0.31,0.36-0.55,0.81-0.73,1.37c-0.18,0.55-0.27,1.15-0.27,1.77
			c0,0.26,0.06,0.48,0.17,0.64c0.11,0.16,0.27,0.25,0.47,0.25c0.5,0,0.94-0.36,1.32-1.09C180.64,8.04,180.83,7.18,180.83,6.17z"/>
		<path d="M190.15,5.83c0,0.36-0.11,0.8-0.34,1.33l-1.27,3.02c-0.18,0.44-0.27,0.7-0.27,0.79c0,0.13,0.05,0.19,0.14,0.19
			c0.19,0,0.53-0.29,1.02-0.88c0.22-0.26,0.35-0.39,0.39-0.39c0.06,0,0.12,0.03,0.17,0.09c0.05,0.06,0.07,0.12,0.07,0.19
			c0,0.09-0.19,0.34-0.56,0.73c-0.38,0.4-0.74,0.71-1.1,0.94c-0.36,0.23-0.67,0.35-0.93,0.34c-0.23,0-0.41-0.05-0.55-0.16
			c-0.14-0.11-0.2-0.25-0.2-0.44c0-0.31,0.12-0.73,0.36-1.29l1.31-3.1c0.15-0.35,0.23-0.64,0.23-0.87c0-0.3-0.12-0.45-0.37-0.45
			c-0.3,0-0.74,0.39-1.33,1.16c-0.59,0.78-1.24,1.82-1.97,3.14l-0.53,1.53c-0.03,0.08-0.13,0.14-0.3,0.19
			c-0.17,0.05-0.34,0.08-0.51,0.08c-0.16,0-0.3-0.02-0.43-0.07c-0.13-0.05-0.19-0.1-0.19-0.17l0.01-0.04l1.68-4.95
			c0.14-0.37,0.21-0.63,0.21-0.79c0-0.13-0.05-0.19-0.14-0.19c-0.17,0-0.47,0.28-0.91,0.84c-0.23,0.29-0.36,0.44-0.41,0.44
			c-0.07,0-0.13-0.03-0.18-0.09c-0.05-0.06-0.08-0.12-0.08-0.18c0-0.07,0.18-0.32,0.53-0.73c0.35-0.41,0.7-0.73,1.03-0.96
			c0.33-0.23,0.62-0.35,0.86-0.35c0.55,0,0.82,0.24,0.82,0.72c0,0.3-0.08,0.68-0.24,1.14L185.67,8c0.62-1.02,1.22-1.82,1.82-2.38
			c0.6-0.56,1.14-0.85,1.63-0.85c0.29,0,0.53,0.1,0.73,0.3C190.05,5.27,190.15,5.52,190.15,5.83z"/>
	</g>
	<path d="M22.22,122.54l-2.11-1.5l-1.4-1.94c-0.59-0.24-1-0.65-1.23-1.23c-0.58-1.35-1.29-2.62-2.1-3.83
		c-0.82-1.2-1.46-2.48-1.93-3.83c-0.41-0.94-0.7-1.82-0.88-2.64l-0.09-1.05c0.88,1.53,1.99,2.8,3.33,3.83
		c1.35,1.03,2.55,2.19,3.6,3.48c-0.17-6.39-0.39-12.77-0.68-19.16l-0.88,0.7c-1.11,0.64-2.37,0.96-3.78,0.96l-2.64-1.15
		c-0.88,2.93-2.1,5.71-3.66,8.34c-1.56,2.63-3.3,5.12-5.24,7.46l-1.14,0.61L0,112.31c2.7-4.27,4.86-8.78,6.48-13.53
		C8.1,94.04,9.2,89.18,9.8,84.2l-0.17-1.58L9.8,81.3c0-1.35-0.44-2.51-1.31-3.47s-1.43-2.04-1.67-3.21l1.14,0l1.58,0.44l1.05,0.97
		l1.32,1.14c0.58,1.11,1.14,2.26,1.67,3.43l1.32-0.09l1.93,0l1.05,0.7c0.23-0.82,0.32-1.67,0.27-2.55
		c-0.23-1.41-0.35-2.89-0.35-4.44c0-1.55-0.17-3.06-0.52-4.53c-1.64-0.06-3.13-0.47-4.48-1.24c1.17-0.88,2.55-1.26,4.13-1.14
		c1.58,0.24,3.02,0.94,4.3,2.12l0.61,1.85c-0.76,1.58-1.06,3.22-0.89,4.92c0.23,3.16,0.44,6.33,0.65,9.49
		c0.2,3.16,0.39,6.33,0.56,9.49L22,96.17c0.17,1.11,0.32,2.24,0.43,3.38c0.12,1.14,0.23,2.3,0.35,3.47
		c2.76-2.69,5.21-5.54,7.35-8.56c2.14-3.01,4.15-6.07,6.03-9.18l-1.14,0L33,85.47l0.88-0.17l-2.72-0.36
		c1.11-0.23,2.18-0.48,3.21-0.74c1.02-0.26,2.01-0.6,2.95-1.01l2.03-5.45c-0.76-0.35-1.64-0.59-2.64-0.71l3.34-1.05l0.35-1.58
		c-1.23-0.88-2.37-1.91-3.42-3.08c-0.23-0.64-0.56-1.29-0.96-1.93l2.02-0.09c0.82,0.47,1.43,0.97,1.84,1.5l1.05,1.14
		c0.24-1.41,0.49-2.78,0.75-4.13c0.27-1.35,0.37-2.78,0.31-4.31c-0.23-1.06-0.79-1.96-1.67-2.73l0.97-0.17l1.93,1.15
		c0.82,0.76,1.33,1.67,1.53,2.73c0.2,1.05,0.27,2.17,0.22,3.34c-0.18,1.05-0.34,2.1-0.49,3.12c-0.15,1.03-0.34,2.06-0.58,3.12
		c2.05-2.22,3.68-4.67,4.89-7.33c1.2-2.66,2.04-5.43,2.52-8.3c-0.64-0.88-1.29-1.73-1.93-2.55l1.76-0.61
		c1.46,0.65,2.87,1.44,4.22,2.38l1.32,1.5l-0.27,1.49l-0.7,0.88c-0.59,1.7-1.47,3.22-2.64,4.57l-0.7,0.7
		c-0.47,0.82-1.06,1.58-1.76,2.28l-0.88,1.05l-1.67,1.58c0.94,0.24,1.81,0.59,2.64,1.06l0,1.32c-0.94,0.59-1.86,1.16-2.77,1.71
		c-0.91,0.56-1.89,1.04-2.95,1.45c1.05,0.47,2.05,0.94,2.99,1.41l4.49-2.98c0.64-0.41,1.36-0.61,2.15-0.61s1.71,0.21,2.77,0.62
		c-0.41,1.41-1,2.31-1.76,2.72c-1.29,0.82-2.61,1.46-3.96,1.93c3.51,2.64,7.13,4.92,10.84,6.83c3.72,1.91,7.33,4.07,10.85,6.48
		c0.35,0.53,0.58,1.09,0.7,1.67l-1.06,1.14c-0.76,0-1.55,0.03-2.37,0.08c-3.63-0.82-6.9-2.13-9.79-3.92
		c-2.9-1.79-5.58-3.92-8.03-6.38l-4.13-4.05c-1.29,0.58-2.67,1.01-4.13,1.27c-1.47,0.26-2.87,0.66-4.22,1.18
		c-0.53,1-1.15,1.96-1.85,2.9c-0.7,0.94-1.32,1.93-1.85,2.99c-1.7,2.46-3.49,4.86-5.37,7.2c1.29,0.12,2.43,0.56,3.43,1.32
		c0.7,0.76,1.14,1.67,1.31,2.73c-1.17-0.47-2.28-0.79-3.34-0.97c-0.82-0.76-1.73-1.41-2.72-1.94c-0.94,1.05-1.95,2.06-3.04,3.03
		c-1.09,0.97-2.21,1.83-3.39,2.59l-0.62,0.97c0.17,2.64,0.37,5.27,0.6,7.91c0.23,2.64,0.46,5.27,0.69,7.91L22.22,122.54z
		 M31.88,68.32c0.88-1.52,1.5-3.15,1.85-4.88c0.35-1.73,0.56-3.47,0.62-5.23l-1.05-0.09c-1.41,0.29-2.86,0.55-4.35,0.78
		c-1.49,0.23-2.98,0.41-4.44,0.52l-1.32-0.18c0.11,2.52,0.14,5.04,0.08,7.56l-1.06,0.26l-0.7-0.79l-1.05-0.88
		c-0.17-1.05-0.3-2.14-0.39-3.25c-0.09-1.11-0.28-2.2-0.57-3.25l-1.23-0.18c-1.82,0-3.34-0.31-4.57-0.93
		c-1.23-0.62-2.49-1.07-3.78-1.37l0.88-0.61c2.64,0.24,5.24-0.08,7.82-0.96l0.18-0.88c-0.17-1.58-0.55-3.08-1.14-4.48l0.97,0
		l1.93,0.71c0.53,1.11,0.85,2.35,0.96,3.69c2.7-0.64,5.13-1.37,7.3-2.19c2.17-0.82,4.25-1.84,6.24-3.07l0.27-2.11L34.9,43.9
		c-0.64-0.64-1.38-1.03-2.2-1.15l0-1.05l1.32-0.09l1.58,0c1.35,0.47,2.6,1.23,3.78,2.29c0.35,0.7,0.58,1.49,0.7,2.37
		c1.46-0.17,2.69-0.41,3.69-0.7c1.23,0.12,2.28,0.56,3.16,1.32l0.88,2.02l0.53,1.14l-0.35,1.58l-1.23,0.97
		c-1.35,1.05-2.77,1.92-4.27,2.59c-1.5,0.67-3.03,1.3-4.62,1.88c-0.3,1.11-0.56,2.2-0.8,3.25c-0.24,1.05-0.47,2.17-0.71,3.34
		l-0.79,0.44l-0.88,1.93l-0.97,0.44L31.88,68.32z M14.79,92.21l2.11-0.52l1.58,0.53c0.23-0.76,0.32-1.58,0.27-2.46l-0.52-6.33
		c-1.41,0.35-2.73,0.7-3.96,1.05c-0.3,1.52-0.61,3-0.93,4.44c-0.32,1.44-0.69,2.86-1.1,4.26L14.79,92.21z M43.14,124.24l-0.88-0.7
		c-0.76-1.35-1.68-2.48-2.76-3.39c-1.08-0.91-2.03-1.92-2.85-3.04c-0.35-1.06-0.73-2.11-1.14-3.17l-1.06,0.61
		c-0.59,0.59-1.2,1.11-1.85,1.58l-1.41,0.35l-1.23-0.53l-2.37-2.38l-0.17-1.93l0.88,0.62l1.49,0.35l1.41-0.79
		c1.58-1.23,3.08-2.44,4.49-3.64c1.41-1.2,2.84-2.29,4.31-3.29c0.65-0.82,1.41-1.52,2.29-2.11l0.09-2.02l-0.17-5.27
		c0-1.29-0.06-2.43-0.17-3.43c-0.12-1-0.35-1.96-0.7-2.9l-1.32-1.23l1.58,0c1.11,0.35,2.11,0.91,2.99,1.67
		c0.75,7.85,0.89,15.76,0.41,23.73c-0.24,1.76-0.39,3.57-0.45,5.45l0.09,1.05L43.14,124.24z M41.57,116.85
		c0.24-1.29,0.44-2.61,0.62-3.95c-0.17-2.93-0.14-5.86,0.1-8.79c-0.7,1.11-1.42,2.2-2.16,3.25c-0.73,1.05-1.48,2.05-2.25,2.99
		l-0.62,1.58l3.86,4.84L41.57,116.85z M42.23,81.52c1.41-0.58,2.78-1.26,4.13-2.02c-0.64-1-1.43-1.61-2.37-1.85l-0.97,0.35
		l-1.32,3.6L42.23,81.52z M46.69,100.51c1.23-0.99,2.23-2.14,2.99-3.42l2.03-4.48l-1.05-0.79c0.64-0.47,1.5-0.64,2.55-0.52
		c1.05,0.12,2.23,0.71,3.51,1.76l0.26,0.88c-1.12,1.64-2.44,2.96-3.96,3.95c-0.76,0.59-1.58,0.99-2.46,1.23
		c-0.88,0.41-1.85,0.64-2.9,0.7L46.69,100.51z M66.09,113.02l-1.32-0.09c-1.88-0.47-3.66-1.26-5.36-2.38c-1.7-1.11-3.37-2.41-5-3.87
		l-3.07-2.99c2.28,0.18,4.47,0.43,6.55,0.76c2.08,0.33,3.94,1.05,5.58,2.16c1.93,0.94,3.34,2.44,4.21,4.49l-0.35,0.88L66.09,113.02z
		"/>
	<path d="M97.21,108.67c-1-0.12-1.96-0.5-2.9-1.15c-0.94-0.65-1.81-1.29-2.63-1.94l-0.97-0.79l-0.88-0.97
		c-0.29-1.76-0.41-3.38-0.34-4.88c0.06-1.49-0.08-2.86-0.43-4.09c0.53-3.92,1.26-7.82,2.17-11.69c0.91-3.87,2.43-7.56,4.54-11.07
		l1.49,1.06l2.02,2.02c0.29,2.52,0.29,5.07-0.01,7.65c-0.12,1.7-0.37,3.34-0.75,4.92c-0.38,1.58-0.61,3.22-0.67,4.92
		c0.05,1.52-0.04,2.81-0.27,3.87l0.17,1.05l-0.18,3.08c0.35,1.76,0.58,3.58,0.7,5.45l-0.09,1.14l-0.09,0.88L97.21,108.67z
		 M143.6,125.52l-0.88-0.35l-2.11-1.76c-0.65-0.88-1.26-1.8-1.84-2.77c-0.58-0.97-1.4-1.75-2.46-2.33
		c-1.17-0.35-2.28-0.91-3.34-1.67l-1.14-1.41c-1-0.47-1.93-1.06-2.81-1.76c-0.35-1.06-1.05-1.79-2.11-2.2
		c-0.7-1.52-1.46-3.05-2.28-4.57l0.53-0.79c2.46,2.06,5.11,3.68,7.95,4.89c2.84,1.21,5.81,1.96,8.92,2.25
		c0.47-1.17,0.81-2.42,1.02-3.73c0.21-1.32,0.37-2.65,0.49-4c0.19-6.86,0.14-13.71-0.15-20.57c-0.23-5.1-0.5-10.21-0.81-15.34
		c-0.32-5.13-1.38-10.04-3.19-14.73c-1.11-0.82-2.37-1.23-3.78-1.24c-1.88,0.35-3.56,1.02-5.06,2.01c-1.5,0.99-2.98,2.08-4.44,3.25
		l1.67,1.23c0.76,0.88,1.08,1.76,0.96,2.64c-0.35,1.05-0.74,2.11-1.15,3.16c-0.41,1.05-0.91,2.08-1.5,3.07
		c0.82,0.24,1.64,0.47,2.46,0.71l0.88,1.14l-0.7,0.61l-0.7,1.32c-0.76,0.7-1.58,1.32-2.46,1.84l-1.67,1.4
		c-1.11,0.58-2.17,1.37-3.17,2.37c0.76,1.35,1.21,2.68,1.36,4c0.14,1.32,0.19,2.71,0.13,4.17c-0.35,1.05-0.79,2.08-1.32,3.07
		c1.41-0.53,2.76-1.12,4.05-1.8c1.29-0.67,2.49-1.59,3.61-2.76l0.79-1.41c-0.94-1.58-1.96-3.17-3.07-4.75
		c1.81,0.06,3.35,0.52,4.61,1.37c1.26,0.85,2.5,1.78,3.73,2.77c0.93,1.35,1.75,2.79,2.45,4.31c0.7,1.53,1.14,3.17,1.31,4.92
		c0,0.88-0.12,1.73-0.36,2.55l0.08,2.37l-0.88,0.44l-0.97,1.14c-1.05-0.18-1.84-0.56-2.37-1.15c-0.82-0.94-1.45-1.95-1.89-3.03
		c-0.44-1.08-0.8-2.18-1.09-3.3c-2.58,1.11-5.12,2.16-7.61,3.15c-2.49,0.99-5.03,1.81-7.61,2.45L111.99,97
		c-1.64-0.18-2.9-0.65-3.78-1.41c-0.29-1.06-0.7-2.11-1.23-3.17c0.41-1,0.84-2.02,1.28-3.07c0.44-1.05,0.98-2.05,1.63-2.99
		c0.93,0.88,1.52,1.88,1.75,2.99c-0.7,0.94-0.97,2.08-0.8,3.43l0.97,0.35c1.41-0.23,2.67-0.61,3.78-1.14
		c0.71-1.7,1.42-3.26,2.16-4.7c0.73-1.43,1.02-3.06,0.84-4.88l-0.61-1.85c-1.35,0.53-2.61,1.01-3.78,1.44
		c-1.17,0.44-2.46,0.69-3.87,0.74c-1.88,0.29-3.49-0.15-4.83-1.33c1.35-0.58,2.71-1.06,4.09-1.44c1.38-0.38,2.71-0.92,4-1.62
		c-0.64-1.06-1.26-2.02-1.84-2.9c-0.58-0.88-1.29-1.61-2.11-2.2l-0.97-0.35l0.27-1.14l0.88-0.26c1.23,0.18,2.44,0.44,3.65,0.8
		c1.2,0.35,2.24,1.06,3.12,2.11l0.79,0.79c1.11-2.22,2.23-4.44,3.35-6.63c1.11-2.2,2.06-4.44,2.82-6.72
		c-1.47,0.64-2.67,1.33-3.61,2.06c-0.94,0.73-1.91,1.54-2.9,2.41c-1.58,0.53-3.25,0.85-5.01,0.96c-0.7-0.12-1.38-0.44-2.02-0.97
		l3.87-4.83c2.52-2.4,5.05-4.86,7.57-7.37c2.52-2.52,5.34-4.53,8.45-6.05c1-0.29,1.99-0.6,2.99-0.92c1-0.32,2.08-0.48,3.25-0.48
		c1.52,0.24,2.99,0.65,4.39,1.24c1.41,0.59,2.66,1.53,3.78,2.82c4.33,7.74,6.96,16.04,7.92,24.88c0.95,8.85,1.87,17.64,2.73,26.37
		l-0.01,6.24c0,2.93-0.29,5.67-0.85,8.22s-1.81,4.82-3.74,6.81c-0.94,0.58-1.99,0.93-3.17,1.05l-1.67,0.26
		C145.35,125.2,144.71,125.52,143.6,125.52z"/>
	<path d="M233.75,120.38c-5.86-1.12-11.42-3.15-16.69-6.09c-5.27-2.94-10.72-5.35-16.34-7.23c-1.7,0.64-3.39,1.42-5.06,2.32
		c-1.67,0.91-3.53,1.36-5.58,1.35c-1.23,0-2.23-0.59-2.99-1.76l-0.35-0.88c1.64,0,3.18-0.23,4.62-0.7c1.44-0.47,2.86-1.05,4.27-1.75
		c1.17-1.52,1.85-3.31,2.03-5.36c-0.06-1.41-0.49-2.7-1.31-3.87l-2.46-2.2c-1.46-1.47-2.56-3.12-3.29-4.97
		c-0.73-1.85-1.18-3.79-1.35-5.85c-0.06-1.46,0.24-2.81,0.88-4.04c0.65-1.23,1.38-2.43,2.2-3.6c1.41,0.76,2.46,1.67,3.16,2.73
		c0.58,0.88,0.79,1.93,0.61,3.16c-0.24,1.17-0.68,2.28-1.32,3.34c0.7,2.81,2.09,5.25,4.16,7.3c2.08,2.05,3.47,4.46,4.16,7.21
		c-0.18,1.82-0.59,3.22-1.24,4.22l-0.62,0.88c4.57,0.59,9.14,1.11,13.71,1.56c4.57,0.45,9.08,0.99,13.53,1.65
		c4.1-0.64,8.03-1.94,11.78-3.89c3.75-1.96,7.15-4.43,10.21-7.41c0.88-0.88,1.53-1.84,1.94-2.9l2.11,0.62l-0.62,2.2
		c-0.77,3.28-1.77,6.37-3,9.27c-1.23,2.9-2.73,5.67-4.49,8.3l-1.5,1.49c-1.23,0.93-2.48,1.84-3.74,2.72c-1.26,0.88-2.6,1.58-4,2.1
		l-1.23,0.09L233.75,120.38z M196.81,71.11l-1.14-0.53c-0.93-2.34-1.84-4.72-2.71-7.12c-0.88-2.4-1.69-4.78-2.45-7.12
		c1.29,0.3,2.39,0.78,3.29,1.45c0.91,0.68,1.8,1.36,2.68,2.07c0.82,1,1.58,1.99,2.28,2.99c0.7,1,1.37,1.99,2.02,2.99l0.52,2.55
		l-0.62,1.32C199.51,70.41,198.22,70.87,196.81,71.11z M215.61,82.56l-2.99-0.27c-2.11-0.24-3.98-0.77-5.62-1.59
		c2.87-0.41,5.7-0.91,8.48-1.53c2.78-0.61,5.52-1.5,8.22-2.67c0.71-1.35,1.26-2.78,1.68-4.3c0.41-1.52,0.74-3.1,0.97-4.74
		l-0.97-0.18c-1.06,0.58-2.17,1.04-3.34,1.36c-1.17,0.32-2.32,0.77-3.43,1.36l-1.06,2.11c-1,0.23-1.99,0.55-2.99,0.96l-0.53,1.14
		c-1.53,1.11-3.22,1.64-5.1,1.57c1.59-2.87,2.75-5.84,3.48-8.92c0.74-3.08,1.34-6.16,1.81-9.27c-0.47-1.17-0.99-2.34-1.58-3.52
		c1.7,0.41,3.22,1,4.57,1.76c1.11,0.76,2.14,1.76,3.07,2.99c1.11,1.29,1.78,2.61,2.02,3.96c1.88-0.99,3.43-2.28,4.66-3.86
		c-0.17-1.52-0.32-2.84-0.43-3.96c-0.12-1.11-0.41-2.17-0.87-3.17l-1.32-0.88l-1.67-2.11l1.67-0.35c1.7,0.65,3.28,1.65,4.74,2.99
		l0.88,0.7c0.06,0.65,0.32,1.26,0.79,1.85c1-0.41,1.9-0.58,2.73-0.52c1.64,0.12,3.02,0.8,4.13,2.03l0.26,1.49l-0.35,0.88L237,58.68
		c-0.41,1-0.94,1.9-1.59,2.72l-3.43,2.02c-0.24,1.93-0.64,3.81-1.19,5.62c-0.56,1.82-1.25,3.57-2.07,5.27
		c2.17-0.82,4.19-1.74,6.07-2.76c1.88-1.02,3.72-2.18,5.54-3.46l2.37,0.71l0.53,1.49l0,1.58c-0.35,0.94-0.82,1.84-1.41,2.72
		c-3.7,3.1-7.82,5.22-12.36,6.35C224.91,82.09,220.29,82.62,215.61,82.56z M224.46,102.26c-1.35-0.06-2.49-0.62-3.43-1.67
		c-1.46-1.58-2.6-3.3-3.42-5.15c-0.82-1.85-1.78-3.62-2.89-5.32c1.11,0.12,2.12,0.63,3.03,1.54c0.91,0.91,1.8,1.86,2.68,2.86
		c0.35,0.76,0.85,1.47,1.49,2.11c0.82,0.65,1.76,1,2.81,1.06l2.2-1.23c1.64-1.11,3.17-2.4,4.58-3.86c0.65-0.82,1.23-1.68,1.76-2.59
		c0.53-0.91,0.82-1.89,0.88-2.94c-1.93,0.47-3.53,1.15-4.79,2.06c-1.26,0.91-2.63,1.59-4.09,2.06c-0.41,0.53-1.03,0.7-1.85,0.52
		l-1.23-0.18c1.29-1.29,2.45-2.44,3.48-3.47c1.03-1.02,2.16-1.92,3.39-2.68c1.47-1.11,3.17-1.61,5.1-1.49l2.46,1.06l0.79,1.06
		l0.7,1.06c0.76,1.11,1.2,2.41,1.31,3.87c-0.41,1.23-0.96,2.39-1.63,3.47c-0.68,1.08-1.34,2.15-1.98,3.21l-1.14,0.88
		c-1.47,1.23-3.04,2.15-4.71,2.76S226.45,102.2,224.46,102.26z"/>
	<path d="M300.27,118.1l-1.14-1.41c-1.23-1.29-2.28-2.49-3.16-3.61l-1.67-1.94c-0.41-0.7-0.73-1.44-0.96-2.2
		c1.52,1,2.99,2,4.39,2.99c0.01-10.6,0-21.21-0.04-31.82c-1.47,1.87-3.17,3.54-5.1,5c-0.41,1.99-1.07,3.9-1.99,5.71
		c-0.91,1.82-1.78,3.63-2.6,5.45l-0.62,1.23l-1.41,2.02c-1.29,1.05-2.73,1.7-4.31,1.93l1.59-2.9c0.47-0.88,0.85-1.84,1.15-2.9
		l0.53-0.79c0.88-1.64,1.47-3.31,1.76-5.01c-1.35,0.53-2.64,0.91-3.87,1.14c-1.23,0.23-2.52,0.35-3.87,0.35
		c-1.11-0.23-2.18-0.53-3.21-0.88c-1.02-0.35-1.95-0.97-2.77-1.85l-0.7-1.32c1.76,0.47,3.51,0.71,5.27,0.71
		c2.11-0.82,4.1-1.91,5.98-3.29c1.88-1.37,3.72-2.82,5.54-4.34l0.18-0.97c-0.35-1.11-0.88-2.11-1.58-2.99l-1.93-1.58l1.05-0.09
		c1.64,0.3,3.04,1,4.22,2.12l0.44,0.88c2.29-1.34,4.31-3.01,6.07-5l0.27-1.23c0-1.58-0.32-3.02-0.96-4.31l-2.46-0.79
		c-1.47,0.7-2.99,1.26-4.57,1.66l2.03-3.25c-0.76-0.18-1.46-0.53-2.11-1.06l-2.63-2.55l-0.7-1.93c1.52-0.11,2.95-0.52,4.26-1.22
		s2.51-1.64,3.56-2.81l1.14-1.32l1.32-1.58c0.76-0.88,1.76-1.26,2.99-1.14l1.49,1.41l1.67,0.71c1.35,1.47,2.13,2.99,2.37,4.57
		c-0.06,0.65-0.32,1.2-0.79,1.67l-0.97,0.97l-0.62,1.41c-1.29,1.52-2.64,2.93-4.05,4.21c0.58,0.65,1.05,1.44,1.4,2.38l0.26,0.97
		l0.7-0.7c0.41-0.58,0.97-0.88,1.67-0.88c1.17,0.18,2.31,0.41,3.43,0.71l0.88,0.88c-0.88,1.29-1.79,2.47-2.73,3.56
		c-0.94,1.08-1.97,2.06-3.08,2.94c-0.65,6.21-0.87,12.42-0.64,18.63c0.11,2.05,0.23,3.9,0.34,5.54c0.05,4.75,0.13,9.49,0.24,14.24
		C301.13,115.93,300.8,117.16,300.27,118.1z M310.29,119.87c0.88-0.64,1.79-1.2,2.73-1.67l3.96-3.33c1.17-1.29,2.2-2.44,3.08-3.47
		c0.88-1.02,1.76-2,2.64-2.94c2.47-3.28,4.61-6.73,6.43-10.36c1.82-3.63,3.32-7.38,4.5-11.24l-2.11-2.73l3.43,0.53l1.32-0.17
		c1,0.59,1.99,1.15,2.99,1.67c0.47,0.59,0.82,1.2,1.05,1.85l1.32,1.06c0.41,0.82,0.73,1.61,0.96,2.37
		c-0.53,1.05-1.07,2.09-1.63,3.12c-0.56,1.03-1.16,2.03-1.81,3.03c-0.88,1.76-1.85,3.25-2.91,4.48l-1.06,1.14
		c-0.29,0.7-0.71,1.38-1.23,2.02c-2.41,2.81-5.02,5.33-7.83,7.55l1.32-1.49l-3.61,2.54l-0.97,0.44c-0.47,0.41-1.03,0.64-1.67,0.7
		l-0.7,0.61c-1.76,0.76-3.43,1.61-5.01,2.54C313.9,119.05,312.17,119.64,310.29,119.87z M315.46,66.88
		c1.88-1.93,3.78-3.91,5.72-5.92c1.94-2.02,3.84-4.02,5.72-6.01l-0.79-2.37l0.88-0.35l2.29-0.96c0.64,0,1.73,0.71,3.25,2.11
		l1.41,0.35c1.52,1.29,2.4,2.85,2.63,4.66c-3.29,1.99-6.67,3.77-10.16,5.35C322.92,65.31,319.27,66.36,315.46,66.88z M316.05,83.75
		c1.35-0.82,2.58-1.78,3.7-2.9c1.11-1.11,2.26-2.25,3.43-3.42c2.41-2.34,4.63-4.83,6.69-7.46l-0.35-1.49c1.05-0.12,1.88,0,2.46,0.36
		l2.46,1.59l0.79,2.37c-0.53,1.11-1.29,2.2-2.29,3.25l-2.64,2.11l-3.17,1.93c-1.76,0.76-3.31,1.43-4.66,2.01
		c-1.29,0.47-2.45,0.79-3.47,0.96C317.97,83.23,316.99,83.46,316.05,83.75z"/>
</g>
<g>
	<g>
		<path d="M941.88,737.39c0,0.14-0.12,0.21-0.37,0.21c-0.24,0-0.37-0.07-0.37-0.21c-0.16-1.21-0.53-2.08-1.13-2.63
			c-0.59-0.54-1.47-0.82-2.64-0.82l-1.94,0c-1.04,0-1.68,0.53-1.93,1.6l-1.45,6.04l2.93,0c0.89,0,1.53-0.19,1.93-0.56
			c0.4-0.37,0.78-1.04,1.14-2.01c0.05-0.14,0.17-0.21,0.36-0.21c0.25,0,0.37,0.06,0.37,0.17c0,0.06-0.14,0.64-0.43,1.72
			c-0.3,1.13-0.55,2.19-0.74,3.18c-0.08,0.4-0.14,0.71-0.19,0.93c-0.04,0.22-0.09,0.43-0.13,0.63c-0.04,0.21-0.18,0.31-0.4,0.31
			c-0.25,0-0.37-0.07-0.37-0.21c0.05-0.48,0.08-0.89,0.08-1.24c0-0.68-0.12-1.16-0.37-1.44c-0.25-0.28-0.73-0.42-1.44-0.42l-2.95,0
			l-1.45,6.05c-0.09,0.38-0.13,0.68-0.14,0.91c0,0.4,0.17,0.7,0.53,0.89c0.35,0.2,0.97,0.35,1.85,0.46
			c0.09,0.02,0.13,0.09,0.13,0.23c0,0.13-0.03,0.25-0.1,0.35c-0.07,0.1-0.14,0.15-0.22,0.15c-0.62,0-1.38-0.03-2.28-0.08
			c-0.76-0.05-1.36-0.08-1.8-0.08c-0.45,0-1.05,0.02-1.83,0.08c-0.86,0.05-1.57,0.08-2.12,0.08c-0.09,0-0.13-0.08-0.13-0.24
			c0-0.12,0.03-0.22,0.1-0.33c0.07-0.1,0.14-0.16,0.22-0.17c0.69-0.08,1.24-0.18,1.63-0.32c0.4-0.13,0.69-0.31,0.89-0.54
			c0.2-0.23,0.39-0.69,0.57-1.39l3.01-12.55c0.09-0.39,0.13-0.69,0.13-0.91c0-0.4-0.17-0.7-0.53-0.9c-0.35-0.2-0.97-0.35-1.85-0.46
			c-0.09,0-0.13-0.07-0.13-0.21c0-0.13,0.03-0.25,0.09-0.36c0.06-0.11,0.14-0.16,0.23-0.16c1.85,0.11,4.05,0.17,6.61,0.17
			c2.5,0,4.67-0.05,6.51-0.15c-0.04,0.64-0.05,1.19-0.06,1.65C941.75,735.39,941.79,736.32,941.88,737.39z"/>
		<path d="M952.97,740.4l-2.8,8.18c-0.23,0.69-0.35,1.13-0.35,1.31c0,0.21,0.09,0.32,0.27,0.32c0.29,0,0.79-0.47,1.52-1.41
			c0.36-0.46,0.57-0.69,0.64-0.69c0.12,0,0.22,0.05,0.31,0.15c0.09,0.1,0.14,0.2,0.14,0.31c0,0.13-0.29,0.53-0.88,1.2
			c-0.59,0.67-1.16,1.2-1.7,1.58c-0.55,0.38-1.02,0.57-1.42,0.57c-0.44,0-0.78-0.11-1.02-0.31c-0.24-0.21-0.37-0.5-0.37-0.86
			c0-0.45,0.14-1.09,0.43-1.92l0.87-2.58c-1.07,1.8-2.1,3.2-3.11,4.19c-1.01,0.99-1.91,1.48-2.72,1.48c-0.48,0-0.88-0.16-1.2-0.49
			c-0.32-0.32-0.48-0.75-0.48-1.27c0-0.57,0.18-1.31,0.54-2.21l2.14-5.01c0.3-0.72,0.45-1.15,0.45-1.31c0-0.21-0.08-0.32-0.24-0.32
			c-0.33,0-0.9,0.49-1.71,1.48c-0.36,0.43-0.58,0.65-0.64,0.65c-0.11,0-0.2-0.05-0.28-0.15c-0.08-0.1-0.12-0.2-0.12-0.31
			c0-0.16,0.31-0.57,0.93-1.22s1.23-1.18,1.82-1.57c0.59-0.39,1.1-0.59,1.53-0.58c0.39,0,0.7,0.09,0.93,0.27
			c0.23,0.18,0.35,0.43,0.35,0.74c0,0.5-0.2,1.2-0.59,2.1l-2.17,5.14c-0.25,0.58-0.38,1.07-0.38,1.47c0,0.5,0.2,0.75,0.61,0.75
			c0.5,0,1.22-0.61,2.17-1.84c0.95-1.23,2.01-2.89,3.18-5l0.98-2.82c0.05-0.13,0.21-0.25,0.48-0.34c0.28-0.09,0.56-0.14,0.86-0.14
			c0.25,0,0.48,0.04,0.7,0.12S952.98,740.24,952.97,740.4z"/>
		<path d="M961.21,740.92c0,0.44-0.14,1.03-0.43,1.78l-3.1,8.07c-0.95,2.51-2.04,4.48-3.27,5.89c-1.22,1.41-2.4,2.12-3.51,2.12
			c-0.65,0-1.21-0.15-1.68-0.46c-0.47-0.3-0.71-0.66-0.71-1.07c0-0.38,0.1-0.68,0.31-0.9c0.21-0.22,0.48-0.33,0.84-0.33
			c0.32,0,0.73,0.2,1.24,0.61c0.51,0.41,0.92,0.61,1.24,0.61c0.31,0,0.54-0.08,0.69-0.24c0.15-0.16,0.37-0.61,0.68-1.36l4.87-12.73
			c0.2-0.54,0.29-0.99,0.29-1.36c0-0.18-0.08-0.27-0.24-0.27c-0.36,0-1.2,0.74-2.52,2.24c-0.48,0.53-0.74,0.8-0.79,0.8
			c-0.12,0-0.22-0.05-0.31-0.15c-0.09-0.1-0.14-0.2-0.14-0.3c0-0.13,0.4-0.63,1.19-1.5c0.79-0.87,1.53-1.55,2.21-2.04
			c0.68-0.5,1.25-0.74,1.69-0.74C960.72,739.61,961.21,740.05,961.21,740.92z M962.74,734.62c0,0.41-0.15,0.76-0.45,1.05
			s-0.66,0.44-1.07,0.44c-0.42,0-0.77-0.15-1.06-0.44c-0.29-0.29-0.43-0.65-0.43-1.05c0-0.43,0.14-0.79,0.43-1.08
			c0.29-0.29,0.64-0.44,1.06-0.44c0.42,0,0.77,0.15,1.07,0.44C962.59,733.83,962.74,734.19,962.74,734.62z"/>
		<path d="M968.98,740.74c0,0.55-0.19,1.21-0.56,1.97l-2.91,5.89c-0.3,0.6-0.45,1.04-0.45,1.3c0,0.21,0.07,0.32,0.21,0.32
			c0.29,0,0.9-0.53,1.81-1.58c0.43-0.51,0.68-0.76,0.75-0.76c0.12,0,0.22,0.05,0.3,0.15c0.08,0.1,0.13,0.2,0.13,0.3
			c0,0.12-0.35,0.55-1.03,1.27c-0.69,0.72-1.34,1.29-1.95,1.7c-0.61,0.41-1.12,0.62-1.53,0.62c-0.85,0-1.28-0.39-1.28-1.17
			c0-0.45,0.2-1.1,0.59-1.94l2.91-5.86c0.3-0.6,0.45-1.06,0.46-1.36c0-0.18-0.08-0.27-0.24-0.27c-0.3,0-0.93,0.55-1.89,1.66
			c-0.39,0.45-0.61,0.68-0.67,0.68c-0.12,0-0.21-0.05-0.29-0.14c-0.08-0.09-0.11-0.2-0.11-0.31c0-0.13,0.34-0.56,1.02-1.28
			c0.68-0.72,1.33-1.28,1.94-1.7c0.61-0.41,1.13-0.62,1.55-0.62C968.56,739.62,968.98,740,968.98,740.74z M970.56,734.63
			c0,0.41-0.15,0.76-0.44,1.05s-0.65,0.44-1.05,0.44c-0.43,0-0.79-0.15-1.08-0.44c-0.29-0.29-0.44-0.65-0.44-1.05
			c0-0.42,0.15-0.78,0.44-1.07c0.29-0.3,0.65-0.45,1.08-0.45c0.41,0,0.76,0.15,1.05,0.45C970.41,733.86,970.56,734.21,970.56,734.63
			z"/>
		<path d="M979.95,743.75c0,1.27-0.34,2.55-1,3.84c-0.67,1.29-1.53,2.34-2.59,3.15c-1.06,0.81-2.1,1.22-3.13,1.21
			c-0.87,0-1.62-0.39-2.24-1.17c-0.62-0.78-0.93-1.75-0.93-2.91c0-1.27,0.34-2.55,1-3.84c0.66-1.29,1.52-2.34,2.58-3.16
			c1.05-0.82,2.1-1.23,3.13-1.23c0.87,0,1.62,0.39,2.25,1.18C979.64,741.6,979.95,742.57,979.95,743.75z M977.77,742.01
			c0-0.58-0.07-0.97-0.22-1.18c-0.15-0.21-0.41-0.31-0.79-0.31c-0.6,0-1.26,0.49-2.01,1.46c-0.74,0.98-1.35,2.16-1.82,3.56
			c-0.47,1.4-0.71,2.74-0.71,4.03c0,0.59,0.07,0.99,0.22,1.2c0.15,0.21,0.42,0.32,0.81,0.32c0.59,0,1.25-0.48,1.99-1.46
			c0.74-0.97,1.34-2.16,1.82-3.56C977.53,744.67,977.77,743.32,977.77,742.01z"/>
		<path d="M992.64,742.27c0,0.68-0.3,1.37-0.89,2.06c-0.59,0.69-1.36,1.22-2.31,1.6s-2,0.57-3.15,0.57
			c0.45,0.94,1.08,1.89,1.89,2.84c0.81,0.95,1.44,1.43,1.89,1.43c0.43,0,0.64-0.21,0.64-0.64c0-0.21-0.12-0.43-0.37-0.65l-0.13-0.17
			c0-0.12,0.04-0.23,0.13-0.32c0.08-0.09,0.18-0.13,0.3-0.13c0.21,0,0.44,0.16,0.68,0.47c0.24,0.31,0.36,0.62,0.36,0.91
			c0,1.15-0.76,1.73-2.27,1.73c-0.93,0-1.89-0.49-2.87-1.46c-0.98-0.97-1.77-2.18-2.36-3.64l-1.51,4.31
			c-0.04,0.12-0.18,0.23-0.43,0.32c-0.25,0.09-0.5,0.13-0.75,0.13c-0.23,0-0.45-0.04-0.65-0.11c-0.2-0.08-0.29-0.19-0.29-0.34
			l4.95-15.01c0.16-0.48,0.24-0.88,0.24-1.2c0-0.35-0.39-0.57-1.17-0.65c-0.16-0.02-0.24-0.13-0.24-0.33c0-0.21,0.06-0.32,0.19-0.32
			c0.57-0.11,1.24-0.3,2.03-0.6c0.78-0.29,1.38-0.57,1.78-0.82c0.18-0.11,0.33-0.17,0.45-0.17c0.18,0,0.27,0.1,0.27,0.29
			c0,0.21-0.05,0.44-0.13,0.69l-3.26,9.47c0.91-1.08,1.71-1.83,2.4-2.25c0.69-0.42,1.43-0.62,2.22-0.62c0.71,0,1.28,0.25,1.72,0.74
			C992.42,740.88,992.64,741.51,992.64,742.27z M990.31,742.61c0-0.85-0.38-1.28-1.14-1.28c-0.49,0-1.05,0.21-1.7,0.64
			c-0.64,0.43-1.23,0.97-1.76,1.62c-0.53,0.65-0.8,1.15-0.8,1.49c0,0.39,0.29,0.59,0.88,0.59
			C988.8,745.68,990.3,744.66,990.31,742.61z"/>
		<path d="M1005.66,739.92l-3.8,8.74c-0.27,0.6-0.4,1.04-0.4,1.31c0,0.21,0.09,0.32,0.27,0.32c0.26,0,0.84-0.54,1.73-1.61
			c0.41-0.49,0.64-0.73,0.69-0.73c0.11,0,0.2,0.05,0.29,0.15c0.09,0.1,0.13,0.2,0.13,0.3c0,0.12-0.33,0.55-0.97,1.28
			c-0.65,0.73-1.27,1.3-1.85,1.7c-0.58,0.41-1.07,0.61-1.47,0.61c-0.89,0-1.33-0.42-1.33-1.25c0-0.78,0.38-1.87,1.12-3.25
			c-0.65,1.21-1.52,2.26-2.6,3.15c-1.08,0.89-2.02,1.34-2.82,1.34c-0.45,0-0.81-0.17-1.07-0.52c-0.26-0.35-0.39-0.82-0.39-1.43
			c0-1.16,0.49-2.5,1.47-4c0.98-1.5,2.18-2.82,3.61-3.95c1.42-1.13,2.62-1.69,3.58-1.69c0.47,0,0.85,0.1,1.15,0.29l0.31-0.77
			c0.13-0.3,0.6-0.45,1.39-0.45c0.65,0,0.97,0.13,0.97,0.37L1005.66,739.92z M1002.35,742.02c0-0.53-0.19-0.8-0.58-0.8
			c-0.75,0-1.62,0.42-2.6,1.25c-0.98,0.84-1.83,1.87-2.57,3.1c-0.73,1.22-1.1,2.24-1.1,3.05c0,0.48,0.08,0.82,0.23,1.03
			c0.15,0.21,0.4,0.31,0.76,0.31c0.45,0,1.15-0.52,2.1-1.55c0.95-1.03,1.81-2.21,2.6-3.52
			C1001.96,743.57,1002.35,742.61,1002.35,742.02z"/>
		<path d="M1027.66,738.02c0,1.49-0.7,2.79-2.11,3.91c-1.4,1.11-2.96,1.67-4.66,1.67c-1.14,0-2.15-0.09-3.04-0.27l-1.26,5.27
			c-0.11,0.35-0.16,0.65-0.16,0.91c0,0.4,0.17,0.7,0.52,0.89c0.35,0.2,0.97,0.35,1.85,0.46c0.09,0.01,0.13,0.09,0.13,0.23
			c0,0.13-0.03,0.25-0.1,0.35c-0.07,0.1-0.14,0.15-0.22,0.15c-0.62,0-1.37-0.03-2.25-0.08c-0.76-0.05-1.37-0.08-1.82-0.08
			c-0.44,0-1.05,0.02-1.82,0.08c-0.86,0.05-1.57,0.08-2.12,0.08c-0.09,0-0.13-0.08-0.13-0.24c0-0.12,0.03-0.22,0.1-0.33
			c0.07-0.1,0.14-0.16,0.22-0.17c0.71-0.08,1.26-0.18,1.66-0.32s0.69-0.31,0.89-0.54c0.2-0.23,0.38-0.69,0.55-1.39l3.01-12.55
			c0.09-0.39,0.13-0.69,0.13-0.91c0-0.4-0.17-0.7-0.53-0.9c-0.35-0.2-0.97-0.35-1.84-0.46c-0.09,0-0.13-0.07-0.13-0.21
			c0-0.13,0.03-0.25,0.09-0.36c0.06-0.11,0.14-0.16,0.23-0.16c0.62,0,1.29,0.03,2.01,0.08c0.59,0.05,1.11,0.08,1.53,0.08
			c0.44,0,0.98-0.03,1.6-0.08c0.73-0.05,1.4-0.08,2.03-0.08c1.85,0,3.25,0.42,4.21,1.27
			C1027.18,735.16,1027.66,736.39,1027.66,738.02z M1024.86,737.69c0-1.18-0.25-2.1-0.77-2.75c-0.51-0.65-1.23-0.98-2.14-0.98
			c-0.75,0-1.28,0.12-1.59,0.37c-0.31,0.25-0.57,0.83-0.78,1.73l-1.34,5.61c-0.05,0.14-0.07,0.26-0.07,0.36
			c0,0.26,0.12,0.44,0.35,0.53c0.24,0.1,0.69,0.15,1.35,0.15c1.35,0,2.52-0.49,3.51-1.49
			C1024.37,740.23,1024.86,739.05,1024.86,737.69z"/>
		<path d="M1035.89,732.43c0,0.17-0.05,0.4-0.16,0.69l-5.83,15.01c-0.34,0.9-0.51,1.41-0.51,1.54c0,0.27,0.1,0.4,0.29,0.4
			c0.38,0,0.98-0.52,1.79-1.57c0.35-0.44,0.55-0.67,0.62-0.67c0.12,0,0.22,0.05,0.31,0.17c0.09,0.11,0.13,0.21,0.13,0.3
			c0,0.14-0.31,0.58-0.94,1.32c-0.63,0.74-1.23,1.32-1.82,1.75c-0.59,0.43-1.08,0.64-1.49,0.64c-0.94,0-1.41-0.47-1.41-1.41
			c0-0.44,0.13-1.01,0.38-1.71l4.87-12.66c0.2-0.52,0.29-0.92,0.29-1.2c0-0.35-0.37-0.57-1.12-0.65c-0.14-0.02-0.21-0.13-0.21-0.33
			c0-0.21,0.07-0.32,0.21-0.32c0.57-0.11,1.25-0.3,2.06-0.6c0.8-0.29,1.41-0.56,1.82-0.81c0.21-0.12,0.36-0.19,0.45-0.19
			C1035.81,732.14,1035.89,732.24,1035.89,732.43z"/>
		<path d="M1046.22,739.97l-3.8,8.74c-0.27,0.6-0.4,1.04-0.4,1.31c0,0.21,0.09,0.32,0.27,0.32c0.26,0,0.84-0.54,1.73-1.61
			c0.41-0.49,0.64-0.73,0.69-0.73c0.11,0,0.21,0.05,0.29,0.15c0.09,0.1,0.13,0.2,0.13,0.3c0,0.12-0.32,0.55-0.97,1.28
			c-0.65,0.73-1.27,1.3-1.85,1.7c-0.58,0.41-1.07,0.61-1.47,0.61c-0.89,0-1.33-0.42-1.33-1.25c0-0.78,0.38-1.87,1.12-3.25
			c-0.65,1.21-1.52,2.26-2.6,3.15c-1.08,0.89-2.02,1.34-2.82,1.34c-0.45,0-0.81-0.17-1.07-0.52c-0.26-0.35-0.39-0.82-0.39-1.43
			c0-1.16,0.49-2.5,1.47-4c0.98-1.5,2.18-2.82,3.61-3.95c1.42-1.13,2.62-1.69,3.58-1.69c0.47,0,0.85,0.1,1.15,0.29l0.31-0.77
			c0.13-0.3,0.6-0.45,1.39-0.45c0.65,0,0.97,0.13,0.97,0.37L1046.22,739.97z M1042.91,742.08c0-0.53-0.19-0.8-0.58-0.8
			c-0.75,0-1.62,0.42-2.6,1.25c-0.98,0.84-1.83,1.87-2.57,3.1c-0.73,1.22-1.1,2.24-1.1,3.05c0,0.48,0.07,0.82,0.23,1.03
			c0.15,0.21,0.4,0.31,0.76,0.31c0.45,0,1.15-0.52,2.1-1.55c0.95-1.03,1.81-2.21,2.6-3.52
			C1042.52,743.63,1042.91,742.67,1042.91,742.08z"/>
		<path d="M1058.24,741.51c0,0.59-0.19,1.33-0.56,2.21l-2.11,5.01c-0.3,0.73-0.45,1.16-0.45,1.3c0,0.21,0.08,0.32,0.24,0.32
			c0.32,0,0.88-0.48,1.69-1.45c0.36-0.44,0.58-0.65,0.65-0.65c0.11,0,0.2,0.05,0.28,0.15c0.08,0.1,0.12,0.2,0.12,0.31
			c0,0.15-0.31,0.56-0.94,1.22c-0.62,0.66-1.23,1.18-1.83,1.56c-0.6,0.38-1.11,0.57-1.54,0.57c-0.38,0-0.69-0.09-0.91-0.26
			c-0.23-0.17-0.34-0.42-0.34-0.73c0-0.51,0.2-1.22,0.59-2.13l2.17-5.14c0.25-0.58,0.38-1.06,0.38-1.44c0-0.5-0.2-0.75-0.61-0.75
			c-0.5,0-1.23,0.64-2.2,1.93c-0.97,1.29-2.06,3.02-3.26,5.21l-0.89,2.53c-0.04,0.12-0.21,0.23-0.49,0.32
			c-0.28,0.09-0.56,0.13-0.84,0.13c-0.26,0-0.49-0.04-0.71-0.11c-0.21-0.08-0.32-0.17-0.32-0.27l0.01-0.07l2.78-8.2
			c0.23-0.61,0.35-1.05,0.35-1.31c0-0.21-0.08-0.32-0.24-0.32c-0.28,0-0.79,0.46-1.51,1.4c-0.37,0.49-0.6,0.73-0.68,0.73
			c-0.12,0-0.22-0.05-0.3-0.15c-0.08-0.1-0.13-0.2-0.13-0.3c0-0.12,0.29-0.52,0.88-1.2c0.59-0.68,1.16-1.21,1.7-1.6
			c0.55-0.39,1.02-0.58,1.42-0.58c0.91,0,1.36,0.4,1.36,1.2c0,0.49-0.14,1.12-0.4,1.89l-0.8,2.26c1.02-1.7,2.03-3.01,3.02-3.95
			s1.89-1.4,2.71-1.4c0.48,0,0.88,0.17,1.21,0.5C1058.08,740.57,1058.25,741,1058.24,741.51z"/>
		<path d="M1071.04,741.53c0,0.59-0.19,1.33-0.56,2.21l-2.11,5.01c-0.3,0.73-0.45,1.16-0.45,1.3c0,0.21,0.08,0.32,0.24,0.32
			c0.32,0,0.88-0.48,1.69-1.45c0.36-0.44,0.58-0.65,0.65-0.65c0.11,0,0.2,0.05,0.28,0.15c0.08,0.1,0.12,0.2,0.12,0.31
			c0,0.15-0.31,0.56-0.94,1.22c-0.62,0.66-1.23,1.18-1.83,1.56c-0.6,0.38-1.11,0.57-1.54,0.57c-0.38,0-0.69-0.09-0.91-0.26
			c-0.23-0.17-0.34-0.42-0.34-0.73c0-0.51,0.2-1.22,0.59-2.13l2.17-5.14c0.25-0.58,0.38-1.06,0.38-1.44c0-0.5-0.2-0.75-0.61-0.75
			c-0.5,0-1.23,0.64-2.2,1.93c-0.97,1.29-2.06,3.02-3.26,5.21l-0.89,2.53c-0.04,0.12-0.21,0.23-0.49,0.32
			c-0.28,0.09-0.56,0.13-0.84,0.13c-0.26,0-0.49-0.04-0.71-0.11c-0.21-0.08-0.32-0.17-0.32-0.27l0.01-0.07l2.78-8.2
			c0.23-0.61,0.35-1.05,0.35-1.31c0-0.21-0.08-0.32-0.24-0.32c-0.28,0-0.79,0.46-1.51,1.4c-0.37,0.49-0.6,0.73-0.68,0.73
			c-0.12,0-0.22-0.05-0.3-0.15c-0.08-0.1-0.13-0.2-0.13-0.3c0-0.12,0.29-0.52,0.88-1.2c0.59-0.68,1.16-1.21,1.7-1.6
			c0.55-0.39,1.02-0.58,1.42-0.58c0.91,0,1.36,0.4,1.36,1.2c0,0.49-0.14,1.12-0.4,1.89l-0.8,2.26c1.02-1.7,2.03-3.01,3.02-3.95
			s1.89-1.4,2.71-1.4c0.48,0,0.88,0.17,1.21,0.5C1070.87,740.59,1071.04,741.01,1071.04,741.53z"/>
		<path d="M1078.74,740.9c0,0.55-0.19,1.21-0.56,1.97l-2.91,5.89c-0.3,0.6-0.45,1.04-0.45,1.31c0,0.21,0.07,0.32,0.21,0.32
			c0.29,0,0.9-0.53,1.81-1.58c0.43-0.51,0.68-0.76,0.75-0.76c0.12,0,0.21,0.05,0.3,0.15c0.08,0.1,0.13,0.2,0.13,0.3
			c0,0.12-0.35,0.55-1.04,1.27c-0.69,0.72-1.34,1.29-1.95,1.7c-0.61,0.41-1.12,0.62-1.53,0.62c-0.85,0-1.28-0.39-1.28-1.17
			c0-0.45,0.2-1.1,0.59-1.94l2.91-5.86c0.3-0.6,0.45-1.06,0.45-1.36c0-0.18-0.08-0.27-0.24-0.27c-0.3,0-0.93,0.55-1.89,1.66
			c-0.39,0.45-0.61,0.68-0.67,0.68c-0.12,0-0.21-0.05-0.29-0.14s-0.11-0.2-0.11-0.31c0-0.13,0.34-0.56,1.02-1.28
			c0.68-0.72,1.33-1.28,1.94-1.7c0.61-0.41,1.13-0.62,1.55-0.62C1078.32,739.78,1078.74,740.15,1078.74,740.9z M1080.32,734.79
			c0,0.41-0.15,0.76-0.44,1.05c-0.29,0.29-0.64,0.44-1.05,0.44c-0.43,0-0.79-0.15-1.08-0.44c-0.29-0.29-0.44-0.65-0.44-1.05
			c0-0.42,0.15-0.78,0.44-1.07c0.29-0.3,0.65-0.45,1.08-0.45c0.41,0,0.76,0.15,1.05,0.45
			C1080.17,734.01,1080.32,734.37,1080.32,734.79z"/>
		<path d="M1091.45,741.56c0,0.59-0.19,1.33-0.56,2.21l-2.11,5.01c-0.3,0.73-0.45,1.16-0.45,1.3c0,0.21,0.08,0.32,0.24,0.32
			c0.32,0,0.88-0.48,1.69-1.45c0.36-0.44,0.58-0.65,0.65-0.65c0.11,0,0.2,0.05,0.28,0.15c0.08,0.1,0.12,0.2,0.12,0.31
			c0,0.15-0.31,0.56-0.94,1.22c-0.62,0.66-1.23,1.18-1.83,1.56c-0.6,0.38-1.11,0.57-1.54,0.57c-0.38,0-0.69-0.09-0.91-0.26
			c-0.23-0.17-0.34-0.42-0.34-0.73c0-0.51,0.2-1.22,0.59-2.13l2.17-5.14c0.25-0.58,0.38-1.06,0.38-1.44c0-0.5-0.2-0.75-0.61-0.75
			c-0.5,0-1.23,0.64-2.2,1.93c-0.97,1.29-2.06,3.02-3.26,5.21l-0.89,2.53c-0.04,0.12-0.21,0.23-0.49,0.32
			c-0.28,0.09-0.56,0.13-0.84,0.13c-0.26,0-0.49-0.04-0.71-0.11c-0.21-0.08-0.32-0.17-0.32-0.27l0.01-0.07l2.78-8.2
			c0.23-0.61,0.35-1.05,0.35-1.31c0-0.21-0.08-0.32-0.24-0.32c-0.28,0-0.79,0.46-1.51,1.4c-0.37,0.49-0.6,0.73-0.68,0.73
			c-0.12,0-0.22-0.05-0.3-0.15c-0.08-0.1-0.13-0.2-0.13-0.3c0-0.12,0.29-0.52,0.88-1.2c0.59-0.68,1.16-1.21,1.7-1.6
			c0.55-0.39,1.02-0.58,1.42-0.58c0.91,0,1.36,0.4,1.36,1.2c0,0.49-0.14,1.12-0.4,1.89l-0.8,2.26c1.02-1.7,2.03-3.01,3.02-3.95
			c0.99-0.94,1.89-1.4,2.71-1.4c0.48,0,0.88,0.17,1.21,0.5C1091.29,740.62,1091.45,741.04,1091.45,741.56z"/>
		<path d="M1103.82,742.53l-1.73-0.06c0.03,0.32,0.05,0.57,0.05,0.75c0,1.46-0.59,2.8-1.76,4.03c-1.17,1.23-2.51,1.85-4,1.85
			c-0.3,0-0.54,0.05-0.72,0.15c-0.18,0.1-0.27,0.23-0.27,0.38c0,0.15,0.13,0.3,0.39,0.45c0.26,0.15,0.84,0.38,1.76,0.7
			c1.8,0.61,3.02,1.18,3.65,1.7c0.63,0.52,0.94,1.11,0.94,1.77c0,0.77-0.3,1.54-0.88,2.29c-0.59,0.75-1.36,1.35-2.31,1.79
			c-0.96,0.44-1.98,0.66-3.07,0.65c-1.68,0-3.04-0.31-4.08-0.92c-1.04-0.61-1.56-1.39-1.56-2.34c0-0.63,0.39-1.29,1.16-1.98
			c0.77-0.69,1.77-1.28,2.97-1.77c-0.98-0.51-1.46-0.97-1.46-1.39c0-0.28,0.14-0.55,0.43-0.82c0.28-0.27,0.84-0.61,1.65-1.02
			c-1.03-0.6-1.54-1.6-1.54-3.01c0-1.49,0.57-2.85,1.72-4.09c1.14-1.23,2.46-1.85,3.94-1.85c1.14,0,1.98,0.46,2.53,1.36l2.62-0.08
			c0.12,0,0.17,0.11,0.17,0.33c0,0.27-0.07,0.52-0.19,0.75C1104.09,742.42,1103.96,742.53,1103.82,742.53z M1100.08,755.56
			c0-0.6-0.34-1.13-1.03-1.61c-0.69-0.48-1.94-0.98-3.76-1.52c-0.77,0.23-1.5,0.67-2.19,1.31c-0.69,0.64-1.03,1.27-1.04,1.88
			c0,1.67,1.28,2.51,3.83,2.51c1.12,0,2.1-0.24,2.93-0.74C1099.66,756.91,1100.07,756.3,1100.08,755.56z M1099.86,742.16
			c0-0.98-0.35-1.47-1.06-1.47c-0.47,0-0.96,0.3-1.47,0.89c-0.51,0.59-0.91,1.35-1.21,2.27c-0.3,0.92-0.44,1.9-0.44,2.94
			c0,0.44,0.09,0.79,0.29,1.06c0.19,0.27,0.45,0.41,0.78,0.41c0.83,0,1.56-0.6,2.19-1.8
			C1099.54,745.25,1099.85,743.82,1099.86,742.16z"/>
		<path d="M1121.1,740.08l-3.8,8.74c-0.27,0.6-0.4,1.04-0.4,1.31c0,0.21,0.09,0.32,0.27,0.32c0.26,0,0.84-0.54,1.73-1.61
			c0.41-0.49,0.64-0.73,0.69-0.73c0.11,0,0.2,0.05,0.29,0.15c0.09,0.1,0.13,0.2,0.13,0.3c0,0.12-0.32,0.55-0.97,1.28
			c-0.65,0.73-1.27,1.3-1.85,1.7c-0.58,0.41-1.07,0.61-1.47,0.61c-0.89,0-1.33-0.42-1.33-1.25c0-0.78,0.38-1.87,1.12-3.25
			c-0.65,1.21-1.52,2.26-2.6,3.15c-1.08,0.89-2.02,1.34-2.82,1.34c-0.45,0-0.81-0.17-1.07-0.52c-0.26-0.35-0.39-0.82-0.39-1.43
			c0-1.16,0.49-2.5,1.47-4c0.98-1.5,2.18-2.82,3.61-3.95c1.42-1.13,2.62-1.69,3.58-1.69c0.47,0,0.85,0.1,1.15,0.29l0.31-0.77
			c0.13-0.3,0.6-0.45,1.39-0.45c0.65,0,0.97,0.13,0.97,0.37L1121.1,740.08z M1117.79,742.18c0-0.53-0.19-0.8-0.58-0.8
			c-0.75,0-1.62,0.42-2.6,1.25c-0.98,0.84-1.83,1.87-2.57,3.1c-0.73,1.22-1.1,2.24-1.1,3.05c0,0.48,0.07,0.82,0.23,1.03
			c0.15,0.21,0.4,0.31,0.76,0.31c0.45,0,1.15-0.52,2.1-1.55c0.95-1.03,1.81-2.21,2.6-3.52
			C1117.39,743.73,1117.79,742.78,1117.79,742.18z"/>
		<path d="M1133.12,741.62c0,0.59-0.19,1.33-0.56,2.21l-2.11,5.01c-0.3,0.73-0.45,1.16-0.45,1.3c0,0.21,0.08,0.32,0.24,0.32
			c0.32,0,0.88-0.48,1.69-1.45c0.36-0.44,0.58-0.65,0.65-0.65c0.11,0,0.2,0.05,0.28,0.15c0.08,0.1,0.12,0.2,0.12,0.31
			c0,0.15-0.31,0.56-0.94,1.22c-0.62,0.66-1.23,1.18-1.83,1.56c-0.6,0.38-1.11,0.57-1.53,0.57c-0.38,0-0.69-0.09-0.91-0.26
			c-0.23-0.17-0.34-0.42-0.34-0.73c0-0.51,0.2-1.22,0.59-2.13l2.17-5.14c0.25-0.58,0.38-1.06,0.38-1.44c0-0.5-0.2-0.75-0.61-0.75
			c-0.5,0-1.23,0.64-2.2,1.93c-0.97,1.29-2.06,3.02-3.26,5.21l-0.89,2.53c-0.04,0.12-0.21,0.23-0.49,0.32
			c-0.28,0.09-0.56,0.13-0.84,0.13c-0.26,0-0.49-0.04-0.71-0.11c-0.21-0.08-0.32-0.17-0.32-0.27l0.01-0.07l2.78-8.2
			c0.23-0.61,0.35-1.05,0.35-1.31c0-0.21-0.08-0.32-0.24-0.32c-0.28,0-0.79,0.46-1.51,1.4c-0.37,0.49-0.6,0.73-0.68,0.73
			c-0.12,0-0.22-0.05-0.3-0.15c-0.08-0.1-0.13-0.2-0.13-0.3c0-0.12,0.29-0.52,0.88-1.2c0.59-0.68,1.16-1.21,1.7-1.6
			c0.55-0.39,1.02-0.58,1.42-0.58c0.91,0,1.36,0.4,1.36,1.2c0,0.49-0.14,1.12-0.4,1.89l-0.8,2.26c1.02-1.7,2.03-3.01,3.02-3.95
			c0.99-0.94,1.89-1.4,2.71-1.4c0.48,0,0.88,0.17,1.21,0.5C1132.96,740.68,1133.13,741.1,1133.12,741.62z"/>
		<path d="M1149.02,732.59c0,0.13-0.05,0.36-0.13,0.69l-5.47,15.01c-0.32,0.85-0.48,1.4-0.48,1.65c0,0.28,0.09,0.43,0.27,0.43
			c0.3,0,0.86-0.54,1.68-1.62c0.31-0.41,0.49-0.61,0.53-0.61c0.12,0,0.22,0.05,0.33,0.15c0.1,0.1,0.15,0.2,0.15,0.3
			c0,0.15-0.29,0.59-0.87,1.3c-0.58,0.72-1.15,1.28-1.7,1.68c-0.55,0.4-1.04,0.6-1.48,0.6c-0.96,0-1.44-0.5-1.44-1.49
			c0-0.64,0.25-1.53,0.75-2.66c-0.69,1.19-1.52,2.18-2.48,2.97c-0.96,0.79-1.81,1.18-2.57,1.18c-0.61,0-1.11-0.25-1.5-0.73
			c-0.39-0.49-0.58-1.13-0.58-1.93c0-1.26,0.44-2.64,1.32-4.14c0.88-1.5,1.98-2.79,3.3-3.87c1.32-1.08,2.47-1.62,3.45-1.62
			c0.31,0,0.64,0.07,0.99,0.22c0.35,0.14,0.61,0.32,0.77,0.53l1.5-4.22c0.2-0.52,0.29-0.92,0.29-1.2c0-0.35-0.38-0.57-1.14-0.65
			c-0.16-0.02-0.24-0.13-0.24-0.33c0-0.21,0.07-0.32,0.21-0.32c0.56-0.11,1.23-0.3,2.03-0.59c0.79-0.29,1.39-0.56,1.8-0.82
			c0.2-0.12,0.35-0.19,0.45-0.19C1148.93,732.3,1149.02,732.4,1149.02,732.59z M1143.37,742.03c0-0.87-0.42-1.31-1.28-1.31
			c-0.75,0-1.57,0.45-2.47,1.37c-0.9,0.91-1.66,2.03-2.27,3.36c-0.61,1.33-0.92,2.56-0.92,3.68c0,0.83,0.28,1.25,0.85,1.25
			c0.6,0,1.35-0.49,2.23-1.47c0.89-0.98,1.75-2.24,2.59-3.77C1142.95,743.62,1143.37,742.58,1143.37,742.03z"/>
		<path d="M1172.73,740.61c0,1.88-0.56,3.69-1.68,5.43c-1.12,1.75-2.6,3.13-4.45,4.16c-1.85,1.02-3.82,1.53-5.92,1.53
			c-0.39,0-1.12-0.02-2.2-0.06c-1.13-0.04-1.91-0.06-2.33-0.06c-0.66,0-2.19,0.05-4.58,0.15c-0.09,0-0.13-0.08-0.13-0.24
			c0-0.12,0.03-0.22,0.1-0.33c0.07-0.1,0.14-0.16,0.22-0.17c0.69-0.08,1.24-0.18,1.63-0.32c0.39-0.13,0.69-0.31,0.89-0.54
			c0.2-0.23,0.39-0.69,0.57-1.39l2.98-12.55c0.11-0.35,0.16-0.65,0.16-0.91c0-0.4-0.17-0.7-0.53-0.9c-0.35-0.2-0.97-0.35-1.84-0.46
			c-0.09,0-0.13-0.07-0.13-0.21c0-0.35,0.11-0.52,0.32-0.52c0.51,0.04,1.87,0.06,4.1,0.06c0.41,0,1.14-0.01,2.2-0.04
			c1.05-0.03,1.77-0.04,2.17-0.04c2.55,0,4.59,0.67,6.14,1.99C1171.96,736.53,1172.73,738.33,1172.73,740.61z M1169.85,740.28
			c0-2.09-0.46-3.64-1.39-4.65c-0.93-1.01-2.36-1.52-4.3-1.52l-0.16,0l-1.41,0.05c-1.06,0.03-1.7,0.55-1.92,1.54l-3.24,13.55
			c-0.05,0.2-0.08,0.39-0.08,0.55c0,0.65,0.42,0.97,1.28,0.97l2.05,0.08c1.66,0,3.17-0.48,4.54-1.45c1.36-0.97,2.48-2.32,3.34-4.07
			C1169.41,743.59,1169.85,741.91,1169.85,740.28z"/>
		<path d="M1182.05,741.93c0,1.22-0.61,2.31-1.82,3.28c-1.21,0.97-2.61,1.46-4.21,1.45c-0.05,0.53-0.08,1.01-0.08,1.44
			c0,0.78,0.11,1.34,0.32,1.68c0.22,0.34,0.58,0.51,1.09,0.51c1.14,0,2.15-0.65,3.03-1.95l0.08-0.04c0.07,0,0.15,0.05,0.23,0.14
			c0.08,0.09,0.12,0.18,0.12,0.26c0,0.19-0.27,0.63-0.81,1.33c-0.54,0.7-1.11,1.24-1.72,1.63c-0.6,0.39-1.18,0.58-1.75,0.58
			c-0.87,0-1.59-0.34-2.14-1.01c-0.56-0.67-0.84-1.47-0.84-2.38c0-1.28,0.34-2.61,1.01-4.01c0.67-1.39,1.53-2.56,2.58-3.5
			s2.01-1.41,2.9-1.41c0.64,0,1.14,0.18,1.49,0.54C1181.88,740.83,1182.05,741.31,1182.05,741.93z M1180.16,742.37
			c0-0.75-0.33-1.12-0.98-1.12c-0.64,0-1.24,0.43-1.8,1.3c-0.56,0.87-0.96,1.95-1.19,3.25c0.75,0,1.41-0.16,1.99-0.47
			c0.58-0.31,1.06-0.77,1.43-1.36C1179.97,743.39,1180.16,742.85,1180.16,742.37z"/>
		<path d="M1190.62,741.4c0,0.78-0.3,1.17-0.91,1.17c-0.27,0-0.67-0.24-1.22-0.72c-0.53-0.46-0.91-0.69-1.15-0.69
			c-0.22,0-0.4,0.08-0.53,0.23c-0.13,0.15-0.19,0.34-0.19,0.57c0,0.49,0.31,1.43,0.93,2.81c0.67,1.51,1.01,2.55,1.01,3.13
			c0,1.15-0.4,2.16-1.18,3.03c-0.79,0.87-1.79,1.31-3.01,1.31c-0.62,0-1.19-0.17-1.7-0.5c-0.52-0.33-0.77-0.68-0.77-1.05
			c0-0.35,0.1-0.62,0.3-0.82c0.2-0.2,0.47-0.3,0.82-0.3c0.28,0,0.6,0.23,0.94,0.68c0.29,0.37,0.55,0.62,0.77,0.74
			c0.22,0.12,0.46,0.18,0.74,0.18c0.36,0,0.63-0.16,0.84-0.47c0.2-0.32,0.31-0.75,0.31-1.31c0-0.4-0.25-1.11-0.74-2.13
			c-0.73-1.48-1.09-2.66-1.09-3.52c0-0.92,0.37-1.79,1.12-2.6c0.74-0.81,1.6-1.21,2.57-1.21c0.65,0,1.17,0.14,1.57,0.42
			C1190.42,740.63,1190.62,740.98,1190.62,741.4z"/>
		<path d="M1197.4,741.07c0,0.55-0.19,1.21-0.56,1.97l-2.91,5.89c-0.3,0.6-0.45,1.04-0.45,1.3c0,0.21,0.07,0.32,0.21,0.32
			c0.29,0,0.9-0.53,1.81-1.58c0.43-0.51,0.68-0.76,0.75-0.76c0.12,0,0.21,0.05,0.3,0.15c0.08,0.1,0.13,0.2,0.13,0.3
			c0,0.12-0.35,0.55-1.04,1.27s-1.34,1.29-1.95,1.7c-0.61,0.41-1.12,0.62-1.53,0.62c-0.85,0-1.28-0.39-1.28-1.17
			c0-0.45,0.2-1.1,0.59-1.94l2.91-5.86c0.3-0.6,0.45-1.06,0.46-1.36c0-0.18-0.08-0.27-0.24-0.27c-0.3,0-0.93,0.55-1.89,1.66
			c-0.39,0.45-0.61,0.68-0.67,0.68c-0.12,0-0.21-0.05-0.29-0.14c-0.08-0.09-0.11-0.2-0.11-0.31c0-0.13,0.34-0.56,1.02-1.28
			c0.68-0.72,1.33-1.28,1.94-1.7s1.13-0.62,1.55-0.62C1196.99,739.95,1197.4,740.32,1197.4,741.07z M1198.98,734.95
			c0,0.41-0.15,0.76-0.44,1.05c-0.29,0.29-0.64,0.44-1.05,0.44c-0.43,0-0.79-0.15-1.08-0.44c-0.29-0.29-0.44-0.65-0.44-1.05
			c0-0.42,0.15-0.78,0.44-1.07c0.29-0.3,0.65-0.45,1.08-0.45c0.41,0,0.76,0.15,1.05,0.45
			C1198.84,734.18,1198.98,734.53,1198.98,734.95z"/>
		<path d="M1209.7,742.68l-1.73-0.06c0.03,0.32,0.05,0.57,0.05,0.75c0,1.46-0.59,2.8-1.76,4.03c-1.17,1.23-2.51,1.85-4,1.85
			c-0.3,0-0.54,0.05-0.72,0.15s-0.27,0.23-0.27,0.38c0,0.15,0.13,0.3,0.39,0.45c0.26,0.15,0.84,0.38,1.76,0.7
			c1.8,0.61,3.02,1.18,3.65,1.7c0.63,0.52,0.94,1.11,0.94,1.77c0,0.77-0.3,1.54-0.88,2.29c-0.59,0.75-1.36,1.35-2.31,1.79
			c-0.96,0.44-1.98,0.66-3.07,0.65c-1.68,0-3.04-0.31-4.08-0.92c-1.04-0.61-1.56-1.39-1.56-2.34c0-0.63,0.39-1.29,1.16-1.98
			c0.77-0.69,1.77-1.28,2.97-1.77c-0.98-0.51-1.46-0.97-1.46-1.39c0-0.28,0.14-0.55,0.43-0.82c0.28-0.27,0.84-0.61,1.65-1.02
			c-1.03-0.6-1.54-1.6-1.54-3.01c0-1.49,0.57-2.85,1.72-4.09c1.14-1.23,2.46-1.85,3.94-1.85c1.14,0,1.98,0.46,2.53,1.36l2.62-0.08
			c0.12,0,0.17,0.11,0.17,0.33c0,0.27-0.07,0.52-0.19,0.75C1209.96,742.57,1209.83,742.68,1209.7,742.68z M1205.95,755.71
			c0-0.6-0.34-1.13-1.03-1.61c-0.69-0.48-1.94-0.98-3.76-1.52c-0.77,0.23-1.5,0.67-2.19,1.31c-0.69,0.64-1.03,1.27-1.04,1.88
			c0,1.67,1.28,2.51,3.83,2.51c1.12,0,2.1-0.24,2.93-0.74C1205.53,757.06,1205.95,756.45,1205.95,755.71z M1205.73,742.3
			c0-0.98-0.35-1.47-1.06-1.47c-0.47,0-0.96,0.3-1.47,0.89c-0.51,0.59-0.91,1.35-1.21,2.27c-0.3,0.92-0.44,1.9-0.44,2.94
			c0,0.44,0.09,0.79,0.29,1.06c0.19,0.27,0.45,0.41,0.78,0.41c0.83,0,1.56-0.6,2.19-1.8C1205.41,745.4,1205.73,743.97,1205.73,742.3
			z"/>
		<path d="M1221.17,741.74c0,0.59-0.19,1.33-0.56,2.21l-2.11,5.01c-0.3,0.73-0.45,1.16-0.46,1.31c0,0.21,0.08,0.32,0.24,0.32
			c0.32,0,0.88-0.48,1.69-1.45c0.36-0.43,0.58-0.65,0.65-0.65c0.11,0,0.2,0.05,0.28,0.15s0.12,0.2,0.12,0.31
			c0,0.15-0.31,0.56-0.94,1.22c-0.62,0.66-1.23,1.18-1.83,1.56c-0.6,0.38-1.11,0.57-1.54,0.57c-0.38,0-0.69-0.09-0.91-0.26
			c-0.23-0.17-0.34-0.42-0.34-0.73c0-0.51,0.2-1.22,0.59-2.13l2.17-5.14c0.25-0.58,0.38-1.06,0.38-1.44c0-0.5-0.2-0.75-0.61-0.75
			c-0.5,0-1.23,0.64-2.2,1.93c-0.97,1.29-2.06,3.02-3.26,5.21l-0.89,2.53c-0.04,0.12-0.21,0.23-0.49,0.32
			c-0.28,0.09-0.56,0.13-0.84,0.13c-0.26,0-0.49-0.04-0.71-0.11c-0.21-0.08-0.32-0.17-0.32-0.27l0.01-0.07l2.78-8.2
			c0.23-0.61,0.35-1.05,0.35-1.31c0-0.21-0.08-0.32-0.24-0.32c-0.28,0-0.79,0.46-1.51,1.4c-0.37,0.49-0.6,0.73-0.68,0.73
			c-0.12,0-0.22-0.05-0.3-0.15c-0.08-0.1-0.13-0.2-0.13-0.3c0-0.12,0.29-0.53,0.88-1.2c0.59-0.68,1.16-1.21,1.7-1.6
			c0.55-0.39,1.02-0.58,1.42-0.58c0.91,0,1.36,0.4,1.36,1.2c0,0.49-0.14,1.12-0.4,1.89l-0.8,2.26c1.02-1.7,2.03-3.01,3.02-3.95
			s1.89-1.4,2.71-1.4c0.48,0,0.88,0.17,1.21,0.5C1221.01,740.8,1221.17,741.22,1221.17,741.74z"/>
	</g>
	<path d="M946.53,859.19l-2.11-1.5l-1.4-1.94c-0.59-0.24-1-0.65-1.23-1.23c-0.58-1.35-1.29-2.62-2.1-3.83
		c-0.82-1.2-1.46-2.48-1.93-3.83c-0.41-0.94-0.7-1.82-0.88-2.64l-0.09-1.05c0.88,1.53,1.99,2.8,3.33,3.83
		c1.35,1.03,2.55,2.19,3.6,3.48c-0.17-6.39-0.39-12.77-0.68-19.16l-0.88,0.7c-1.11,0.64-2.37,0.96-3.78,0.96l-2.64-1.15
		c-0.88,2.93-2.1,5.71-3.66,8.34c-1.56,2.63-3.3,5.12-5.24,7.46l-1.14,0.61l-1.41,0.7c2.7-4.27,4.86-8.78,6.48-13.53
		c1.62-4.74,2.72-9.61,3.32-14.59l-0.17-1.58l0.18-1.32c0-1.35-0.44-2.51-1.31-3.47c-0.88-0.97-1.43-2.04-1.67-3.21l1.14,0
		l1.58,0.44l1.05,0.97l1.32,1.14c0.58,1.11,1.14,2.26,1.67,3.43l1.32-0.09l1.93,0l1.05,0.7c0.23-0.82,0.32-1.67,0.27-2.55
		c-0.23-1.41-0.35-2.89-0.35-4.44c0-1.55-0.17-3.06-0.52-4.53c-1.64-0.06-3.13-0.47-4.48-1.24c1.17-0.88,2.55-1.26,4.13-1.14
		c1.58,0.24,3.02,0.94,4.3,2.12l0.61,1.85c-0.76,1.58-1.06,3.22-0.89,4.92c0.23,3.16,0.44,6.33,0.65,9.49
		c0.2,3.16,0.39,6.33,0.56,9.49l-0.18,0.97c0.17,1.11,0.32,2.24,0.43,3.38c0.12,1.14,0.23,2.3,0.35,3.47
		c2.76-2.69,5.21-5.54,7.35-8.56c2.14-3.01,4.15-6.07,6.03-9.18l-1.14,0l-2.02,0.17l0.88-0.17l-2.72-0.36
		c1.11-0.23,2.18-0.48,3.21-0.74c1.02-0.26,2.01-0.6,2.95-1.01l2.03-5.45c-0.76-0.35-1.64-0.59-2.64-0.71l3.34-1.05l0.35-1.58
		c-1.23-0.88-2.37-1.91-3.42-3.08c-0.23-0.64-0.56-1.29-0.96-1.93l2.02-0.09c0.82,0.47,1.43,0.97,1.84,1.5l1.05,1.14
		c0.24-1.41,0.49-2.78,0.75-4.13c0.27-1.35,0.37-2.78,0.31-4.31c-0.23-1.06-0.79-1.96-1.67-2.73l0.97-0.17l1.93,1.15
		c0.82,0.76,1.33,1.67,1.53,2.73c0.2,1.05,0.27,2.17,0.22,3.34c-0.18,1.05-0.34,2.1-0.49,3.12c-0.15,1.03-0.34,2.06-0.58,3.12
		c2.05-2.22,3.68-4.67,4.89-7.33c1.2-2.66,2.04-5.43,2.52-8.3c-0.64-0.88-1.29-1.73-1.93-2.55l1.76-0.61
		c1.46,0.65,2.87,1.44,4.22,2.38l1.32,1.5l-0.27,1.49l-0.7,0.88c-0.59,1.7-1.47,3.22-2.64,4.57l-0.7,0.7
		c-0.47,0.82-1.06,1.58-1.76,2.28l-0.88,1.05l-1.67,1.58c0.94,0.24,1.81,0.59,2.64,1.06l0,1.32c-0.94,0.59-1.86,1.16-2.77,1.71
		c-0.91,0.56-1.89,1.04-2.95,1.45c1.05,0.47,2.05,0.94,2.99,1.41l4.49-2.98c0.64-0.41,1.36-0.61,2.15-0.61
		c0.79,0,1.71,0.21,2.77,0.62c-0.41,1.41-1,2.31-1.76,2.72c-1.29,0.82-2.61,1.46-3.96,1.93c3.51,2.64,7.13,4.92,10.84,6.83
		c3.72,1.91,7.33,4.07,10.85,6.48c0.35,0.53,0.58,1.09,0.7,1.67l-1.06,1.14c-0.76,0-1.55,0.03-2.37,0.08
		c-3.63-0.82-6.9-2.13-9.79-3.92c-2.9-1.79-5.58-3.92-8.03-6.38l-4.13-4.05c-1.29,0.58-2.67,1.01-4.13,1.27
		c-1.47,0.26-2.87,0.66-4.22,1.18c-0.53,1-1.15,1.96-1.85,2.9c-0.7,0.94-1.32,1.93-1.85,2.99c-1.7,2.46-3.49,4.86-5.37,7.2
		c1.29,0.12,2.43,0.56,3.43,1.32c0.7,0.76,1.14,1.67,1.31,2.73c-1.17-0.47-2.28-0.79-3.34-0.97c-0.82-0.76-1.73-1.41-2.72-1.94
		c-0.94,1.05-1.95,2.06-3.04,3.03c-1.09,0.97-2.21,1.83-3.39,2.59l-0.62,0.97c0.17,2.64,0.37,5.27,0.6,7.91
		c0.23,2.64,0.46,5.27,0.69,7.91L946.53,859.19z M956.18,804.97c0.88-1.52,1.5-3.15,1.85-4.88c0.35-1.73,0.56-3.47,0.62-5.23
		l-1.05-0.09c-1.41,0.29-2.86,0.55-4.35,0.78c-1.49,0.23-2.98,0.41-4.44,0.52l-1.32-0.18c0.11,2.52,0.14,5.04,0.08,7.56l-1.06,0.26
		l-0.7-0.79l-1.05-0.88c-0.17-1.05-0.3-2.14-0.39-3.25c-0.09-1.11-0.28-2.2-0.57-3.25l-1.23-0.18c-1.82,0-3.34-0.31-4.57-0.93
		s-2.49-1.07-3.78-1.37l0.88-0.61c2.64,0.24,5.24-0.08,7.82-0.96l0.18-0.88c-0.17-1.58-0.55-3.08-1.14-4.48l0.97,0l1.93,0.71
		c0.53,1.11,0.85,2.35,0.96,3.69c2.7-0.64,5.13-1.37,7.3-2.19c2.17-0.82,4.25-1.84,6.24-3.07l0.27-2.11l-0.44-2.64
		c-0.64-0.64-1.38-1.03-2.2-1.15l0-1.05l1.32-0.09l1.58,0c1.35,0.47,2.6,1.23,3.78,2.29c0.35,0.7,0.58,1.49,0.7,2.37
		c1.46-0.17,2.69-0.41,3.69-0.7c1.23,0.12,2.28,0.56,3.16,1.32l0.88,2.02l0.53,1.14l-0.35,1.58l-1.23,0.97
		c-1.35,1.05-2.77,1.92-4.27,2.59c-1.5,0.67-3.03,1.3-4.62,1.88c-0.3,1.11-0.56,2.2-0.8,3.25c-0.24,1.05-0.47,2.17-0.71,3.34
		l-0.79,0.44l-0.88,1.93l-0.97,0.44L956.18,804.97z M939.1,828.86l2.11-0.52l1.58,0.53c0.23-0.76,0.32-1.58,0.27-2.46l-0.52-6.33
		c-1.41,0.35-2.73,0.7-3.96,1.05c-0.3,1.52-0.61,3-0.93,4.44c-0.32,1.44-0.69,2.86-1.1,4.26L939.1,828.86z M967.44,860.89l-0.88-0.7
		c-0.76-1.35-1.68-2.48-2.76-3.39c-1.08-0.91-2.03-1.92-2.85-3.04c-0.35-1.06-0.73-2.11-1.14-3.17l-1.06,0.61
		c-0.59,0.59-1.2,1.11-1.85,1.58l-1.41,0.35l-1.23-0.53l-2.37-2.38l-0.17-1.93l0.88,0.62l1.49,0.35l1.41-0.79
		c1.58-1.23,3.08-2.44,4.49-3.64c1.41-1.2,2.84-2.29,4.31-3.29c0.65-0.82,1.41-1.52,2.29-2.11l0.09-2.02l-0.17-5.27
		c0-1.29-0.06-2.43-0.17-3.43c-0.12-1-0.35-1.96-0.7-2.9l-1.32-1.23l1.58,0c1.11,0.35,2.11,0.91,2.99,1.67
		c0.75,7.85,0.89,15.76,0.41,23.73c-0.24,1.76-0.39,3.57-0.45,5.45l0.09,1.05L967.44,860.89z M965.87,853.5
		c0.24-1.29,0.44-2.61,0.62-3.95c-0.17-2.93-0.14-5.86,0.1-8.79c-0.7,1.11-1.42,2.2-2.16,3.25c-0.73,1.05-1.48,2.05-2.25,2.99
		l-0.62,1.58l3.86,4.84L965.87,853.5z M966.54,818.17c1.41-0.58,2.78-1.26,4.13-2.02c-0.64-1-1.43-1.61-2.37-1.85l-0.97,0.35
		l-1.32,3.6L966.54,818.17z M970.99,837.16c1.23-0.99,2.23-2.14,2.99-3.42l2.03-4.48l-1.05-0.79c0.64-0.47,1.5-0.64,2.55-0.52
		c1.05,0.12,2.23,0.71,3.51,1.76l0.26,0.88c-1.12,1.64-2.44,2.96-3.96,3.95c-0.76,0.59-1.58,0.99-2.46,1.23
		c-0.88,0.41-1.85,0.64-2.9,0.7L970.99,837.16z M990.4,849.67l-1.32-0.09c-1.88-0.47-3.66-1.26-5.36-2.38
		c-1.7-1.11-3.37-2.41-5-3.87l-3.07-2.99c2.28,0.18,4.47,0.43,6.55,0.76c2.08,0.33,3.94,1.05,5.58,2.16
		c1.93,0.94,3.34,2.44,4.21,4.49l-0.35,0.88L990.4,849.67z"/>
	<path d="M1021.52,845.32c-1-0.12-1.96-0.5-2.9-1.15c-0.94-0.65-1.81-1.29-2.63-1.94l-0.97-0.79l-0.88-0.97
		c-0.29-1.76-0.41-3.38-0.34-4.88c0.06-1.49-0.08-2.86-0.43-4.09c0.53-3.92,1.26-7.82,2.17-11.69s2.43-7.56,4.54-11.07l1.49,1.06
		l2.02,2.02c0.29,2.52,0.29,5.07-0.01,7.65c-0.12,1.7-0.37,3.34-0.76,4.92c-0.38,1.58-0.61,3.22-0.67,4.92
		c0.05,1.52-0.04,2.81-0.27,3.87l0.17,1.05l-0.18,3.08c0.35,1.76,0.58,3.58,0.7,5.45l-0.09,1.14l-0.09,0.88L1021.52,845.32z
		 M1067.9,862.17l-0.88-0.35l-2.11-1.76c-0.65-0.88-1.26-1.8-1.84-2.77c-0.58-0.97-1.4-1.75-2.46-2.33
		c-1.17-0.35-2.28-0.91-3.34-1.67l-1.14-1.41c-1-0.47-1.93-1.06-2.81-1.76c-0.35-1.06-1.05-1.79-2.11-2.2
		c-0.7-1.52-1.46-3.05-2.28-4.57l0.53-0.79c2.46,2.06,5.11,3.68,7.95,4.89c2.84,1.21,5.81,1.96,8.92,2.25
		c0.47-1.17,0.81-2.42,1.02-3.73s0.37-2.65,0.49-4c0.19-6.86,0.14-13.71-0.15-20.57c-0.23-5.1-0.5-10.21-0.81-15.34
		c-0.32-5.13-1.38-10.04-3.19-14.73c-1.11-0.82-2.37-1.23-3.78-1.24c-1.88,0.35-3.56,1.02-5.06,2.01c-1.5,0.99-2.98,2.08-4.44,3.25
		l1.67,1.23c0.76,0.88,1.08,1.76,0.96,2.64c-0.35,1.05-0.74,2.11-1.15,3.16c-0.41,1.05-0.91,2.08-1.5,3.07
		c0.82,0.24,1.64,0.47,2.46,0.71l0.88,1.14l-0.7,0.61l-0.7,1.32c-0.76,0.7-1.58,1.32-2.46,1.84l-1.67,1.4
		c-1.11,0.58-2.17,1.37-3.17,2.37c0.76,1.35,1.21,2.68,1.36,4c0.14,1.32,0.19,2.71,0.13,4.17c-0.35,1.05-0.79,2.08-1.32,3.07
		c1.41-0.53,2.76-1.12,4.05-1.8c1.29-0.67,2.49-1.59,3.61-2.76l0.79-1.41c-0.94-1.58-1.96-3.17-3.07-4.75
		c1.81,0.06,3.35,0.52,4.61,1.37c1.26,0.85,2.5,1.78,3.73,2.77c0.93,1.35,1.75,2.79,2.45,4.31c0.7,1.53,1.14,3.17,1.31,4.92
		c0,0.88-0.12,1.73-0.36,2.55l0.08,2.37l-0.88,0.44l-0.97,1.14c-1.05-0.18-1.84-0.56-2.37-1.15c-0.82-0.94-1.45-1.95-1.89-3.03
		c-0.44-1.08-0.8-2.18-1.09-3.3c-2.58,1.11-5.12,2.16-7.61,3.15c-2.49,0.99-5.03,1.81-7.6,2.45l-3.69,0.26
		c-1.64-0.18-2.9-0.65-3.78-1.41c-0.29-1.06-0.7-2.11-1.23-3.17c0.41-0.99,0.84-2.02,1.28-3.07c0.44-1.05,0.98-2.05,1.63-2.99
		c0.93,0.88,1.52,1.88,1.75,2.99c-0.7,0.94-0.97,2.08-0.8,3.43l0.97,0.35c1.41-0.23,2.67-0.61,3.78-1.14
		c0.71-1.7,1.42-3.26,2.16-4.7c0.73-1.43,1.02-3.06,0.84-4.88l-0.61-1.85c-1.35,0.53-2.61,1.01-3.78,1.44
		c-1.17,0.44-2.46,0.69-3.87,0.74c-1.88,0.29-3.49-0.15-4.83-1.33c1.35-0.58,2.71-1.06,4.09-1.44c1.38-0.38,2.71-0.92,4-1.62
		c-0.64-1.06-1.26-2.02-1.84-2.9c-0.58-0.88-1.29-1.61-2.11-2.2l-0.97-0.35l0.27-1.14l0.88-0.26c1.23,0.18,2.44,0.44,3.65,0.8
		c1.2,0.35,2.24,1.06,3.12,2.11l0.79,0.79c1.11-2.22,2.23-4.44,3.35-6.63c1.11-2.2,2.06-4.44,2.82-6.72
		c-1.47,0.64-2.67,1.33-3.61,2.06c-0.94,0.73-1.91,1.54-2.9,2.41c-1.58,0.53-3.25,0.85-5.01,0.96c-0.7-0.12-1.38-0.44-2.02-0.97
		l3.87-4.83c2.52-2.4,5.05-4.86,7.57-7.37c2.52-2.52,5.34-4.53,8.45-6.05c1-0.29,1.99-0.6,2.99-0.92c1-0.32,2.08-0.48,3.25-0.48
		c1.52,0.24,2.99,0.65,4.39,1.24c1.41,0.59,2.66,1.53,3.78,2.82c4.33,7.74,6.96,16.04,7.92,24.88c0.95,8.85,1.87,17.64,2.73,26.37
		l-0.01,6.24c0,2.93-0.29,5.67-0.85,8.22c-0.56,2.55-1.81,4.82-3.74,6.81c-0.94,0.58-1.99,0.93-3.17,1.05l-1.67,0.26
		C1069.66,861.85,1069.01,862.17,1067.9,862.17z"/>
	<path d="M1158.05,857.03c-5.86-1.12-11.42-3.15-16.69-6.09c-5.27-2.94-10.72-5.35-16.34-7.23c-1.7,0.64-3.39,1.42-5.06,2.32
		c-1.67,0.91-3.53,1.36-5.58,1.35c-1.23,0-2.23-0.59-2.99-1.76l-0.35-0.88c1.64,0,3.18-0.23,4.62-0.7c1.44-0.47,2.86-1.05,4.27-1.75
		c1.17-1.52,1.85-3.31,2.03-5.36c-0.06-1.41-0.49-2.7-1.31-3.87l-2.46-2.2c-1.46-1.47-2.56-3.12-3.29-4.97
		c-0.73-1.85-1.18-3.79-1.35-5.85c-0.06-1.46,0.24-2.81,0.88-4.04c0.65-1.23,1.38-2.43,2.2-3.6c1.41,0.76,2.46,1.67,3.16,2.73
		c0.58,0.88,0.79,1.93,0.61,3.16c-0.24,1.17-0.68,2.28-1.32,3.34c0.7,2.81,2.09,5.25,4.16,7.3c2.08,2.05,3.47,4.46,4.16,7.21
		c-0.18,1.82-0.59,3.22-1.24,4.22l-0.62,0.88c4.57,0.59,9.14,1.11,13.71,1.56c4.57,0.45,9.08,0.99,13.53,1.65
		c4.1-0.64,8.03-1.94,11.78-3.89c3.75-1.96,7.15-4.43,10.21-7.41c0.88-0.88,1.53-1.84,1.94-2.9l2.11,0.62l-0.62,2.2
		c-0.77,3.28-1.77,6.37-3,9.27c-1.23,2.9-2.73,5.67-4.49,8.3l-1.5,1.49c-1.23,0.93-2.48,1.84-3.74,2.72c-1.26,0.88-2.59,1.58-4,2.1
		l-1.23,0.09L1158.05,857.03z M1121.12,807.76l-1.14-0.53c-0.93-2.34-1.84-4.72-2.71-7.12c-0.88-2.4-1.69-4.78-2.45-7.12
		c1.29,0.3,2.39,0.78,3.29,1.45c0.91,0.68,1.8,1.36,2.68,2.07c0.82,1,1.58,1.99,2.28,2.99c0.7,1,1.37,1.99,2.02,2.99l0.52,2.55
		l-0.62,1.32C1123.82,807.06,1122.53,807.52,1121.12,807.76z M1139.91,819.21l-2.99-0.27c-2.11-0.24-3.98-0.77-5.62-1.59
		c2.87-0.41,5.7-0.91,8.48-1.53c2.78-0.61,5.52-1.5,8.22-2.67c0.7-1.35,1.26-2.78,1.68-4.3c0.41-1.52,0.74-3.1,0.97-4.74l-0.97-0.18
		c-1.06,0.58-2.17,1.04-3.34,1.36c-1.17,0.32-2.32,0.77-3.43,1.36l-1.06,2.11c-1,0.23-1.99,0.55-2.99,0.96l-0.53,1.14
		c-1.53,1.11-3.22,1.64-5.1,1.57c1.59-2.87,2.75-5.84,3.48-8.92c0.74-3.08,1.34-6.16,1.81-9.27c-0.47-1.17-0.99-2.34-1.58-3.52
		c1.7,0.41,3.22,1,4.57,1.76c1.11,0.76,2.14,1.76,3.07,2.99c1.11,1.29,1.78,2.61,2.02,3.96c1.88-0.99,3.43-2.28,4.66-3.86
		c-0.17-1.52-0.32-2.84-0.43-3.96c-0.12-1.11-0.41-2.17-0.87-3.17l-1.32-0.88l-1.67-2.11l1.67-0.35c1.7,0.65,3.28,1.65,4.74,2.99
		l0.88,0.7c0.06,0.65,0.32,1.26,0.79,1.85c1-0.41,1.9-0.58,2.73-0.52c1.64,0.12,3.02,0.8,4.13,2.03l0.26,1.49l-0.35,0.88l-0.53,0.79
		c-0.41,1-0.94,1.9-1.59,2.72l-3.43,2.02c-0.24,1.93-0.64,3.81-1.19,5.62c-0.56,1.82-1.25,3.57-2.07,5.27
		c2.17-0.82,4.19-1.74,6.07-2.76c1.88-1.02,3.72-2.18,5.54-3.46l2.37,0.71l0.53,1.49l0,1.58c-0.35,0.94-0.82,1.84-1.41,2.72
		c-3.7,3.1-7.82,5.22-12.36,6.35C1149.22,818.74,1144.6,819.27,1139.91,819.21z M1148.76,838.91c-1.35-0.06-2.49-0.62-3.43-1.67
		c-1.46-1.58-2.6-3.3-3.42-5.15c-0.82-1.85-1.78-3.62-2.89-5.32c1.11,0.12,2.12,0.63,3.03,1.54c0.91,0.91,1.8,1.86,2.68,2.86
		c0.35,0.76,0.85,1.47,1.49,2.11c0.82,0.65,1.76,1,2.81,1.06l2.2-1.23c1.64-1.11,3.17-2.4,4.58-3.86c0.65-0.82,1.23-1.68,1.76-2.59
		c0.53-0.91,0.82-1.89,0.88-2.94c-1.93,0.47-3.53,1.15-4.79,2.06c-1.26,0.91-2.63,1.59-4.09,2.06c-0.41,0.53-1.03,0.7-1.85,0.52
		l-1.23-0.18c1.29-1.29,2.45-2.44,3.48-3.47c1.03-1.02,2.16-1.92,3.39-2.68c1.47-1.11,3.17-1.61,5.1-1.49l2.46,1.06l0.79,1.06
		l0.7,1.06c0.76,1.11,1.2,2.4,1.31,3.87c-0.41,1.23-0.96,2.39-1.63,3.47c-0.68,1.08-1.34,2.15-1.98,3.21l-1.14,0.88
		c-1.47,1.23-3.04,2.15-4.71,2.76C1152.59,838.52,1150.75,838.85,1148.76,838.91z"/>
	<path d="M1224.58,854.75l-1.14-1.41c-1.23-1.29-2.28-2.49-3.16-3.61l-1.67-1.94c-0.41-0.7-0.73-1.44-0.96-2.2
		c1.52,1,2.99,2,4.39,2.99c0.01-10.6,0-21.21-0.04-31.82c-1.47,1.87-3.17,3.54-5.1,5c-0.41,1.99-1.07,3.9-1.99,5.71
		c-0.91,1.82-1.78,3.63-2.6,5.45l-0.62,1.23l-1.41,2.02c-1.29,1.05-2.73,1.7-4.31,1.93l1.59-2.9c0.47-0.88,0.85-1.84,1.15-2.9
		l0.53-0.79c0.88-1.64,1.47-3.31,1.76-5.01c-1.35,0.53-2.64,0.91-3.87,1.14c-1.23,0.23-2.52,0.35-3.87,0.35
		c-1.11-0.23-2.18-0.53-3.21-0.88c-1.02-0.35-1.95-0.97-2.77-1.85l-0.7-1.32c1.76,0.47,3.51,0.71,5.27,0.71
		c2.11-0.82,4.1-1.91,5.98-3.29c1.88-1.37,3.72-2.82,5.54-4.34l0.18-0.97c-0.35-1.11-0.88-2.11-1.58-2.99l-1.93-1.58l1.05-0.09
		c1.64,0.3,3.04,1,4.22,2.12l0.44,0.88c2.29-1.34,4.31-3.01,6.07-5l0.27-1.23c0-1.58-0.32-3.02-0.96-4.31l-2.46-0.79
		c-1.47,0.7-2.99,1.26-4.57,1.66l2.03-3.25c-0.76-0.18-1.46-0.53-2.11-1.06l-2.63-2.55l-0.7-1.93c1.52-0.11,2.95-0.52,4.26-1.22
		s2.51-1.64,3.56-2.81l1.14-1.32l1.32-1.58c0.76-0.88,1.76-1.26,2.99-1.14l1.49,1.41l1.67,0.71c1.35,1.47,2.13,2.99,2.37,4.57
		c-0.06,0.65-0.32,1.2-0.79,1.67l-0.97,0.97l-0.62,1.41c-1.29,1.52-2.64,2.93-4.05,4.21c0.58,0.65,1.05,1.44,1.4,2.38l0.26,0.97
		l0.7-0.7c0.41-0.58,0.97-0.88,1.67-0.88c1.17,0.18,2.31,0.41,3.43,0.71l0.88,0.88c-0.88,1.29-1.79,2.47-2.73,3.56
		c-0.94,1.08-1.97,2.06-3.08,2.94c-0.65,6.21-0.87,12.42-0.64,18.63c0.11,2.05,0.23,3.9,0.34,5.54c0.05,4.75,0.13,9.49,0.24,14.24
		C1225.43,852.58,1225.11,853.81,1224.58,854.75z M1234.6,856.52c0.88-0.64,1.79-1.2,2.73-1.67l3.96-3.33
		c1.17-1.29,2.2-2.44,3.08-3.47c0.88-1.02,1.76-2,2.64-2.94c2.47-3.28,4.61-6.73,6.43-10.36c1.82-3.63,3.32-7.38,4.5-11.24
		l-2.11-2.73l3.43,0.53l1.32-0.17c1,0.59,1.99,1.15,2.99,1.67c0.47,0.59,0.82,1.2,1.05,1.85l1.32,1.06
		c0.41,0.82,0.73,1.61,0.96,2.37c-0.53,1.05-1.07,2.09-1.63,3.12c-0.56,1.03-1.16,2.03-1.81,3.03c-0.88,1.76-1.85,3.25-2.91,4.48
		l-1.06,1.14c-0.29,0.7-0.71,1.38-1.23,2.02c-2.41,2.81-5.02,5.33-7.83,7.55l1.32-1.49l-3.61,2.54l-0.97,0.44
		c-0.47,0.41-1.03,0.64-1.67,0.7l-0.7,0.61c-1.76,0.76-3.43,1.61-5.01,2.54C1238.2,855.7,1236.47,856.29,1234.6,856.52z
		 M1239.77,803.53c1.88-1.93,3.78-3.91,5.72-5.92c1.94-2.02,3.84-4.02,5.72-6.01l-0.79-2.37l0.88-0.35l2.29-0.96
		c0.64,0,1.73,0.71,3.25,2.11l1.41,0.35c1.52,1.29,2.4,2.85,2.63,4.66c-3.29,1.99-6.67,3.77-10.16,5.35
		C1247.23,801.96,1243.58,803.01,1239.77,803.53z M1240.36,820.4c1.35-0.82,2.58-1.78,3.7-2.9c1.11-1.11,2.26-2.25,3.43-3.42
		c2.41-2.34,4.63-4.83,6.69-7.46l-0.35-1.49c1.05-0.12,1.88,0,2.46,0.35l2.46,1.59l0.79,2.37c-0.53,1.11-1.29,2.2-2.29,3.25
		l-2.64,2.11l-3.17,1.93c-1.76,0.76-3.31,1.43-4.66,2.01c-1.29,0.47-2.45,0.79-3.47,0.96
		C1242.28,819.88,1241.3,820.11,1240.36,820.4z"/>
</g>
</svg>
