<?xml version="1.0" encoding="utf-8"?>
<!-- Generator: Adobe Illustrator 23.1.1, SVG Export Plug-In . SVG Version: 6.00 Build 0)  -->
<svg version="1.1" id="レイヤー_1" xmlns="http://www.w3.org/2000/svg" xmlns:xlink="http://www.w3.org/1999/xlink" x="0px"
	 y="0px" viewBox="0 0 37.08 13" style="enable-background:new 0 0 37.08 13;" xml:space="preserve">
<g>
	<path d="M4.52,2.13H1.37v2.17h3.04v1.28H1.37V9.9H0V0.85h4.52V2.13z"/>
	<path d="M7.17,4.19v3.28c0,0.95,0.37,1.42,1.12,1.42S9.4,8.41,9.4,7.46V4.19h1.32v3.3c0,0.46-0.06,0.85-0.17,1.18
		c-0.11,0.3-0.3,0.56-0.57,0.8c-0.45,0.39-1.01,0.58-1.7,0.58c-0.68,0-1.25-0.19-1.69-0.58c-0.27-0.24-0.47-0.51-0.58-0.8
		C5.9,8.41,5.85,8.02,5.85,7.49v-3.3H7.17z"/>
	<path d="M12.19,1.82c0-0.23,0.08-0.43,0.25-0.6s0.37-0.25,0.6-0.25c0.24,0,0.44,0.08,0.61,0.25c0.17,0.16,0.25,0.37,0.25,0.6
		s-0.08,0.44-0.25,0.61c-0.16,0.17-0.37,0.25-0.6,0.25s-0.44-0.08-0.61-0.25S12.19,2.06,12.19,1.82z M13.71,4.19V13h-1.32V4.19
		H13.71z"/>
	<path d="M15.18,1.82c0-0.23,0.08-0.43,0.25-0.6s0.37-0.25,0.6-0.25c0.24,0,0.44,0.08,0.61,0.25c0.17,0.16,0.25,0.37,0.25,0.6
		s-0.08,0.44-0.25,0.61c-0.16,0.17-0.37,0.25-0.6,0.25S15.6,2.6,15.43,2.43S15.18,2.06,15.18,1.82z M16.69,4.19V9.9h-1.32V4.19
		H16.69z"/>
	<path d="M18.09,7c0-0.82,0.29-1.53,0.88-2.1s1.31-0.87,2.16-0.87c0.85,0,1.57,0.29,2.17,0.87c0.59,0.58,0.88,1.3,0.88,2.14
		c0,0.86-0.29,1.57-0.88,2.15c-0.59,0.57-1.32,0.86-2.19,0.86c-0.86,0-1.57-0.29-2.15-0.88C18.38,8.6,18.09,7.88,18.09,7z
		 M19.44,7.03c0,0.57,0.15,1.02,0.46,1.35c0.31,0.34,0.72,0.5,1.24,0.5c0.52,0,0.93-0.17,1.24-0.5s0.46-0.78,0.46-1.33
		s-0.15-1-0.46-1.33c-0.31-0.34-0.72-0.5-1.24-0.5c-0.5,0-0.91,0.17-1.22,0.5S19.44,6.49,19.44,7.03z"/>
	<path d="M26.89,0v6.04l1.86-1.85h1.77l-2.48,2.4L30.7,9.9h-1.71l-1.89-2.41L26.89,7.7v2.2h-1.32V0H26.89z"/>
	<path d="M35.76,4.19h1.32V9.9h-1.32V9.3c-0.54,0.51-1.13,0.76-1.75,0.76c-0.79,0-1.44-0.29-1.96-0.86
		c-0.51-0.58-0.77-1.31-0.77-2.18c0-0.86,0.26-1.57,0.77-2.14s1.15-0.86,1.92-0.86c0.66,0,1.26,0.27,1.79,0.82V4.19z M32.63,7.03
		c0,0.55,0.15,0.99,0.44,1.34c0.3,0.35,0.68,0.52,1.14,0.52c0.49,0,0.88-0.17,1.18-0.5c0.3-0.35,0.45-0.79,0.45-1.32
		s-0.15-0.98-0.45-1.32c-0.3-0.34-0.69-0.51-1.17-0.51c-0.45,0-0.83,0.17-1.14,0.52C32.78,6.08,32.63,6.51,32.63,7.03z"/>
</g>
</svg>
