<?xml version="1.0" encoding="utf-8"?>
<!-- Generator: Adobe Illustrator 23.1.1, SVG Export Plug-In . SVG Version: 6.00 Build 0)  -->
<svg version="1.1" id="レイヤー_1" xmlns="http://www.w3.org/2000/svg" xmlns:xlink="http://www.w3.org/1999/xlink" x="0px"
	 y="0px" viewBox="0 0 303.59 96.66" style="enable-background:new 0 0 303.59 96.66;" xml:space="preserve">
<path d="M53.33,18.1c0,0.64-0.56,0.96-1.68,0.96c-0.55,0-0.88-0.22-1.01-0.67c-1.12-3.72-3.05-6.55-5.78-8.47
	c-2.73-1.93-6.06-2.89-10.01-2.89h-8.66c-3.79,0-5.68,1.93-5.68,5.78v21.42h10.98c3.21,0,5.38-0.74,6.52-2.21
	c1.14-1.48,1.95-4.09,2.43-7.85c0-0.51,0.43-0.77,1.3-0.77c0.9,0,1.35,0.26,1.35,0.77c0,1.6-0.1,3.63-0.29,6.06
	c-0.19,2.34-0.29,4.25-0.29,5.73c0,1.51,0.1,3.43,0.29,5.78c0.19,2.5,0.29,4.56,0.29,6.16c0,0.51-0.45,0.77-1.35,0.77
	c-0.87,0-1.3-0.26-1.3-0.77c-0.51-3.92-1.37-6.66-2.58-8.23c-1.2-1.57-3.33-2.36-6.38-2.36H20.51v22.24c0,2.21,0.28,3.78,0.84,4.69
	c0.56,0.92,1.56,1.64,2.98,2.17s3.47,0.95,6.14,1.28c0.55,0.06,0.82,0.5,0.82,1.3c0,0.9-0.26,1.35-0.77,1.35
	c-2.15,0-4.72-0.1-7.7-0.29c-2.86-0.19-5.26-0.29-7.22-0.29s-4.35,0.1-7.17,0.29c-2.95,0.19-5.5,0.29-7.65,0.29
	C0.26,70.33,0,69.88,0,68.98c0-0.8,0.26-1.23,0.77-1.3c2.66-0.32,4.7-0.75,6.11-1.28c1.41-0.53,2.4-1.25,2.96-2.14
	c0.56-0.9,0.84-2.47,0.84-4.72V14.21c0-2.22-0.27-3.78-0.79-4.7s-1.5-1.65-2.91-2.19C5.57,6.77,3.5,6.34,0.77,6.02
	C0.26,6.02,0,5.58,0,4.69c0-0.88,0.26-1.32,0.77-1.32c8.09,0.38,16.37,0.58,24.84,0.58c8.02,0,16.06-0.19,24.12-0.58
	C50.78,8.92,51.99,13.83,53.33,18.1z"/>
<path d="M104.26,67.18c0,0.69-0.26,1.06-0.77,1.13c-5.84,0.64-9.84,1.74-11.99,3.33c-0.45,0.35-0.9,0.52-1.35,0.52
	c-0.64,0-0.96-0.26-0.96-0.77l0.38-6.07c-4.75,4.3-9.05,6.45-12.9,6.45c-4.4,0-7.82-1.25-10.28-3.74
	c-2.46-2.49-3.68-5.87-3.68-10.15V39.87c0-2.86-0.37-4.75-1.11-5.69c-0.74-0.93-2.2-1.4-4.38-1.4c-0.42,0-0.88,0.02-1.4,0.05
	c-0.48,0-0.72-0.41-0.72-1.23c0-1.01,0.26-1.51,0.77-1.51c3.71,0,8.57-0.72,14.59-2.17c0.58,0,0.86,0.4,0.86,1.2V55.6
	c0,3.63,0.69,6.27,2.08,7.92c1.38,1.65,3.56,2.48,6.52,2.48c1.9,0,3.57-0.35,5.02-1.06c1.45-0.71,2.99-1.96,4.63-3.76V39.87
	c0-2.83-0.38-4.72-1.13-5.66c-0.75-0.95-2.25-1.42-4.5-1.42c-0.39,0-0.83,0.02-1.35,0.05c-0.48,0-0.72-0.41-0.72-1.23
	c0-1.01,0.26-1.51,0.77-1.51c3.72,0,8.6-0.72,14.63-2.17c0.58,0,0.87,0.4,0.87,1.2v30.71c0,2.21,0.31,3.7,0.94,4.45
	c0.62,0.75,2.09,1.29,4.4,1.61C104,65.9,104.26,66.32,104.26,67.18z"/>
<path d="M123.47,27.68c-0.51,5.39-0.77,10.98-0.77,16.75v27.34c0,7.38-2.1,13.38-6.29,18c-1.63,1.76-3.59,3.35-5.86,4.77
	c-2.27,1.41-3.63,2.12-4.08,2.12c-0.29,0-0.55-0.19-0.79-0.55c-0.24-0.37-0.36-0.78-0.36-1.23c0-0.35,0.11-0.59,0.34-0.72
	c3.4-2.25,5.66-4.82,6.76-7.72c1.11-2.9,1.66-7.33,1.66-13.3V41.78c0-2.57-0.33-4.25-0.99-5.05c-0.66-0.8-2.13-1.33-4.41-1.59
	c-0.51,0-0.77-0.43-0.77-1.28c0-0.79,0.26-1.18,0.77-1.18c6.53-1.67,10.62-3.4,12.28-5.2c0.38-0.38,0.77-0.58,1.15-0.58
	C123.02,26.91,123.47,27.17,123.47,27.68z M123.18,10.81c0,1.34-0.49,2.51-1.47,3.5c-0.98,0.99-2.16,1.48-3.54,1.48
	c-1.35,0-2.52-0.49-3.51-1.48s-1.49-2.16-1.49-3.5c0-1.41,0.5-2.6,1.49-3.59s2.17-1.49,3.51-1.49c1.38,0,2.56,0.5,3.54,1.49
	C122.69,8.2,123.18,9.4,123.18,10.81z"/>
<path d="M154.51,68.98c0,0.9-0.26,1.35-0.77,1.35c-1.32,0-3-0.1-5.05-0.29c-2.3-0.19-4.24-0.29-5.8-0.29c-1.6,0-3.51,0.1-5.75,0.29
	c-2.02,0.19-3.69,0.29-5.01,0.29c-0.51,0-0.77-0.45-0.77-1.35c0-0.8,0.26-1.23,0.77-1.3c2.73-0.35,4.48-1.01,5.27-1.97
	c0.79-0.96,1.18-3.01,1.18-6.15V41.77c0-2.56-0.33-4.25-0.99-5.05c-0.66-0.8-2.09-1.33-4.31-1.59c-0.51,0-0.77-0.43-0.77-1.28
	c0-0.79,0.26-1.18,0.77-1.18c3.36-0.87,6.11-1.79,8.25-2.77c2.14-0.98,3.49-1.79,4.03-2.43c0.32-0.38,0.67-0.58,1.06-0.58
	c0.89,0,1.34,0.26,1.34,0.77c-0.51,7.19-0.77,12.77-0.77,16.75v15.11c0,3.15,0.39,5.2,1.18,6.16c0.79,0.96,2.58,1.62,5.37,1.97
	C154.26,67.74,154.51,68.18,154.51,68.98z M147.77,10.78c0,1.35-0.49,2.52-1.47,3.51c-0.98,1-2.16,1.49-3.54,1.49
	c-1.38,0-2.56-0.5-3.54-1.49c-0.98-0.99-1.47-2.16-1.47-3.51c0-1.41,0.48-2.6,1.44-3.56s2.15-1.44,3.56-1.44
	c1.38,0,2.56,0.48,3.54,1.44C147.28,8.18,147.77,9.37,147.77,10.78z"/>
<path d="M204.09,49.82c0,6.39-2.08,11.64-6.24,15.77c-4.16,4.12-9.55,6.18-16.17,6.18c-6.62,0-12.02-2.07-16.19-6.21
	c-4.18-4.14-6.27-9.39-6.27-15.74c0-6.45,2.1-11.82,6.31-16.1c4.21-4.29,9.59-6.43,16.14-6.43c6.59,0,11.97,2.14,16.14,6.4
	C202,37.96,204.09,43.34,204.09,49.82z M194.37,49.72c0-5.87-1.13-10.57-3.39-14.08c-2.26-3.51-5.37-5.27-9.31-5.27
	c-3.91,0-7.01,1.76-9.29,5.29s-3.42,8.21-3.42,14.06c0,5.81,1.12,10.42,3.37,13.84c2.25,3.42,5.36,5.13,9.34,5.13
	c3.98,0,7.09-1.69,9.34-5.08C193.25,60.23,194.37,55.6,194.37,49.72z"/>
<path d="M259.98,68.98c0,0.9-0.26,1.35-0.77,1.35c-1.28,0-2.94-0.1-4.96-0.29c-2.21-0.19-4.11-0.29-5.68-0.29
	c-1.57,0-3.54,0.1-5.92,0.29c-2.21,0.19-3.96,0.29-5.25,0.29c-0.51,0-0.77-0.45-0.77-1.35c0-0.8,0.26-1.23,0.77-1.3
	c0.83-0.1,1.43-0.26,1.78-0.48c0.35-0.22,0.53-0.66,0.53-1.3c0-0.96-1.54-3.08-4.62-6.36l-7.7-8.57c-0.64-0.64-1.51-0.96-2.6-0.96
	v9.53c0,2.82,0.34,4.83,1.04,6.02c0.69,1.19,1.98,1.89,3.87,2.12c0.51,0.06,0.77,0.5,0.77,1.3c0,0.9-0.26,1.35-0.77,1.35
	c-1.38,0-3.18-0.1-5.39-0.29c-2.11-0.19-3.77-0.29-4.98-0.29c-1.37,0-3.03,0.1-4.99,0.29c-1.86,0.19-3.4,0.29-4.62,0.29
	c-0.51,0-0.77-0.45-0.77-1.35c0-0.8,0.26-1.23,0.77-1.3c2.7-0.29,4.44-0.92,5.25-1.9c0.8-0.98,1.2-3.05,1.2-6.23V14.87
	c0-2.6-0.31-4.3-0.94-5.1c-0.63-0.8-2.08-1.33-4.36-1.59c-0.51-0.07-0.77-0.48-0.77-1.23c0-0.85,0.26-1.28,0.77-1.28
	c5.48-1.28,9.52-2.98,12.14-5.1C223.5,0.19,223.9,0,224.22,0c0.89,0,1.34,0.26,1.34,0.77c-0.51,5.27-0.77,10.86-0.77,16.77v29.83
	c1.16,0,2.07-0.31,2.74-0.92l7.17-6.81c0.22-0.23,0.59-0.56,1.11-1.01c2.66-2.43,4-4.23,4-5.4c0-0.84-1.28-1.43-3.85-1.75
	c-0.51-0.06-0.77-0.5-0.77-1.32c0-0.88,0.26-1.32,0.77-1.32c1.35,0,3.05,0.1,5.1,0.29c1.89,0.19,3.47,0.29,4.72,0.29
	c0.93,0,2.13-0.08,3.61-0.24c1.8-0.22,3.4-0.34,4.81-0.34c0.51,0,0.77,0.44,0.77,1.32c0,0.82-0.26,1.26-0.77,1.32
	c-2.34,0.26-4.39,0.81-6.14,1.65c-1.75,0.84-4.12,2.59-7.1,5.25l-8.28,7.34l12.61,13.82c2.66,2.92,4.91,4.93,6.74,6.02
	c1.83,1.09,4.22,1.8,7.17,2.12C259.72,67.74,259.98,68.18,259.98,68.98z"/>
<path d="M294.35,71.39c-1.79,0-3.34-0.44-4.67-1.32c-1.32-0.88-2.22-2.08-2.7-3.59c-3.43,3.53-7.93,5.29-13.48,5.29
	c-2.89,0-5.25-0.89-7.08-2.67c-1.83-1.78-2.74-4-2.74-6.67c0-6.58,7.8-11.91,23.39-15.98l0.29-7.51V38.7c0-2.31-0.57-4.15-1.71-5.51
	c-1.14-1.36-2.66-2.04-4.55-2.04s-3.5,0.46-4.81,1.37c-1.32,0.91-1.99,2.06-2.02,3.44c-0.03,2.05-0.57,3.66-1.61,4.81
	c-1.04,1.16-2.43,1.73-4.16,1.73c-1.03,0-1.86-0.31-2.5-0.92c-0.64-0.61-0.96-1.43-0.96-2.45c0-2.47,2.25-5.06,6.74-7.77
	c4.49-2.71,8.67-4.07,12.52-4.07c3.47,0,6.27,1.03,8.42,3.08c2.15,2.05,3.22,4.81,3.22,8.28v0.58l-0.72,21.76v0.34
	c0,3.37,1.09,5.06,3.27,5.06c1.06,0,2.3-0.64,3.71-1.93l0.34-0.1c0.25,0,0.49,0.17,0.72,0.51c0.22,0.34,0.34,0.7,0.34,1.08
	c0,0.93-0.97,2.07-2.91,3.42C298.73,70.71,296.63,71.39,294.35,71.39z M286.98,49.68c-9.34,2.12-14.01,5.63-14.01,10.52
	c0,4.57,1.76,6.85,5.28,6.85c1.69,0,3.36-0.43,5.01-1.28c1.65-0.85,2.76-1.91,3.33-3.16L286.98,49.68z"/>
</svg>
