<?xml version="1.0" encoding="utf-8"?>
<!-- Generator: Adobe Illustrator 23.1.1, SVG Export Plug-In . SVG Version: 6.00 Build 0)  -->
<svg version="1.1" id="レイヤー_1" xmlns="http://www.w3.org/2000/svg" xmlns:xlink="http://www.w3.org/1999/xlink" x="0px"
	 y="0px" viewBox="0 0 550.27 62.14" style="enable-background:new 0 0 550.27 62.14;" xml:space="preserve">
<g>
	<path d="M9.79,55.16h2.11c3.78-0.06,3.84-0.96,3.84-3.07v-6.46H9.09c-0.51,5.89-1.6,12.22-3.9,16.51L0,57.79
		c3.07-6.4,3.46-17.02,3.46-23.42v-18.3h18.24v37.82c0,5.31-1.86,7.62-9.54,7.68L9.79,55.16z M43.71,11.26l0.06,3.07h-6.91v-3.07
		h-13.5v3.39h-6.85v-3.39L1.66,11.33V5.31h14.85V1.6h6.85v3.71h13.5V1.6h6.85v3.71h15.17v5.95H43.71z M15.74,33.79H9.47v1.41
		c0,1.47,0,3.2-0.06,5.12h6.34V33.79z M15.74,22.08H9.47v6.4h6.27V22.08z M55.48,59.32c-3.39-2.43-7.81-5.25-11.07-7.1L47.93,48
		l-3.01-3.52c1.47-0.9,3.52-2.69,5.12-4.54c-1.09-1.34-2.11-2.75-3.01-4.22H36.41c-1.15,1.66-2.5,3.26-3.97,4.74
		c1.47,1.28,3.26,2.94,4.48,4.22l-2.69,2.62l2.56,4.1c-2.69,2.56-7.74,6.08-10.69,7.55l-3.14-5.18c3.01-1.22,6.72-3.39,9.54-5.57
		c-1.09-1.28-2.69-2.94-4.1-4.29c-1.09,0.83-2.24,1.6-3.46,2.37l-2.94-5.44c2.94-1.28,5.5-3.01,7.62-5.12h-6.27v-5.12h9.73
		c0.64-1.22,1.22-2.5,1.73-3.78H24.64v-5.06h3.84c-0.7-1.66-1.6-3.46-2.37-4.8l5.44-1.47c0.96,2.05,1.92,4.35,2.62,6.27h2.24
		c0.51-2.24,0.9-4.48,1.15-6.78l5.89,0.51c-0.32,2.18-0.77,4.22-1.28,6.27h4.1c0.9-1.92,1.73-4.29,2.24-6.27l6.02,1.41
		c-0.51,1.54-1.41,3.39-2.11,4.86h4.74v5.06h-8.13c0.51,1.28,1.02,2.56,1.6,3.78h8.58v5.12h-5.89c1.79,2.24,4.42,4.22,7.23,5.76
		l-3.78,4.86c-1.02-0.83-2.05-1.66-3.07-2.56c-1.54,1.66-3.26,3.33-4.8,4.54c3.14,1.66,7.04,3.97,10.3,6.14L55.48,59.32z
		 M31.68,56.32h1.15c4.93,0,5.12-0.45,5.12-3.39v-15.1h6.21v15.61c0,7.36-0.7,8.58-10.24,8.64L31.68,56.32z M40.64,26.81
		c-0.51,1.34-1.02,2.56-1.6,3.78h5.63c-0.58-1.22-1.02-2.5-1.41-3.78H40.64z"/>
	<path d="M114.49,55.55c8.13,0,8.45-0.45,8.45-3.46V10.24H81.02v51.71H74.5V3.84h54.97v48.64c0,7.17-1.28,9.09-12.09,9.41
		L114.49,55.55z M85.69,52.16V32.77h6.27v13.18h6.66V28.99H83.07v-6.27h9.73c-1.47-2.94-3.84-6.33-5.57-8.38l5.31-2.94
		c2.05,2.43,4.67,6.08,6.08,8.96l-4.54,2.37h10.24c2.18-3.01,4.42-7.1,5.7-11.07l6.46,2.43c-1.02,2.3-3.01,5.89-4.86,8.64h9.21v6.27
		h-15.81v16.96h6.85V32.77h6.27v19.39H85.69z"/>
	<path d="M171.9,60.22c-6.08,0-11.07-1.54-15.23-6.78c-1.98,3.39-4.74,6.4-8,8.64l-4.1-6.08c3.33-1.86,6.21-4.35,8.19-7.68V32.19
		h-7.36V25.6h13.89v21.31c3.2,5.44,6.91,6.66,12.67,6.66h1.41c3.01,0,11.65-0.06,31.87-0.32l-2.3,6.97H171.9z M154.24,18.17
		c-2.3-3.39-6.14-8.38-8.77-11.07l5.31-4.35c2.5,2.82,6.59,8.19,8.45,11.2L154.24,18.17z M161.66,26.3v-5.89h18.37v-6.4h-8.96
		c-1.54,2.18-3.26,4.16-5.18,5.7l-4.67-5.06c3.84-2.94,7.1-7.17,8.96-12.35l6.14,1.73c-0.51,1.28-1.15,2.62-1.79,3.97h5.5V1.66h6.59
		V8h14.85v6.02h-14.85v6.4h17.6v5.89H161.66z M166.53,49.02V30.01h33.66v19.01H166.53z M193.79,36.09h-20.93V43h20.93V36.09z"/>
	<path d="M240.06,61.69V32.7h-8.26c-0.38,10.3-2.18,21.12-8.9,29.12l-5.5-4.42c5.57-6.66,7.42-15.23,7.81-24.7h-7.42v-6.53h7.55
		V10.37h-6.08V3.84h33.47v6.53h-6.02v15.81h7.81v6.27c7.1-2.75,13.38-6.91,17.92-11.84l4.67,5.06c-4.8,5.57-12.35,10.62-19.58,13.44
		l-4.42-6.14c0.26-0.13,0.51-0.19,0.7-0.26h-7.1v28.99H240.06z M240.06,10.37h-8.13v15.81h8.13V10.37z M250.11,55.8
		c9.6-3.26,17.66-8.51,23.36-15.62l4.99,4.8c-5.18,7.04-13.57,13.38-24.25,17.09L250.11,55.8z M252.73,13.63
		c6.72-2.18,14.33-7.1,18.56-12.1l5.06,4.54c-4.67,5.57-11.2,10.56-19.33,13.76L252.73,13.63z"/>
	<path d="M323.77,30.14c-0.83,14.21-5.7,25.34-23.81,31.23l-6.78-6.08c18.37-4.22,22.4-13.7,22.91-25.15h-26.17v-6.85h56.51v6.85
		H323.77z M335.93,14.85l-0.32-1.02v0.13l-39.23-0.06V7.04h36.54c-0.83-1.86-1.66-3.58-2.5-5.06l4.74-0.96
		c1.79,3.01,4.54,8.51,5.76,12.48L335.93,14.85z M345.34,13.25c-1.22-3.71-3.52-8.64-5.63-12.35l4.67-0.9
		c2.05,3.26,4.61,8.13,5.89,11.84L345.34,13.25z"/>
	<path d="M403.9,24.13v1.92c0,18.3-5.5,29.5-27.39,34.56l-6.08-6.34c22.21-3.2,26.24-13.7,26.24-29.18v-0.96h-18.82v16.25h-7.29
		V24.13h-12.99v-6.78h12.99V4.48h7.29v12.86h18.75c0-3.9-0.06-8.19-0.06-12.86h3.84c0,1.15,1.41,6.66,2.11,12.86h14.66v6.78H403.9z
		 M405.69,15.36c-0.51-3.78-1.98-9.21-3.26-12.67l4.67-0.7c1.15,3.07,2.94,8.38,3.46,12.35L405.69,15.36z M414.4,14.27
		c-0.58-3.71-2.11-8.7-3.46-12.48l4.54-0.64c1.41,3.33,3.14,8.32,3.71,12.1L414.4,14.27z"/>
	<path d="M455.87,60.6L456,30.46c-8,5.18-16.13,8.83-23.93,11.84l-6.02-6.46c20.61-6.21,37.12-17.02,47.74-32.57l7.36,4.03
		c-5.57,7.23-11.39,12.99-17.34,17.73c0,4.35,0.06,23.55,0.13,35.65L455.87,60.6z"/>
	<path d="M514.75,26.49c-4.99-5.31-13.44-10.5-18.43-13.05l5.38-5.63c4.29,2.05,13.38,7.17,18.37,11.9L514.75,26.49z M497.34,51.96
		c28.54-4.29,40.64-17.54,46.08-39.87l6.85,4.22c-3.97,14.72-11.52,35.58-48.25,42.81L497.34,51.96z"/>
</g>
</svg>
