<?xml version="1.0" encoding="utf-8"?>
<!-- Generator: Adobe Illustrator 23.1.1, SVG Export Plug-In . SVG Version: 6.00 Build 0)  -->
<svg version="1.1" id="レイヤー_1" xmlns="http://www.w3.org/2000/svg" xmlns:xlink="http://www.w3.org/1999/xlink" x="0px"
	 y="0px" viewBox="0 0 339.94 28.15" style="enable-background:new 0 0 339.94 28.15;" xml:space="preserve">
<g>
	<path d="M43.11,18.53c-0.12,0.32-0.3,0.67-0.55,1.03c-0.25,0.37-0.55,0.71-0.9,1.03c-0.35,0.32-0.73,0.61-1.12,0.86
		c-0.4,0.25-0.79,0.43-1.17,0.55c-0.85,0.29-1.58,0.37-2.2,0.22c-0.62-0.15-1.26-0.51-1.94-1.1c-1.06-0.94-1.91-1.69-2.55-2.27
		c-0.65-0.57-1.29-1.09-1.94-1.56c-0.82-0.65-1.57-1.2-2.24-1.67c-0.67-0.47-1.45-0.95-2.33-1.45c-0.26-0.15-0.48-0.21-0.64-0.2
		s-0.34,0.17-0.55,0.46c-0.41,0.59-0.84,1.14-1.3,1.67c-0.46,0.53-0.86,0.94-1.21,1.23c-0.24,0.18-0.37,0.31-0.4,0.4
		s0.01,0.22,0.13,0.4c0.38,0.59,0.81,1.12,1.28,1.58c0.62,0.65,0.45,1.01-0.48,1.1c-0.65,0.06-1.22-0.02-1.74-0.24
		c-0.51-0.22-0.8-0.55-0.86-0.99c-0.06-0.35-0.12-0.56-0.18-0.62c-0.06-0.06-0.19-0.04-0.4,0.04c-0.67,0.32-1.31,0.59-1.89,0.79
		c-0.59,0.21-1.09,0.29-1.5,0.26c-0.32-0.03-0.52-0.01-0.59,0.04c-0.07,0.06-0.11,0.24-0.11,0.53c0.03,0.67,0.05,1.37,0.07,2.09
		c0.01,0.72,0.04,1.45,0.07,2.18c0,0.38-0.01,0.7-0.04,0.97c-0.03,0.26-0.12,0.49-0.26,0.68c-0.15,0.19-0.36,0.35-0.64,0.48
		c-0.28,0.13-0.64,0.27-1.08,0.42c-0.32,0.09-0.57,0.14-0.73,0.15s-0.28-0.02-0.35-0.11c-0.07-0.09-0.11-0.25-0.11-0.48
		s0-0.56,0-0.97c0-0.18,0-0.48,0-0.9c0-0.42-0.01-0.93-0.02-1.52c-0.02-0.59-0.02-1.25-0.02-1.98c0-0.73,0-1.48,0-2.24
		c0-0.18-0.08-0.33-0.24-0.46s-0.45-0.21-0.86-0.24h-0.84c-0.21,0-0.35,0.02-0.42,0.07c-0.07,0.04-0.14,0.15-0.2,0.33
		c-0.35,1.85-1.03,3.45-2.05,4.82C7,25.28,5.85,26.15,4.56,26.54c-1.67,0.5-3.07-0.16-4.18-1.98c-0.29-0.47-0.42-0.81-0.37-1.03
		s0.33-0.4,0.86-0.55c0.94-0.23,1.88-0.68,2.84-1.34c0.95-0.66,1.74-1.43,2.35-2.31C7,18,7.58,16.49,7.8,14.79
		c0.22-1.7,0.09-3.49-0.37-5.37C7.22,8.57,7.2,7.98,7.38,7.66C7.55,7.34,7.94,7.12,8.52,7c0.26-0.06,0.51-0.08,0.75-0.07
		C9.5,6.95,9.7,7.03,9.84,7.18c0.23,0.23,0.42,0.38,0.55,0.44c0.13,0.06,0.36,0.09,0.68,0.09h0.66c0.15,0,0.31-0.03,0.51-0.09
		c0.19-0.06,0.49-0.21,0.9-0.44C13.32,7.06,13.57,7,13.89,7c0.32,0,0.69,0.1,1.1,0.31c0.56,0.26,0.92,0.65,1.08,1.14
		c0.16,0.5,0.18,1.14,0.07,1.94c-0.12,0.76-0.21,1.72-0.26,2.88c-0.06,1.16-0.1,2.46-0.13,3.89c0,0.32,0.05,0.51,0.15,0.57
		c0.1,0.06,0.31,0.02,0.64-0.13c1.88-0.7,3.4-1.66,4.58-2.86c0.15-0.18,0.18-0.29,0.09-0.35s-0.43-0.06-1.01,0
		c-0.32,0.06-0.65,0.12-0.97,0.18c-0.32,0.06-0.68,0.16-1.06,0.31c-0.29,0.09-0.55,0.07-0.77-0.04c-0.22-0.12-0.37-0.29-0.46-0.51
		c-0.09-0.22-0.07-0.46,0.07-0.73s0.4-0.48,0.81-0.66c0.21-0.09,0.45-0.14,0.73-0.15c0.28-0.01,0.74-0.02,1.39-0.02
		c0.24,0,0.54-0.01,0.9-0.02c0.37-0.01,0.73-0.05,1.08-0.11c0.29-0.03,0.48-0.07,0.57-0.13c0.09-0.06,0.21-0.23,0.35-0.53
		c0.15-0.32-0.06-0.47-0.62-0.44c-0.62,0.06-1.24,0.13-1.87,0.22c-0.63,0.09-1.17,0.18-1.61,0.26c-0.7,0.15-1.12,0.02-1.23-0.37
		c-0.12-0.4,0.07-0.77,0.57-1.12c0.29-0.21,0.56-0.34,0.79-0.4c0.23-0.06,0.7-0.07,1.41-0.04h2.46c0.32,0,0.52-0.04,0.59-0.13
		s0.12-0.26,0.15-0.53c0.03-0.15,0.05-0.3,0.07-0.46c0.01-0.16,0.04-0.33,0.07-0.51c0.03-0.38,0.07-0.69,0.11-0.92
		c0.04-0.23,0.13-0.41,0.26-0.53c0.13-0.12,0.32-0.19,0.57-0.22c0.25-0.03,0.58-0.03,0.99,0c0.76,0.06,1.27,0.24,1.52,0.55
		c0.25,0.31,0.37,0.86,0.37,1.65c0,0.47,0.01,0.75,0.02,0.84c0.01,0.09,0.07,0.13,0.15,0.13c1.5-0.06,2.73-0.08,3.7-0.07
		c0.97,0.01,1.77,0.07,2.42,0.15c0.62,0.09,1.03,0.18,1.25,0.26s0.33,0.25,0.33,0.48c0,0.21-0.1,0.35-0.31,0.42
		c-0.21,0.07-0.63,0.12-1.28,0.15c-0.12,0-0.39,0-0.81,0c-0.43,0-0.94,0.01-1.54,0.02c-0.6,0.01-1.26,0.02-1.98,0.02s-1.43,0-2.13,0
		c-0.21,0-0.35,0.02-0.42,0.07c-0.07,0.04-0.17,0.15-0.29,0.33c-0.09,0.15-0.12,0.26-0.11,0.33c0.01,0.07,0.14,0.11,0.37,0.11
		c1.32-0.06,2.76-0.07,4.33-0.02c1.57,0.04,2.97,0.12,4.2,0.24c0.47,0.06,0.78,0.13,0.92,0.22s0.22,0.28,0.22,0.57
		c0,0.24-0.09,0.41-0.26,0.53s-0.48,0.16-0.92,0.13c-1.61-0.12-3.27-0.16-4.97-0.13c-0.38,0-0.58,0.02-0.59,0.07
		s0.11,0.14,0.37,0.29c0.44,0.23,0.91,0.46,1.41,0.66c0.5,0.21,1.03,0.4,1.58,0.57c0.82,0.26,1.57,0.49,2.24,0.68
		c0.67,0.19,1.34,0.37,2,0.55c0.66,0.18,1.36,0.34,2.09,0.48c0.73,0.15,1.58,0.31,2.55,0.48c0.59,0.12,0.95,0.24,1.08,0.35
		C43.22,18.03,43.22,18.23,43.11,18.53z M37.43,4.05c0.03,0.32-0.12,0.57-0.46,0.75c-0.34,0.18-0.9,0.25-1.69,0.22
		c-1.03-0.03-2.03-0.05-3.01-0.07c-0.98-0.01-2.03-0.02-3.15-0.02c-0.29,0-0.5,0.04-0.62,0.11c-0.12,0.07-0.25,0.27-0.4,0.59
		c-0.12,0.26-0.37,0.48-0.77,0.66c-0.4,0.18-0.82,0.29-1.28,0.33c-0.46,0.04-0.87,0.01-1.25-0.11c-0.38-0.12-0.62-0.35-0.7-0.7
		c-0.09-0.41-0.19-0.67-0.31-0.77c-0.12-0.1-0.26-0.15-0.44-0.15h-4.22c-0.29,0-0.51,0.06-0.64,0.18s-0.36,0.47-0.68,1.06
		c-0.15,0.26-0.4,0.48-0.75,0.66c-0.35,0.18-0.71,0.29-1.08,0.33C15.61,7.15,15.27,7.12,14.95,7c-0.32-0.12-0.53-0.34-0.62-0.66
		c-0.18-0.65-0.34-1.04-0.48-1.19C13.7,5,13.35,4.95,12.79,4.98c-0.82,0.06-1.54,0.1-2.16,0.13c-0.62,0.03-1.1,0.07-1.45,0.13
		C8.48,5.33,7.91,5.42,7.49,5.5C7.06,5.59,6.53,5.71,5.88,5.86C5.5,5.94,5.16,5.95,4.87,5.88S4.36,5.68,4.21,5.5
		C4.06,5.33,4,5.11,4.01,4.84c0.01-0.26,0.15-0.56,0.42-0.88c0.15-0.21,0.34-0.4,0.59-0.57c0.25-0.18,0.52-0.32,0.81-0.44
		c0.29-0.12,0.59-0.2,0.88-0.24c0.29-0.04,0.54-0.04,0.75,0.02C7.67,2.79,8,2.84,8.46,2.86C8.91,2.89,9.42,2.91,10,2.91
		c0.57,0,1.17-0.01,1.78-0.02s1.19-0.05,1.72-0.11c0.18-0.03,0.3-0.07,0.37-0.13s0.15-0.25,0.24-0.57c0.06-0.15,0.11-0.3,0.15-0.46
		c0.04-0.16,0.09-0.31,0.15-0.46c0.12-0.32,0.36-0.52,0.73-0.59c0.37-0.07,0.76-0.07,1.19,0c0.42,0.07,0.81,0.21,1.17,0.4
		c0.35,0.19,0.57,0.39,0.66,0.59l0.13,0.4c0.15,0.32,0.29,0.53,0.42,0.62c0.13,0.09,0.32,0.13,0.55,0.13h3.78
		c0.35,0,0.58-0.04,0.68-0.13c0.1-0.09,0.18-0.32,0.24-0.7c0.09-0.59,0.34-1,0.77-1.23c0.42-0.23,0.89-0.33,1.41-0.29
		c0.51,0.04,0.98,0.21,1.41,0.51c0.42,0.29,0.68,0.67,0.77,1.14c0.06,0.32,0.13,0.53,0.22,0.62c0.09,0.09,0.26,0.13,0.53,0.13
		c1.67,0,3.14,0.02,4.4,0.04c1.26,0.03,2.07,0.07,2.42,0.13c0.67,0.06,1.09,0.15,1.25,0.26C37.31,3.29,37.4,3.58,37.43,4.05z
		 M12.57,14.61c0-0.21-0.09-0.34-0.26-0.4s-0.48-0.1-0.92-0.13c-0.41-0.03-0.67-0.01-0.77,0.04s-0.15,0.18-0.15,0.35
		c0,0.24-0.01,0.45-0.04,0.64c-0.03,0.19-0.04,0.39-0.04,0.59c0,0.38,0.04,0.6,0.13,0.66c0.09,0.06,0.29,0.09,0.62,0.09
		c0.59,0,0.98-0.05,1.17-0.15s0.29-0.27,0.29-0.51V14.61z M12.53,10.96c-0.06-0.59-0.16-0.95-0.31-1.08
		c-0.15-0.13-0.38-0.18-0.7-0.15c-0.53,0.03-0.85,0.07-0.97,0.13c-0.12,0.06-0.16,0.21-0.13,0.44c0.03,0.21,0.05,0.4,0.07,0.59
		c0.01,0.19,0.02,0.39,0.02,0.59c0,0.32,0.05,0.51,0.15,0.57s0.36,0.09,0.77,0.09c0.5,0,0.82-0.06,0.97-0.18
		C12.54,11.85,12.58,11.52,12.53,10.96z M34.53,25.66c-0.32,0.26-0.64,0.41-0.95,0.44c-0.31,0.03-0.8-0.1-1.47-0.4
		c-1.26-0.56-2.74-1.36-4.44-2.42c-0.23-0.15-0.38-0.2-0.44-0.15c-0.06,0.04-0.09,0.24-0.09,0.59V25c0,1.82-0.87,2.86-2.6,3.12
		c-0.59,0.09-1.23,0.01-1.94-0.24c-0.7-0.25-1.29-0.68-1.76-1.3c-0.47-0.62-0.66-1.03-0.57-1.25c0.09-0.22,0.38-0.24,0.88-0.07
		c0.64,0.23,1.25,0.3,1.83,0.2c0.57-0.1,0.89-0.34,0.95-0.73c0.06-0.26,0.1-0.56,0.13-0.88c0.03-0.32,0.06-0.67,0.09-1.06
		c0-0.15-0.03-0.23-0.09-0.24c-0.06-0.01-0.24,0.07-0.53,0.24c-0.62,0.41-1.14,0.74-1.58,0.99c-0.44,0.25-0.85,0.46-1.23,0.64
		c-0.38,0.18-0.77,0.32-1.17,0.42c-0.4,0.1-0.84,0.21-1.34,0.33c-0.5,0.15-0.91,0.11-1.23-0.11c-0.32-0.22-0.51-0.54-0.57-0.95
		c-0.12-0.79,0.29-1.28,1.23-1.45c1.44-0.26,2.6-0.52,3.5-0.77c0.89-0.25,1.72-0.54,2.49-0.86c0.23-0.12,0.38-0.22,0.44-0.31
		c0.06-0.09,0.09-0.22,0.09-0.4c0-0.53-0.02-1.05-0.04-1.56c-0.03-0.51-0.07-1-0.13-1.47c-0.12-0.88,0.01-1.5,0.4-1.87
		c0.38-0.37,0.95-0.34,1.72,0.07c0.35,0.18,0.62,0.34,0.79,0.48c0.18,0.15,0.3,0.32,0.37,0.51c0.07,0.19,0.11,0.43,0.11,0.7
		c0,0.28-0.02,0.65-0.04,1.12c-0.03,0.15-0.05,0.3-0.07,0.46s-0.02,0.34-0.02,0.55c0,0.32,0.02,0.54,0.07,0.66s0.2,0.25,0.46,0.4
		c1.17,0.65,2.35,1.3,3.54,1.96c1.19,0.66,2.08,1.2,2.66,1.61c0.56,0.41,0.86,0.75,0.9,1.01C34.9,25.22,34.79,25.45,34.53,25.66z
		 M22.82,8.58c0.29,0.18,0.43,0.31,0.42,0.4s-0.18,0.19-0.51,0.31c-1,0.32-2.02,0.12-3.08-0.62c-0.35-0.26-0.46-0.59-0.33-0.99
		c0.13-0.4,0.45-0.71,0.95-0.95c0.41-0.21,0.7-0.28,0.86-0.22c0.16,0.06,0.36,0.28,0.59,0.66c0.29,0.5,0.52,0.84,0.68,1.03
		C22.57,8.4,22.7,8.53,22.82,8.58z M30.92,19.45c-0.41,0.26-0.91,0.44-1.5,0.53c-0.59,0.09-1.01,0.13-1.28,0.13
		c-0.35,0-0.57-0.07-0.66-0.2c-0.09-0.13-0.01-0.31,0.22-0.55c0.53-0.53,0.85-0.91,0.97-1.14c0.26-0.44,0.5-0.7,0.7-0.79
		c0.2-0.09,0.56-0.01,1.06,0.22c0.5,0.26,0.78,0.58,0.86,0.95S31.24,19.25,30.92,19.45z M32.19,8.45c-1.03,0.35-1.98,0.6-2.86,0.75
		c-0.44,0.06-0.71,0-0.81-0.18c-0.1-0.18-0.02-0.38,0.24-0.62c0.15-0.15,0.37-0.37,0.66-0.66c0.29-0.29,0.48-0.51,0.57-0.66
		c0.23-0.32,0.45-0.5,0.64-0.53c0.19-0.03,0.48,0.04,0.86,0.22c0.65,0.29,1.03,0.61,1.14,0.95C32.75,8.06,32.6,8.3,32.19,8.45z"/>
	<path d="M80.42,20.11c0.09,1.32,0.15,2.38,0.18,3.17s0,1.42-0.09,1.87c-0.09,0.46-0.24,0.8-0.46,1.03
		c-0.22,0.24-0.51,0.46-0.86,0.66c-0.41,0.23-0.84,0.41-1.28,0.53c-0.44,0.12-0.73,0.16-0.88,0.13c-0.53-0.06-0.92-0.34-1.17-0.84
		c-0.25-0.5-0.36-1.28-0.33-2.33c0-0.38,0-1.05,0-2c0-0.95,0-2.05,0-3.3c0-1.25,0-2.55,0-3.92c0-1.36,0-2.65,0-3.87
		c0-1.22-0.01-2.27-0.02-3.17c-0.02-0.89-0.02-1.49-0.02-1.78c0-0.5-0.09-0.81-0.29-0.95c-0.19-0.13-0.65-0.21-1.39-0.24
		c-1.47-0.06-2.88-0.1-4.25-0.13c-1.36-0.03-2.77-0.03-4.22,0C63.9,5,62.36,5.06,60.75,5.15c-1.61,0.09-3.39,0.22-5.32,0.4
		c-0.26,0-0.4,0.15-0.4,0.44c0.03,0.62,0.06,1.26,0.09,1.94c0.03,0.67,0.04,1.12,0.04,1.32c0.06,2.08,0.04,3.84-0.04,5.28
		c-0.09,1.44-0.25,2.68-0.48,3.74c-0.24,1.06-0.54,1.97-0.92,2.75c-0.38,0.78-0.84,1.53-1.36,2.27c-0.91,1.23-1.9,2.11-2.97,2.62
		c-1.07,0.51-2.16,0.74-3.28,0.68c-0.7-0.03-1.31-0.28-1.83-0.75c-0.51-0.47-0.84-1.04-0.99-1.72c-0.15-0.59-0.14-0.99,0.02-1.21
		s0.45-0.37,0.86-0.46c0.62-0.15,1.18-0.32,1.69-0.53c0.51-0.2,0.99-0.46,1.43-0.77c0.44-0.31,0.86-0.69,1.28-1.14
		c0.41-0.46,0.84-1,1.28-1.65c0.44-0.64,0.8-1.5,1.08-2.57c0.28-1.07,0.45-2.19,0.53-3.37c0.07-1.17,0.06-2.35-0.04-3.52
		c-0.1-1.17-0.3-2.2-0.59-3.08c-0.82-2.46-0.35-3.84,1.41-4.14c0.35-0.06,0.78-0.04,1.28,0.04s0.82,0.21,0.97,0.35
		c0.26,0.24,0.48,0.35,0.66,0.35c0.56,0.06,1.08,0.09,1.56,0.09s0.9-0.01,1.25-0.04c1.26-0.12,2.65-0.21,4.18-0.26
		c1.53-0.06,3-0.09,4.42-0.11c1.42-0.01,2.71-0.01,3.87,0.02c1.16,0.03,2,0.09,2.53,0.18c0.56,0.09,1,0.15,1.34,0.2
		s0.62,0.06,0.84,0.04c0.22-0.01,0.41-0.05,0.57-0.11s0.33-0.16,0.51-0.31c0.29-0.21,0.7-0.31,1.23-0.31s1.03,0.12,1.5,0.35
		c0.35,0.18,0.63,0.38,0.84,0.62c0.21,0.24,0.34,0.54,0.4,0.9c0.06,0.37,0.07,0.82,0.02,1.36c-0.04,0.54-0.14,1.21-0.29,2
		c-0.06,0.32-0.1,0.78-0.11,1.39s0,1.42,0.04,2.46c0.04,1.04,0.11,2.31,0.2,3.81S80.24,18,80.42,20.11z M74.43,11.97
		c-0.06,0.41-0.19,0.68-0.4,0.81c-0.21,0.13-0.53,0.2-0.97,0.2c-0.65,0-1.22,0-1.74,0c-0.51,0-1.01,0-1.5,0
		c-0.48,0-0.99,0.01-1.52,0.02c-0.53,0.01-1.13,0.02-1.8,0.02c-0.56,0-1.13,0.01-1.72,0.02c-0.59,0.01-1.14,0.03-1.67,0.04
		c-0.53,0.01-1.01,0.02-1.43,0.02s-0.74,0-0.95,0c-0.82,0-1.98,0.19-3.48,0.57c-0.73,0.21-1.25,0.15-1.54-0.18
		c-0.15-0.18-0.17-0.51-0.07-0.99c0.1-0.48,0.37-0.9,0.81-1.25c0.53-0.47,1.1-0.56,1.72-0.26c0.12,0.06,0.34,0.09,0.66,0.11
		c0.32,0.02,0.84,0.04,1.54,0.07c0.56,0.03,0.85-0.07,0.88-0.29s-0.13-0.45-0.48-0.68c-0.38-0.26-0.63-0.41-0.75-0.44
		c-0.56-0.26-0.91-0.56-1.06-0.9c-0.15-0.34-0.15-0.68,0-1.03c0.29-0.73,1.04-1.14,2.24-1.23c0.38-0.03,0.74,0.06,1.08,0.26
		c0.34,0.21,0.56,0.46,0.68,0.75c0.32,0.79,0.62,1.42,0.88,1.87c0.26,0.46,0.57,0.89,0.92,1.3c0.12,0.18,0.38,0.26,0.79,0.26
		c0.26,0,0.45-0.03,0.57-0.09c0.12-0.06,0.25-0.16,0.4-0.31c0.26-0.35,0.55-0.88,0.86-1.58c0.31-0.7,0.53-1.39,0.68-2.07
		c0.12-0.53,0.4-0.9,0.86-1.12c0.45-0.22,0.95-0.26,1.47-0.11c0.94,0.26,1.5,0.76,1.67,1.5c0.09,0.41,0.01,0.85-0.22,1.32
		c-0.24,0.47-0.5,0.79-0.79,0.97c-0.29,0.21-0.51,0.35-0.66,0.44c-0.15,0.09-0.29,0.18-0.44,0.26c-0.21,0.12-0.27,0.27-0.2,0.46
		c0.07,0.19,0.29,0.29,0.64,0.29c1.17-0.06,2.23-0.01,3.17,0.13C74.24,11.22,74.52,11.5,74.43,11.97z M73.77,20.33
		c0.18,0.44,0.25,0.87,0.22,1.28c-0.03,0.41-0.15,0.7-0.35,0.88c-0.26,0.24-0.63,0.4-1.1,0.48c-0.47,0.09-0.85,0.04-1.14-0.13
		c-0.15-0.12-0.34-0.18-0.57-0.18c-0.59-0.03-1.07-0.03-1.45,0c-0.38,0.03-0.9,0.09-1.54,0.18c-0.12,0-0.26,0.01-0.42,0.02
		c-0.16,0.02-0.46,0.02-0.9,0.02s-1.06,0-1.87,0c-0.81,0-1.88,0-3.23,0c-0.76,0-1.34,0.03-1.72,0.09s-0.84,0.21-1.36,0.44
		c-0.32,0.15-0.73,0.12-1.23-0.09c-0.5-0.21-0.88-0.56-1.14-1.06c-0.32-0.59-0.28-1.14,0.13-1.67c0.23-0.32,0.4-0.97,0.48-1.94
		c0.06-0.5,0.1-0.97,0.11-1.43c0.01-0.45,0.02-0.77,0.02-0.95c0-0.41,0.07-0.69,0.22-0.84c0.15-0.15,0.41-0.21,0.79-0.18
		c0.73,0.06,1.22,0.17,1.47,0.33s0.39,0.36,0.42,0.59c0.03,0.32,0.05,0.73,0.07,1.23c0.01,0.5,0.04,0.84,0.07,1.01
		c0.09,0.85,0.18,1.41,0.29,1.67s0.23,0.43,0.37,0.48c0.09,0.03,0.21,0.04,0.37,0.04s0.43-0.01,0.81-0.04c0.15,0,0.31,0,0.48,0
		c0.18,0,0.38-0.01,0.62-0.04c0.21,0,0.31-0.07,0.31-0.22c0.06-0.47,0.1-0.96,0.13-1.47c0.03-0.51,0.05-0.97,0.07-1.39
		c0.01-0.41,0.01-0.77,0-1.08s-0.02-0.51-0.02-0.59c-0.15-1.03-0.08-1.72,0.2-2.07c0.28-0.35,0.83-0.47,1.65-0.35
		c0.85,0.12,1.39,0.37,1.63,0.77c0.23,0.4,0.32,1.03,0.26,1.91c-0.03,0.26-0.04,0.58-0.04,0.95s0.01,0.75,0.02,1.14
		c0.01,0.4,0.04,0.79,0.07,1.19c0.03,0.4,0.07,0.73,0.13,0.99c0.03,0.15,0.13,0.22,0.31,0.22h1.19c0.23,0,0.43-0.02,0.59-0.07
		c0.16-0.04,0.43-0.14,0.81-0.29c0.15-0.06,0.22-0.15,0.22-0.26c0.06-0.76,0.09-1.46,0.09-2.09s0-1.39,0-2.27
		c0-0.26,0.15-0.51,0.44-0.75c0.29-0.23,0.7-0.34,1.23-0.31c0.5,0.03,0.89,0.16,1.17,0.4c0.28,0.23,0.39,0.5,0.33,0.79
		c-0.03,0.21-0.04,0.53-0.04,0.97c0,0.44,0.01,0.91,0.04,1.41c0.03,0.5,0.07,0.96,0.13,1.39C73.66,19.9,73.72,20.18,73.77,20.33z"/>
	<path d="M128.69,21.87c-0.32,0.85-0.83,1.69-1.52,2.51c-0.69,0.82-1.5,1.53-2.44,2.11c-0.7,0.47-1.68,0.7-2.93,0.7
		c-1.25,0-2.71-0.29-4.38-0.88c-1.82-0.64-3.43-1.2-4.82-1.65c-1.39-0.45-2.71-0.84-3.96-1.17c-1.25-0.32-2.47-0.62-3.67-0.88
		c-1.2-0.26-2.52-0.53-3.96-0.79c-1.32-0.23-2.49-0.38-3.5-0.44s-1.96-0.02-2.84,0.11c-0.88,0.13-1.74,0.35-2.57,0.64
		s-1.72,0.67-2.66,1.14c-0.26,0.15-0.54,0.2-0.81,0.15c-0.28-0.04-0.51-0.16-0.7-0.35c-0.19-0.19-0.34-0.45-0.44-0.79
		c-0.1-0.34-0.12-0.73-0.07-1.17c0.12-0.67,0.56-1.21,1.32-1.61c0.76-0.4,1.96-0.67,3.61-0.81c0.56-0.06,1.11-0.08,1.67-0.07
		c0.56,0.01,1.16,0.05,1.8,0.11c0.21,0.03,0.41-0.02,0.62-0.15s0.37-0.26,0.48-0.37c0.67-0.76,0.95-1.37,0.81-1.83
		c-0.13-0.45-0.54-0.81-1.21-1.08c-0.32-0.15-0.51-0.41-0.55-0.79c-0.04-0.38,0.12-0.73,0.51-1.06c0.76-0.67,1.2-1.2,1.3-1.58
		s-0.07-0.66-0.51-0.84c-0.35-0.15-0.7-0.23-1.06-0.26c-0.35-0.03-0.73-0.03-1.14,0c-0.21,0.03-0.53,0.1-0.97,0.2
		c-0.44,0.1-0.82,0.24-1.14,0.42c-1,0.56-1.64,0.41-1.94-0.44c-0.24-0.73,0.01-1.44,0.75-2.11c0.32-0.29,0.67-0.52,1.03-0.68
		c0.37-0.16,0.67-0.24,0.9-0.24c0.56,0,1.11,0.03,1.65,0.09s0.99,0.15,1.34,0.26c0.26,0.06,0.62,0.12,1.08,0.18
		c0.46,0.06,1.02,0.09,1.69,0.09c0.97,0,1.63,0.21,2,0.64c0.37,0.43,0.42,0.83,0.15,1.21c-0.21,0.24-0.44,0.54-0.7,0.9
		c-0.26,0.37-0.51,0.71-0.75,1.03c-0.32,0.41-0.48,0.84-0.48,1.28c0,0.44,0.25,0.87,0.75,1.28c0.67,0.53,0.95,1.08,0.84,1.65
		c-0.12,0.57-0.51,1.06-1.19,1.47c-0.21,0.12-0.41,0.31-0.62,0.57c-0.09,0.15-0.11,0.29-0.07,0.44s0.17,0.24,0.37,0.26
		c1.26,0.15,2.42,0.29,3.48,0.44c1.06,0.15,2.08,0.29,3.08,0.44c0.23,0.03,0.39-0.02,0.46-0.15c0.07-0.13,0.08-0.27,0.02-0.42
		c-0.09-0.26-0.18-0.57-0.26-0.92c-0.21-0.94-0.37-1.74-0.51-2.42c-0.13-0.67-0.23-1.26-0.29-1.76c-0.06-0.5,0.04-0.95,0.29-1.36
		c0.25-0.41,0.58-0.66,0.99-0.75c0.23-0.06,0.46-0.1,0.68-0.13c0.22-0.03,0.4,0,0.55,0.09c0.21,0.12,0.42,0.18,0.66,0.18
		c0.88-0.06,1.66-0.1,2.33-0.13c0.67-0.03,1.33-0.05,1.96-0.07s1.26-0.01,1.89,0s1.33,0.04,2.09,0.07c0.62,0.03,1.13,0.05,1.54,0.07
		c0.41,0.01,0.75,0.04,1.03,0.09c0.28,0.04,0.52,0.11,0.73,0.2c0.21,0.09,0.41,0.21,0.62,0.35c0.23,0.18,0.37,0.37,0.42,0.57
		c0.04,0.21,0.02,0.51-0.07,0.92c-0.12,0.5-0.21,1-0.26,1.52c-0.06,0.51-0.09,1.11-0.09,1.78c0,0.88-0.44,1.54-1.32,1.98
		c-0.32,0.18-0.62,0.25-0.9,0.22c-0.28-0.03-0.61-0.13-0.99-0.31c-0.15-0.09-0.5-0.17-1.06-0.24c-0.56-0.07-1.22-0.13-2-0.18
		s-1.6-0.07-2.46-0.07s-1.68,0.03-2.44,0.09c-0.29,0.03-0.5,0.18-0.62,0.44c-0.09,0.18-0.11,0.34-0.07,0.48
		c0.04,0.15,0.15,0.24,0.33,0.26c1.61,0.15,3.26,0.27,4.93,0.37s3.56,0.23,5.68,0.37c0.44,0.03,1,0.03,1.67,0s1.37-0.07,2.09-0.11
		c0.72-0.04,1.4-0.1,2.05-0.18c0.64-0.07,1.16-0.15,1.54-0.24c0.67-0.15,1.08-0.14,1.23,0.02S128.89,21.31,128.69,21.87z
		 M100.79,4.05c0.41,0.15,0.7,0.34,0.88,0.57c0.18,0.24,0.24,0.46,0.2,0.68c-0.04,0.22-0.19,0.41-0.44,0.57
		c-0.25,0.16-0.58,0.24-0.99,0.24c-1.26,0-2.5-0.07-3.72-0.22c-1.22-0.15-2.47-0.38-3.76-0.7c-0.26-0.06-0.46-0.21-0.59-0.46
		c-0.13-0.25-0.21-0.53-0.22-0.84s0.04-0.62,0.15-0.92c0.12-0.31,0.28-0.56,0.48-0.77c0.38-0.38,0.85-0.63,1.41-0.75
		c0.56-0.12,1.06-0.03,1.5,0.26c0.7,0.44,1.46,0.86,2.27,1.25C98.76,3.37,99.7,3.73,100.79,4.05z M125.34,9.68
		c0.12,0.67,0.04,1.13-0.22,1.36c-0.18,0.15-0.45,0.25-0.81,0.31c-0.37,0.06-1.12,0.06-2.27,0c-2.55-0.09-4.75-0.15-6.6-0.18
		c-1.85-0.03-3.4-0.04-4.66-0.02c-1.26,0.02-2.27,0.05-3.01,0.11s-1.28,0.13-1.61,0.22c-0.59,0.15-1.02,0.28-1.3,0.4
		s-0.58,0.25-0.9,0.4c-0.91,0.38-1.53,0.26-1.85-0.35c-0.23-0.41-0.31-0.79-0.22-1.12s0.4-0.74,0.92-1.21
		c0.32-0.26,0.69-0.35,1.1-0.26c0.26,0.06,0.63,0.1,1.1,0.11c0.47,0.02,1.22-0.02,2.24-0.11c0.59-0.06,1.23-0.1,1.94-0.13
		c0.7-0.03,1.35-0.06,1.94-0.09c0.23,0,0.4-0.06,0.48-0.18c0.09-0.12,0.15-0.35,0.18-0.7c0.03-0.5,0-0.81-0.09-0.95
		c-0.09-0.13-0.21-0.2-0.35-0.2c-0.32-0.03-0.76-0.04-1.3-0.04c-0.54,0-1.02,0-1.43,0c-0.41,0-0.72,0.09-0.92,0.26
		c-0.56,0.47-1.25,0.91-2.07,1.32c-0.59,0.29-1.04,0.46-1.36,0.48c-0.32,0.03-0.57-0.03-0.75-0.18c-0.41-0.29-0.4-0.67,0.04-1.14
		c0.53-0.56,0.96-1.04,1.3-1.45s0.62-0.8,0.86-1.17c0.23-0.37,0.42-0.73,0.57-1.1c0.15-0.37,0.29-0.77,0.44-1.21
		c0.21-0.59,0.48-0.94,0.84-1.06c0.35-0.12,0.84-0.07,1.45,0.13c0.41,0.15,0.72,0.46,0.92,0.92c0.21,0.47,0.28,0.94,0.22,1.41
		c-0.03,0.32,0.15,0.48,0.53,0.48c0.41,0,0.7-0.04,0.86-0.11c0.16-0.07,0.24-0.21,0.24-0.42c-0.03-0.35-0.05-0.75-0.07-1.19
		c-0.01-0.44-0.05-0.89-0.11-1.36c-0.06-0.56,0.09-0.98,0.44-1.28c0.35-0.29,0.73-0.42,1.14-0.4c0.82,0.03,1.55,0.31,2.2,0.84
		c0.18,0.15,0.32,0.29,0.42,0.44c0.1,0.15,0.18,0.33,0.24,0.55c0.06,0.22,0.09,0.51,0.09,0.86s-0.01,0.81-0.04,1.36
		c-0.03,0.26-0.01,0.44,0.07,0.53c0.07,0.09,0.2,0.13,0.37,0.13c0.91,0,1.76-0.01,2.55-0.02c0.79-0.01,1.6-0.01,2.42,0.02
		c0.41,0,0.72,0.12,0.92,0.35c0.21,0.24,0.28,0.51,0.22,0.84c-0.06,0.29-0.24,0.56-0.55,0.79c-0.31,0.24-0.79,0.37-1.43,0.4
		c-0.62,0.06-1.22,0.09-1.8,0.11c-0.59,0.02-1.41,0.01-2.46-0.02c-0.21,0-0.37,0.05-0.48,0.15c-0.12,0.1-0.21,0.36-0.26,0.77
		c-0.06,0.38-0.05,0.62,0.02,0.73c0.07,0.1,0.21,0.15,0.42,0.15c0.94,0,1.98-0.01,3.12-0.02c1.14-0.01,2.42-0.01,3.83,0.02
		c0.79,0,1.36,0.06,1.69,0.18C125.09,9.27,125.28,9.45,125.34,9.68z M117.95,15.62c0.03-0.38-0.04-0.64-0.2-0.77
		c-0.16-0.13-0.58-0.23-1.25-0.29c-0.85-0.12-1.83-0.17-2.95-0.15c-1.12,0.02-2.42,0.1-3.92,0.24c-0.15,0.03-0.26,0.11-0.35,0.24
		c-0.09,0.13-0.1,0.43-0.04,0.9c0.06,0.53,0.12,0.87,0.2,1.01c0.07,0.15,0.21,0.22,0.42,0.22h6.47c0.65,0,1.07-0.11,1.28-0.33
		C117.8,16.48,117.92,16.12,117.95,15.62z"/>
	<path d="M157.24,11.66c-0.06,0.41-0.23,0.68-0.51,0.81c-0.28,0.13-0.74,0.18-1.39,0.15h-2.42c-0.29,0-0.44,0.15-0.44,0.44
		c0.06,1.32,0.12,2.87,0.18,4.64s0.13,3.73,0.22,5.87c0.03,0.82-0.08,1.43-0.33,1.83c-0.25,0.4-0.83,0.74-1.74,1.03
		c-0.97,0.32-1.61,0.24-1.91-0.26c-0.31-0.5-0.46-1.22-0.46-2.16c0.03-1.58,0.06-3.31,0.09-5.17c0.03-1.86,0.07-3.75,0.13-5.65
		c0-0.26-0.13-0.4-0.4-0.4c-0.26,0-0.59,0.01-0.97,0.02c-0.38,0.02-0.69,0.02-0.92,0.02c-0.29,0-0.44,0.13-0.44,0.4
		c-0.06,1.32-0.16,2.48-0.31,3.48s-0.36,1.87-0.64,2.62c-0.28,0.75-0.62,1.42-1.03,2s-0.89,1.13-1.45,1.63
		c-0.7,0.67-1.49,1.2-2.35,1.58c-0.87,0.38-1.69,0.65-2.49,0.79s-1.5,0.19-2.11,0.13c-0.62-0.06-1.06-0.21-1.32-0.44
		c-1.06-0.91-1.54-1.54-1.45-1.89s0.7-0.6,1.85-0.75c0.65-0.09,1.34-0.31,2.09-0.66c0.75-0.35,1.45-0.78,2.11-1.3
		c0.66-0.51,1.24-1.08,1.74-1.69c0.5-0.62,0.84-1.23,1.01-1.85c0.09-0.35,0.18-0.85,0.26-1.5c0.09-0.64,0.18-1.28,0.26-1.89
		c0.03-0.21,0.01-0.34-0.07-0.42s-0.23-0.09-0.46-0.07c-1.12,0.06-2,0.12-2.64,0.18c-0.65,0.06-1.18,0.12-1.61,0.18
		s-0.79,0.14-1.1,0.24c-0.31,0.1-0.65,0.21-1.03,0.33c-0.44,0.18-0.89,0.24-1.36,0.18c-0.47-0.06-0.78-0.21-0.92-0.44
		c-0.09-0.15-0.15-0.28-0.2-0.4c-0.04-0.12-0.04-0.26,0.02-0.44s0.18-0.39,0.35-0.64c0.18-0.25,0.44-0.59,0.79-1.03
		c0.59-0.73,1.14-1.15,1.65-1.25c0.51-0.1,1.2,0.02,2.05,0.37c0.15,0.06,0.4,0.1,0.77,0.13c0.37,0.03,1.02,0.01,1.96-0.04
		c0.23-0.03,0.5-0.04,0.79-0.04c0.29,0,0.59-0.01,0.88-0.04c0.26,0,0.4-0.13,0.4-0.4c0.06-0.64,0.09-1.28,0.09-1.91
		c0-0.63-0.01-1.24-0.04-1.83c0-0.35-0.16-0.5-0.48-0.44c-0.5,0.06-0.97,0.13-1.41,0.22s-0.82,0.18-1.14,0.26
		c-0.85,0.32-1.48,0.46-1.89,0.4c-0.41-0.06-0.66-0.18-0.75-0.35c-0.5-0.88-0.07-1.85,1.28-2.9c0.35-0.26,0.64-0.46,0.88-0.57
		c0.23-0.12,0.45-0.18,0.64-0.2c0.19-0.01,0.37,0.01,0.55,0.07c0.18,0.06,0.38,0.13,0.62,0.22c0.56,0.24,1.2,0.4,1.94,0.48
		c0.73,0.09,1.35,0.09,1.85,0c0.5-0.09,1.22-0.15,2.18-0.18s1.96-0.04,3.01-0.04c1.06,0,2.05,0.02,2.99,0.07s1.64,0.11,2.11,0.2
		c0.79,0.15,1.29,0.29,1.5,0.42s0.31,0.33,0.31,0.59c0,0.41-0.12,0.7-0.37,0.86s-0.71,0.27-1.39,0.33
		c-0.12,0.03-0.34,0.04-0.68,0.04c-0.34,0-0.76,0.01-1.25,0.04c-0.29,0-0.44,0.15-0.44,0.44c-0.03,1.09-0.03,2.32,0,3.7
		c0,0.29,0.15,0.44,0.44,0.44c0.62-0.03,1.15-0.04,1.61-0.02c0.46,0.02,0.75,0.04,0.9,0.07C156.74,10.39,157.36,10.84,157.24,11.66z
		 M148.84,6.12c0-0.29-0.15-0.44-0.44-0.44h-2.07c-0.29,0-0.44,0.15-0.44,0.44c0.03,0.68,0.05,1.32,0.07,1.94s0.02,1.2,0.02,1.76
		c0,0.29,0.15,0.44,0.44,0.44h1.89c0.26,0,0.4-0.15,0.4-0.44C148.74,8.64,148.78,7.41,148.84,6.12z M173.65,14.3
		c0.67,0.76,0.95,1.45,0.81,2.05c-0.13,0.6-0.73,1.24-1.78,1.91c-2.32,1.41-3.75,2.38-4.31,2.9c-0.67,0.62-1.35,1.19-2.02,1.72
		c-0.67,0.53-1.32,1-1.94,1.43c-0.62,0.43-1.18,0.78-1.69,1.06c-0.51,0.28-0.93,0.46-1.25,0.55c-2.02,0.59-3.59,0.84-4.69,0.77
		c-1.1-0.07-2.05-0.51-2.84-1.3c-0.41-0.41-0.57-0.72-0.48-0.92c0.09-0.21,0.47-0.41,1.14-0.62c1.26-0.35,2.37-0.68,3.32-0.99
		c0.95-0.31,1.82-0.62,2.6-0.92c0.78-0.31,1.5-0.63,2.18-0.97s1.36-0.71,2.07-1.12c0.32-0.18,0.73-0.44,1.21-0.79
		c0.48-0.35,1-0.77,1.54-1.25c0.54-0.48,1.09-1.01,1.65-1.58c0.56-0.57,1.07-1.15,1.54-1.74c0.59-0.73,1.07-1.11,1.45-1.12
		C172.54,13.34,173.04,13.66,173.65,14.3z M170,11.66c-1.94,1.41-3.99,2.56-6.16,3.45c-2.17,0.9-4.14,1.49-5.9,1.78
		c-0.73,0.12-1.24,0.07-1.52-0.13c-0.28-0.21-0.4-0.51-0.37-0.92c0.03-0.23,0.09-0.4,0.2-0.51s0.36-0.23,0.77-0.37
		c2.08-0.73,3.92-1.55,5.52-2.44c1.6-0.89,2.88-1.78,3.85-2.66c0.44-0.41,0.81-0.73,1.1-0.95c0.29-0.22,0.54-0.36,0.75-0.42
		c0.21-0.06,0.4-0.05,0.57,0.02s0.4,0.2,0.66,0.37c0.67,0.44,1.04,0.93,1.1,1.47C170.63,10.91,170.44,11.34,170,11.66z M170.05,4.76
		c-0.21,0.21-0.59,0.46-1.14,0.75c-0.56,0.29-1.21,0.59-1.96,0.9c-0.75,0.31-1.55,0.61-2.4,0.9c-0.85,0.29-1.67,0.57-2.46,0.81
		c-0.79,0.25-1.53,0.45-2.2,0.59c-0.68,0.15-1.2,0.22-1.58,0.22c-0.41,0-0.73-0.09-0.97-0.26c-0.23-0.18-0.44-0.47-0.62-0.88
		c-0.12-0.29-0.12-0.54,0-0.75c0.12-0.21,0.41-0.35,0.88-0.44c0.94-0.18,1.85-0.42,2.75-0.75c0.89-0.32,1.72-0.67,2.46-1.06
		s1.38-0.76,1.89-1.14c0.51-0.38,0.87-0.7,1.08-0.97c0.76-0.97,1.49-1.51,2.18-1.63s1.27,0.15,1.74,0.79
		c0.56,0.73,0.85,1.31,0.88,1.72C170.6,3.98,170.43,4.38,170.05,4.76z"/>
	<path d="M219.9,10.04c-0.32,0.53-0.74,1.04-1.25,1.54c-0.51,0.5-1.21,1-2.09,1.5c-0.26,0.15-0.55,0.26-0.86,0.33
		s-0.68,0.1-1.12,0.07s-0.98-0.11-1.61-0.24s-1.4-0.33-2.31-0.59c-0.53-0.15-1.21-0.28-2.05-0.4c-0.84-0.12-2.09-0.21-3.76-0.26
		c-0.65-0.03-1.09,0.02-1.34,0.15c-0.25,0.13-0.37,0.32-0.37,0.55c0,1.44-0.35,2.88-1.06,4.33s-1.69,2.8-2.97,4.05
		c-1.28,1.25-2.79,2.35-4.55,3.3c-1.76,0.95-3.7,1.65-5.81,2.09c-2.41,0.5-4.28,0.49-5.63-0.02c-1.35-0.51-2.41-1.53-3.17-3.06
		c-0.24-0.5-0.29-0.84-0.18-1.01c0.12-0.18,0.5-0.23,1.14-0.18c2.64,0.26,5.04,0.21,7.22-0.18s4.05-1,5.63-1.87
		c1.58-0.87,2.85-1.91,3.81-3.15c0.95-1.23,1.55-2.55,1.78-3.96c0.09-0.67-0.24-1.01-0.97-1.01c-3.2-0.06-5.94,0.01-8.23,0.22
		c-2.29,0.21-3.99,0.48-5.1,0.84c-1.03,0.32-1.76,0.39-2.2,0.2c-0.44-0.19-0.62-0.54-0.53-1.03c0.23-1.2,0.66-2.04,1.28-2.51
		c0.67-0.5,1.27-0.78,1.78-0.86c0.51-0.07,0.89-0.04,1.12,0.11c0.23,0.15,0.56,0.25,0.99,0.31c0.42,0.06,1.11,0.06,2.05,0
		c0.76-0.06,1.61-0.1,2.53-0.13c0.92-0.03,2.13-0.06,3.61-0.09c1.48-0.03,3.31-0.04,5.5-0.04s4.94,0,8.25,0c1.61,0,2.9,0,3.87,0
		c0.97,0,1.78,0,2.44,0s1.23-0.01,1.72-0.02c0.48-0.01,1.03-0.04,1.65-0.07c0.5-0.03,0.81,0.04,0.95,0.2
		C220.18,9.3,220.13,9.6,219.9,10.04z M211.67,3.88c-0.03,0.26-0.19,0.47-0.48,0.62c-0.29,0.15-0.79,0.25-1.5,0.31
		c-0.18,0.03-0.35,0.05-0.53,0.07c-0.18,0.02-0.4,0.02-0.68,0.02c-0.28,0-0.63,0-1.06,0s-0.96,0-1.61,0c-0.67,0-1.51,0.01-2.51,0.02
		c-1,0.02-1.99,0.04-2.97,0.07s-1.87,0.05-2.66,0.07c-0.79,0.02-1.3,0.02-1.54,0.02c-0.97,0.06-1.75,0.1-2.33,0.13
		c-0.59,0.03-1.06,0.06-1.41,0.09c-0.35,0.03-0.62,0.06-0.79,0.09c-0.18,0.03-0.32,0.06-0.44,0.09c-0.85,0.23-1.45,0.26-1.78,0.07
		c-0.34-0.19-0.48-0.51-0.42-0.95c0.03-0.32,0.15-0.67,0.37-1.06c0.22-0.38,0.54-0.73,0.95-1.06c0.32-0.23,0.71-0.36,1.17-0.37
		c0.45-0.01,0.89,0.08,1.3,0.29c0.38,0.18,0.81,0.27,1.28,0.29c0.47,0.02,1.16-0.02,2.07-0.11c0.88-0.09,1.64-0.15,2.29-0.2
		s1.33-0.08,2.07-0.11c0.73-0.03,1.59-0.04,2.57-0.02c0.98,0.01,2.24,0.04,3.76,0.07c1.14,0.03,1.99,0.07,2.55,0.11
		s1.1,0.11,1.63,0.2c0.23,0.06,0.42,0.18,0.55,0.35C211.65,3.13,211.7,3.44,211.67,3.88z M216.42,6.03
		c-0.03,0.68-0.16,1.07-0.4,1.19c-0.24,0.12-0.43,0.01-0.57-0.31c-0.21-0.5-0.44-0.95-0.7-1.34c-0.26-0.4-0.57-0.8-0.92-1.21
		c-0.35-0.41-0.56-0.85-0.62-1.32c-0.06-0.47,0.04-0.89,0.31-1.28c0.47-0.65,1.04-0.63,1.72,0.04
		C216.11,2.69,216.51,4.1,216.42,6.03z M220.12,4.98c-0.03,0.76-0.16,1.2-0.4,1.32c-0.24,0.12-0.43,0.01-0.57-0.31
		c-0.24-0.5-0.48-0.97-0.73-1.43c-0.25-0.45-0.52-0.89-0.81-1.3c-0.29-0.41-0.47-0.87-0.53-1.36c-0.06-0.5,0.03-0.91,0.26-1.23
		c0.15-0.23,0.36-0.37,0.64-0.4c0.28-0.03,0.56,0.12,0.86,0.44C219.75,1.68,220.18,3.1,220.12,4.98z"/>
	<path d="M263.68,9.77c-0.23,0.15-0.65,0.25-1.23,0.31c-0.59,0.06-1.28,0.06-2.07,0c-0.67-0.06-1.25-0.09-1.74-0.11
		c-0.48-0.01-0.98-0.02-1.47-0.02c-0.59,0-0.88,0.21-0.88,0.62c0,0.88-0.09,1.64-0.26,2.29c-0.5,1.73-1.15,3.32-1.96,4.75
		c-0.81,1.44-1.84,2.74-3.1,3.92c-1.26,1.17-2.79,2.23-4.6,3.17c-1.8,0.94-3.94,1.78-6.4,2.51c-0.7,0.23-1.47,0.34-2.31,0.31
		c-0.84-0.03-1.65-0.18-2.44-0.44s-1.53-0.62-2.2-1.08c-0.67-0.45-1.2-1-1.58-1.65c-0.56-0.91-0.42-1.36,0.4-1.36
		c5.6-0.09,10.01-1,13.22-2.75s5.39-4.13,6.53-7.15c0.12-0.26,0.21-0.62,0.26-1.06c0.06-0.44,0.07-0.89,0.04-1.36
		c0-0.47-0.29-0.7-0.88-0.7c-0.97-0.03-2.18-0.05-3.63-0.07s-2.92-0.01-4.4,0c-1.48,0.01-2.88,0.04-4.18,0.07
		c-1.31,0.03-2.31,0.06-3.01,0.09c-0.24,0-0.41,0.08-0.53,0.24c-0.12,0.16-0.18,0.45-0.18,0.86c0,1.06-0.01,1.94-0.02,2.64
		c-0.02,0.7-0.04,1.28-0.09,1.74s-0.09,0.81-0.13,1.06c-0.04,0.25-0.11,0.43-0.2,0.55c-0.21,0.41-0.47,0.72-0.79,0.92
		c-0.32,0.21-0.65,0.31-0.97,0.31c-0.32,0-0.62-0.08-0.9-0.24c-0.28-0.16-0.49-0.42-0.64-0.77c-0.12-0.29-0.21-0.88-0.26-1.76
		c-0.06-0.88-0.09-2.29-0.09-4.22c0-0.67-0.28-1-0.84-0.97c-1.94,0.18-3.36,0.43-4.27,0.75c-0.65,0.23-1.14,0.33-1.5,0.29
		c-0.35-0.04-0.63-0.18-0.84-0.42c-0.41-0.47-0.57-0.96-0.48-1.47c0.09-0.51,0.42-0.95,1.01-1.3c1.03-0.64,1.79-1.03,2.29-1.14
		c0.5-0.12,0.98-0.09,1.45,0.09c0.38,0.15,0.73,0.23,1.03,0.26c0.31,0.03,0.74,0.04,1.3,0.04c0.44,0,0.66-0.16,0.66-0.48
		c0-1,0.01-1.84,0.04-2.53c0.03-0.69,0.07-1.25,0.11-1.69c0.04-0.44,0.09-0.77,0.15-0.99c0.06-0.22,0.12-0.39,0.18-0.51
		c0.44-0.76,0.99-1.17,1.65-1.21s1.28,0.27,1.87,0.95c0.12,0.15,0.23,0.34,0.33,0.59c0.1,0.25,0.18,0.58,0.22,0.99
		c0.04,0.41,0.07,0.95,0.07,1.61c0,0.66-0.03,1.47-0.09,2.44c0,0.35,0.26,0.53,0.79,0.53h15.05c0.5,0,0.75-0.22,0.75-0.66
		c-0.03-1.53-0.02-2.67,0.04-3.43c0.06-0.76,0.16-1.39,0.31-1.89c0.23-0.73,0.69-1.11,1.36-1.12c0.67-0.01,1.36,0.37,2.07,1.17
		c0.12,0.18,0.23,0.37,0.33,0.57c0.1,0.21,0.18,0.51,0.24,0.9c0.06,0.4,0.09,0.91,0.11,1.54c0.01,0.63,0.01,1.45-0.02,2.44
		c0,0.38,0.26,0.57,0.79,0.57c0.76,0,1.41,0,1.94,0c0.53,0,1,0.01,1.43,0.02c0.42,0.02,0.84,0.03,1.23,0.04
		c0.4,0.02,0.84,0.04,1.34,0.07c0.35,0.03,0.63,0.14,0.84,0.33c0.21,0.19,0.33,0.41,0.37,0.66s0.01,0.5-0.09,0.75
		C264.12,9.38,263.94,9.6,263.68,9.77z M261.43,5.5c-0.03,0.7-0.17,1.12-0.42,1.25c-0.25,0.13-0.42,0.04-0.51-0.29
		c-0.15-0.5-0.32-0.9-0.53-1.21c-0.21-0.31-0.48-0.67-0.84-1.08c-0.35-0.38-0.57-0.8-0.64-1.25s0.04-0.89,0.33-1.3
		c0.44-0.59,0.98-0.56,1.63,0.09c0.41,0.41,0.69,0.91,0.84,1.5S261.49,4.57,261.43,5.5z M264.65,4.71c0,0.7-0.12,1.13-0.37,1.28
		c-0.25,0.15-0.45,0.04-0.59-0.31c-0.23-0.56-0.46-1.03-0.66-1.43c-0.21-0.4-0.47-0.81-0.79-1.25c-0.32-0.44-0.51-0.9-0.55-1.39
		s0.04-0.86,0.24-1.12c0.18-0.23,0.4-0.36,0.66-0.37c0.26-0.01,0.53,0.12,0.79,0.42c0.44,0.47,0.77,1.07,0.99,1.8
		S264.67,3.86,264.65,4.71z"/>
	<path d="M301.65,2.07c-0.41,1-1.09,2.05-2.02,3.15c-0.94,1.1-2.38,2.44-4.31,4.03c-0.26,0.21-0.46,0.53-0.59,0.97
		c-0.13,0.44-0.21,1.22-0.24,2.33c-0.03,1.53-0.05,3.17-0.07,4.93s-0.02,3.48-0.02,5.15c0,0.97-0.02,1.74-0.07,2.31
		s-0.13,1.02-0.26,1.34c-0.13,0.32-0.32,0.56-0.57,0.7c-0.25,0.15-0.57,0.28-0.95,0.4c-1.12,0.35-1.94,0.26-2.46-0.26
		s-0.75-1.67-0.66-3.43c0.06-1.11,0.11-2.43,0.15-3.94c0.04-1.51,0.07-3.41,0.07-5.7c0-0.56-0.07-0.87-0.22-0.95
		s-0.43,0.04-0.84,0.33c-1.32,0.91-2.74,1.72-4.25,2.42c-1.51,0.7-3.15,1.29-4.91,1.76c-1.58,0.41-3,0.4-4.25-0.04
		c-1.25-0.44-2.5-1.36-3.76-2.77c-0.32-0.35-0.46-0.6-0.4-0.75c0.06-0.15,0.22-0.25,0.48-0.31c6.48-0.94,12.04-2.46,16.68-4.58
		c4.63-2.11,8.37-4.77,11.22-7.96c0.44-0.5,0.84-0.83,1.21-0.99c0.37-0.16,0.66-0.19,0.88-0.09c0.22,0.1,0.35,0.32,0.4,0.66
		C301.94,1.11,301.86,1.54,301.65,2.07z"/>
	<path d="M311.29,27.37c-1.26,0.15-2.19-0.01-2.77-0.46c-0.59-0.45-0.91-1.06-0.97-1.83c-0.09-1.7,0.89-2.64,2.95-2.82
		c2.67-0.23,5.28-0.78,7.83-1.63s4.88-1.98,7-3.39c1.11-0.7,2.24-1.53,3.39-2.46c1.14-0.94,2.27-1.98,3.37-3.12
		c1.1-1.14,2.16-2.36,3.17-3.65s1.94-2.64,2.79-4.05c0.29-0.5,0.59-0.82,0.9-0.97c0.31-0.15,0.54-0.13,0.68,0.04
		c0.23,0.24,0.34,0.52,0.31,0.86c-0.03,0.34-0.16,0.8-0.4,1.39c-0.56,1.26-1.32,2.64-2.29,4.14c-0.97,1.5-2.02,2.96-3.17,4.4
		c-1.14,1.44-2.32,2.77-3.52,3.98c-1.2,1.22-2.33,2.19-3.39,2.93c-1.5,1.06-2.91,1.97-4.25,2.75s-2.65,1.43-3.94,1.96
		c-1.29,0.53-2.57,0.95-3.83,1.25C313.9,27,312.61,27.22,311.29,27.37z M320.92,9.9c0.12,0.76-0.01,1.25-0.4,1.47
		c-0.38,0.22-0.78,0.12-1.19-0.29c-0.41-0.44-0.81-0.84-1.19-1.19c-0.38-0.35-0.79-0.71-1.23-1.08c-0.44-0.37-0.94-0.75-1.5-1.17
		c-0.56-0.41-1.2-0.88-1.94-1.41c-1.23-0.85-1.97-1.62-2.2-2.31c-0.24-0.69-0.12-1.33,0.35-1.91c0.29-0.38,0.75-0.6,1.39-0.66
		c0.63-0.06,1.21,0.06,1.74,0.35c1.67,0.94,3.04,2.13,4.09,3.59C319.91,6.76,320.6,8.29,320.92,9.9z"/>
</g>
</svg>
